<ttFont>
<head>
    <!-- Most of this table will be recalculated by the compiler -->
    <tableVersion value="1.0"/>
    <fontRevision value="1.00099"/>
    <checkSumAdjustment value="0x9a4be8a6"/>
    <magicNumber value="0x5f0f3cf5"/>
    <flags value="00000000 00000001"/>
    <unitsPerEm value="1000"/>
    <created value="Fri Mar 11 14:19:23 2016"/>
    <modified value="Fri Mar 11 14:19:24 2016"/>
    <xMin value="-445"/>
    <yMin value="-386"/>
    <xMax value="1075"/>
    <yMax value="854"/>
    <macStyle value="00000000 00000000"/>
    <lowestRecPPEM value="6"/>
    <fontDirectionHint value="2"/>
    <indexToLocFormat value="0"/>
    <glyphDataFormat value="0"/>
  </head>
    <TTGlyph name=".notdef" xMin="64" yMin="0" xMax="579" yMax="515">
      <contour>
        <pt x="64" y="0" on="1"/>
        <pt x="64" y="515" on="1"/>
        <pt x="579" y="515" on="1"/>
        <pt x="579" y="0" on="1"/>
      </contour>
      <contour>
        <pt x="160" y="141" on="1"/>
        <pt x="203" y="92" on="1"/>
        <pt x="321" y="220" on="1"/>
        <pt x="444" y="92" on="1"/>
        <pt x="485" y="133" on="1"/>
        <pt x="358" y="257" on="1"/>
        <pt x="485" y="379" on="1"/>
        <pt x="441" y="421" on="1"/>
        <pt x="322" y="293" on="1"/>
        <pt x="201" y="421" on="1"/>
        <pt x="160" y="379" on="1"/>
        <pt x="285" y="256" on="1"/>
      </contour>
    </TTGlyph>
    <TTGlyph name="A" xMin="3" yMin="0" xMax="554" yMax="570">
      <contour>
        <pt x="370" y="214" on="1"/>
        <pt x="265" y="506" on="1"/>
        <pt x="168" y="214" on="1"/>
      </contour>
      <contour>
        <pt x="184" y="32" on="1"/>
        <pt x="184" y="0" on="1"/>
        <pt x="3" y="0" on="1"/>
        <pt x="3" y="32" on="1"/>
        <pt x="46" y="42" on="1"/>
        <pt x="54" y="44" on="0"/>
        <pt x="66" y="54" on="0"/>
        <pt x="68" y="62" on="1"/>
        <pt x="244" y="570" on="1"/>
        <pt x="305" y="570" on="1"/>
        <pt x="491" y="62" on="1"/>
        <pt x="494" y="54" on="0"/>
        <pt x="505" y="44" on="0"/>
        <pt x="513" y="42" on="1"/>
        <pt x="554" y="32" on="1"/>
        <pt x="554" y="0" on="1"/>
        <pt x="358" y="0" on="1"/>
        <pt x="358" y="32" on="1"/>
        <pt x="431" y="46" on="1"/>
        <pt x="384" y="176" on="1"/>
        <pt x="155" y="176" on="1"/>
        <pt x="112" y="46" on="1"/>
      </contour>
    </TTGlyph>
    <TTGlyph name="AE" xMin="0" yMin="0" xMax="716" yMax="568">
      <contour>
        <pt x="320" y="528" on="1"/>
        <pt x="202" y="251" on="1"/>
        <pt x="369" y="251" on="1"/>
        <pt x="369" y="528" on="1"/>
      </contour>
      <contour>
        <pt x="185" y="32" on="1"/>
        <pt x="185" y="0" on="1"/>
        <pt x="0" y="0" on="1"/>
        <pt x="0" y="32" on="1"/>
        <pt x="46" y="42" on="1"/>
        <pt x="54" y="43" on="0"/>
        <pt x="65" y="53" on="0"/>
        <pt x="69" y="60" on="1"/>
        <pt x="266" y="520" on="1"/>
        <pt x="172" y="536" on="1"/>
        <pt x="172" y="568" on="1"/>
        <pt x="681" y="568" on="1"/>
        <pt x="683" y="535" on="0"/>
        <pt x="683" y="470" on="0"/>
        <pt x="680" y="433" on="1"/>
        <pt x="647" y="433" on="1"/>
        <pt x="632" y="503" on="1"/>
        <pt x="630" y="510" on="0"/>
        <pt x="620" y="520" on="0"/>
        <pt x="611" y="524" on="1"/>
        <pt x="598" y="528" on="0"/>
        <pt x="555" y="532" on="0"/>
        <pt x="530" y="532" on="1"/>
        <pt x="429" y="532" on="1"/>
        <pt x="429" y="311" on="1"/>
        <pt x="613" y="317" on="1"/>
        <pt x="613" y="268" on="1"/>
        <pt x="429" y="272" on="1"/>
        <pt x="429" y="39" on="1"/>
        <pt x="552" y="39" on="1"/>
        <pt x="578" y="39" on="0"/>
        <pt x="624" y="43" on="0"/>
        <pt x="637" y="48" on="1"/>
        <pt x="646" y="51" on="0"/>
        <pt x="655" y="62" on="0"/>
        <pt x="658" y="69" on="1"/>
        <pt x="684" y="144" on="1"/>
        <pt x="716" y="140" on="1"/>
        <pt x="715" y="107" on="0"/>
        <pt x="707" y="35" on="0"/>
        <pt x="700" y="0" on="1"/>
        <pt x="291" y="0" on="1"/>
        <pt x="291" y="32" on="1"/>
        <pt x="349" y="43" on="1"/>
        <pt x="359" y="44" on="0"/>
        <pt x="369" y="56" on="0"/>
        <pt x="369" y="66" on="1"/>
        <pt x="369" y="212" on="1"/>
        <pt x="185" y="212" on="1"/>
        <pt x="113" y="43" on="1"/>
      </contour>
    </TTGlyph>
    <TTGlyph name="Aacute" xMin="3" yMin="0" xMax="554" yMax="747">
      <component glyphName="A" x="0" y="0" flags="0x204"/>
      <component glyphName="acutecomb.case" x="277" y="0" flags="0x4"/>
    </TTGlyph>
    <TTGlyph name="Abreve" xMin="3" yMin="0" xMax="554" yMax="730">
      <component glyphName="A" x="0" y="0" flags="0x204"/>
      <component glyphName="uni0306.case" x="277" y="0" flags="0x4"/>
    </TTGlyph>
    <TTGlyph name="Acircumflex" xMin="3" yMin="0" xMax="554" yMax="743">
      <component glyphName="A" x="0" y="0" flags="0x204"/>
      <component glyphName="uni0302.case" x="277" y="0" flags="0x4"/>
    </TTGlyph>
    <TTGlyph name="Adieresis" xMin="3" yMin="0" xMax="554" yMax="708">
      <component glyphName="A" x="0" y="0" flags="0x204"/>
      <component glyphName="uni0308.case" x="277" y="0" flags="0x4"/>
    </TTGlyph>
    <TTGlyph name="Agrave" xMin="3" yMin="0" xMax="554" yMax="751">
      <component glyphName="A" x="0" y="0" flags="0x204"/>
      <component glyphName="gravecomb.case" x="277" y="0" flags="0x4"/>
    </TTGlyph>
    <TTGlyph name="Amacron" xMin="3" yMin="0" xMax="554" yMax="686">
      <component glyphName="A" x="0" y="0" flags="0x204"/>
      <component glyphName="uni0304.case" x="277" y="0" flags="0x4"/>
    </TTGlyph>
    <TTGlyph name="Aogonek" xMin="3" yMin="-187" xMax="554" yMax="570">
      <contour>
        <pt x="370" y="214" on="1"/>
        <pt x="265" y="506" on="1"/>
        <pt x="168" y="214" on="1"/>
      </contour>
      <contour>
        <pt x="535" y="-160" on="1"/>
        <pt x="519" y="-172" on="0"/>
        <pt x="470" y="-187" on="0"/>
        <pt x="445" y="-187" on="1"/>
        <pt x="410" y="-187" on="0"/>
        <pt x="358" y="-154" on="0"/>
        <pt x="358" y="-119" on="1"/>
        <pt x="358" y="-81" on="0"/>
        <pt x="420" y="-19" on="0"/>
        <pt x="458" y="-2" on="1"/>
        <pt x="458" y="0" on="1"/>
        <pt x="358" y="0" on="1"/>
        <pt x="358" y="32" on="1"/>
        <pt x="431" y="46" on="1"/>
        <pt x="384" y="176" on="1"/>
        <pt x="155" y="176" on="1"/>
        <pt x="112" y="46" on="1"/>
        <pt x="184" y="32" on="1"/>
        <pt x="184" y="0" on="1"/>
        <pt x="3" y="0" on="1"/>
        <pt x="3" y="32" on="1"/>
        <pt x="46" y="42" on="1"/>
        <pt x="54" y="44" on="0"/>
        <pt x="66" y="54" on="0"/>
        <pt x="68" y="62" on="1"/>
        <pt x="244" y="570" on="1"/>
        <pt x="305" y="570" on="1"/>
        <pt x="491" y="62" on="1"/>
        <pt x="494" y="54" on="0"/>
        <pt x="505" y="44" on="0"/>
        <pt x="513" y="42" on="1"/>
        <pt x="554" y="32" on="1"/>
        <pt x="554" y="0" on="1"/>
        <pt x="513" y="0" on="1"/>
        <pt x="473" y="-16" on="0"/>
        <pt x="417" y="-71" on="0"/>
        <pt x="417" y="-101" on="1"/>
        <pt x="417" y="-123" on="0"/>
        <pt x="447" y="-145" on="0"/>
        <pt x="470" y="-145" on="1"/>
        <pt x="482" y="-145" on="0"/>
        <pt x="510" y="-139" on="0"/>
        <pt x="523" y="-133" on="1"/>
      </contour>
    </TTGlyph>
    <TTGlyph name="Aring" xMin="3" yMin="0" xMax="554" yMax="731">
      <component glyphName="A" x="0" y="0" flags="0x204"/>
      <component glyphName="uni030A.case.low" x="277" y="0" flags="0x4"/>
    </TTGlyph>
    <TTGlyph name="Atilde" xMin="3" yMin="0" xMax="554" yMax="719">
      <component glyphName="A" x="0" y="0" flags="0x204"/>
      <component glyphName="tildecomb.case" x="277" y="0" flags="0x4"/>
    </TTGlyph>
    <TTGlyph name="B" xMin="42" yMin="-4" xMax="493" yMax="574">
      <contour>
        <pt x="266" y="-4" on="1"/>
        <pt x="239" y="-4" on="0"/>
        <pt x="191" y="0" on="0"/>
        <pt x="148" y="0" on="1"/>
        <pt x="42" y="0" on="1"/>
        <pt x="42" y="32" on="1"/>
        <pt x="103" y="43" on="1"/>
        <pt x="110" y="44" on="0"/>
        <pt x="120" y="56" on="0"/>
        <pt x="120" y="64" on="1"/>
        <pt x="120" y="503" on="1"/>
        <pt x="120" y="510" on="0"/>
        <pt x="111" y="522" on="0"/>
        <pt x="104" y="524" on="1"/>
        <pt x="42" y="536" on="1"/>
        <pt x="42" y="568" on="1"/>
        <pt x="151" y="568" on="1"/>
        <pt x="185" y="568" on="0"/>
        <pt x="240" y="574" on="0"/>
        <pt x="271" y="574" on="1"/>
        <pt x="367" y="574" on="0"/>
        <pt x="453" y="505" on="0"/>
        <pt x="453" y="441" on="1"/>
        <pt x="453" y="392" on="0"/>
        <pt x="403" y="315" on="0"/>
        <pt x="353" y="302" on="1"/>
        <pt x="419" y="301" on="0"/>
        <pt x="493" y="227" on="0"/>
        <pt x="493" y="167" on="1"/>
        <pt x="493" y="95" on="0"/>
        <pt x="395" y="-4" on="0"/>
      </contour>
      <contour>
        <pt x="181" y="535" on="1"/>
        <pt x="181" y="314" on="1"/>
        <pt x="207" y="313" on="0"/>
        <pt x="260" y="314" on="0"/>
        <pt x="273" y="314" on="1"/>
        <pt x="330" y="314" on="0"/>
        <pt x="392" y="372" on="0"/>
        <pt x="392" y="432" on="1"/>
        <pt x="392" y="486" on="0"/>
        <pt x="333" y="540" on="0"/>
        <pt x="259" y="540" on="1"/>
        <pt x="232" y="540" on="0"/>
        <pt x="192" y="535" on="0"/>
      </contour>
      <contour>
        <pt x="266" y="31" on="1"/>
        <pt x="352" y="31" on="0"/>
        <pt x="426" y="93" on="0"/>
        <pt x="426" y="156" on="1"/>
        <pt x="426" y="219" on="0"/>
        <pt x="360" y="276" on="0"/>
        <pt x="288" y="276" on="1"/>
        <pt x="271" y="276" on="0"/>
        <pt x="209" y="275" on="0"/>
        <pt x="181" y="275" on="1"/>
        <pt x="181" y="37" on="1"/>
        <pt x="197" y="35" on="0"/>
        <pt x="247" y="31" on="0"/>
      </contour>
    </TTGlyph>
    <TTGlyph name="C" xMin="49" yMin="-9" xMax="475" yMax="576">
      <contour>
        <pt x="308" y="-9" on="1"/>
        <pt x="177" y="-9" on="0"/>
        <pt x="49" y="144" on="0"/>
        <pt x="49" y="275" on="1"/>
        <pt x="49" y="423" on="0"/>
        <pt x="196" y="576" on="0"/>
        <pt x="320" y="576" on="1"/>
        <pt x="352" y="576" on="0"/>
        <pt x="436" y="564" on="0"/>
        <pt x="473" y="550" on="1"/>
        <pt x="474" y="520" on="0"/>
        <pt x="469" y="451" on="0"/>
        <pt x="465" y="419" on="1"/>
        <pt x="429" y="419" on="1"/>
        <pt x="413" y="496" on="1"/>
        <pt x="411" y="505" on="0"/>
        <pt x="402" y="516" on="0"/>
        <pt x="395" y="520" on="1"/>
        <pt x="382" y="527" on="0"/>
        <pt x="329" y="540" on="0"/>
        <pt x="299" y="540" on="1"/>
        <pt x="217" y="540" on="0"/>
        <pt x="119" y="419" on="0"/>
        <pt x="119" y="288" on="1"/>
        <pt x="119" y="177" on="0"/>
        <pt x="203" y="27" on="0"/>
        <pt x="300" y="27" on="1"/>
        <pt x="326" y="27" on="0"/>
        <pt x="377" y="39" on="0"/>
        <pt x="394" y="49" on="1"/>
        <pt x="401" y="54" on="0"/>
        <pt x="410" y="66" on="0"/>
        <pt x="413" y="74" on="1"/>
        <pt x="438" y="146" on="1"/>
        <pt x="474" y="142" on="1"/>
        <pt x="475" y="114" on="0"/>
        <pt x="469" y="48" on="0"/>
        <pt x="464" y="19" on="1"/>
        <pt x="434" y="6" on="0"/>
        <pt x="351" y="-9" on="0"/>
      </contour>
    </TTGlyph>
    <TTGlyph name="Cacute" xMin="49" yMin="-9" xMax="475" yMax="747">
      <component glyphName="C" x="0" y="0" flags="0x204"/>
      <component glyphName="acutecomb.case" x="304" y="0" flags="0x4"/>
    </TTGlyph>
    <TTGlyph name="Ccaron" xMin="49" yMin="-9" xMax="475" yMax="746">
      <component glyphName="C" x="0" y="0" flags="0x204"/>
      <component glyphName="uni030C.case" x="304" y="0" flags="0x4"/>
    </TTGlyph>
    <TTGlyph name="Ccedilla" xMin="49" yMin="-187" xMax="475" yMax="576">
      <component glyphName="C" x="0" y="0" flags="0x204"/>
      <component glyphName="uni0327" x="300" y="0" flags="0x4"/>
    </TTGlyph>
    <TTGlyph name="Ccircumflex" xMin="49" yMin="-9" xMax="475" yMax="743">
      <component glyphName="C" x="0" y="0" flags="0x204"/>
      <component glyphName="uni0302.case" x="304" y="0" flags="0x4"/>
    </TTGlyph>
    <TTGlyph name="Cdotaccent" xMin="49" yMin="-9" xMax="475" yMax="718">
      <component glyphName="C" x="0" y="0" flags="0x204"/>
      <component glyphName="uni0307.case" x="304" y="0" flags="0x4"/>
    </TTGlyph>
    <TTGlyph name="D" xMin="42" yMin="-8" xMax="556" yMax="574">
      <contour>
        <pt x="151" y="568" on="1"/>
        <pt x="185" y="568" on="0"/>
        <pt x="250" y="574" on="0"/>
        <pt x="284" y="574" on="1"/>
        <pt x="425" y="574" on="0"/>
        <pt x="556" y="431" on="0"/>
        <pt x="556" y="300" on="1"/>
        <pt x="556" y="148" on="0"/>
        <pt x="401" y="-8" on="0"/>
        <pt x="273" y="-5" on="1"/>
        <pt x="249" y="-5" on="0"/>
        <pt x="184" y="0" on="0"/>
        <pt x="152" y="0" on="1"/>
        <pt x="42" y="0" on="1"/>
        <pt x="42" y="32" on="1"/>
        <pt x="101" y="43" on="1"/>
        <pt x="110" y="44" on="0"/>
        <pt x="120" y="56" on="0"/>
        <pt x="120" y="65" on="1"/>
        <pt x="120" y="503" on="1"/>
        <pt x="120" y="510" on="0"/>
        <pt x="111" y="522" on="0"/>
        <pt x="104" y="524" on="1"/>
        <pt x="42" y="536" on="1"/>
        <pt x="42" y="568" on="1"/>
      </contour>
      <contour>
        <pt x="182" y="37" on="1"/>
        <pt x="200" y="34" on="0"/>
        <pt x="260" y="30" on="0"/>
        <pt x="283" y="31" on="1"/>
        <pt x="382" y="34" on="0"/>
        <pt x="490" y="157" on="0"/>
        <pt x="490" y="288" on="1"/>
        <pt x="490" y="419" on="0"/>
        <pt x="377" y="537" on="0"/>
        <pt x="264" y="537" on="1"/>
        <pt x="239" y="537" on="0"/>
        <pt x="197" y="534" on="0"/>
        <pt x="182" y="533" on="1"/>
      </contour>
    </TTGlyph>
    <TTGlyph name="Dcaron" xMin="42" yMin="-8" xMax="556" yMax="746">
      <component glyphName="D" x="0" y="0" flags="0x204"/>
      <component glyphName="uni030C.case" x="291" y="0" flags="0x4"/>
    </TTGlyph>
    <TTGlyph name="Dcroat" xMin="43" yMin="-8" xMax="557" yMax="574">
      <contour>
        <pt x="557" y="300" on="1"/>
        <pt x="557" y="148" on="0"/>
        <pt x="402" y="-8" on="0"/>
        <pt x="274" y="-5" on="1"/>
        <pt x="250" y="-5" on="0"/>
        <pt x="185" y="0" on="0"/>
        <pt x="153" y="0" on="1"/>
        <pt x="43" y="0" on="1"/>
        <pt x="43" y="32" on="1"/>
        <pt x="101" y="43" on="1"/>
        <pt x="111" y="44" on="0"/>
        <pt x="121" y="56" on="0"/>
        <pt x="121" y="65" on="1"/>
        <pt x="121" y="272" on="1"/>
        <pt x="47" y="272" on="1"/>
        <pt x="47" y="313" on="1"/>
        <pt x="121" y="313" on="1"/>
        <pt x="121" y="503" on="1"/>
        <pt x="121" y="510" on="0"/>
        <pt x="112" y="522" on="0"/>
        <pt x="104" y="524" on="1"/>
        <pt x="43" y="536" on="1"/>
        <pt x="43" y="568" on="1"/>
        <pt x="152" y="568" on="1"/>
        <pt x="186" y="568" on="0"/>
        <pt x="251" y="574" on="0"/>
        <pt x="285" y="574" on="1"/>
        <pt x="426" y="574" on="0"/>
        <pt x="557" y="431" on="0"/>
      </contour>
      <contour>
        <pt x="183" y="37" on="1"/>
        <pt x="201" y="34" on="0"/>
        <pt x="261" y="30" on="0"/>
        <pt x="283" y="31" on="1"/>
        <pt x="382" y="34" on="0"/>
        <pt x="491" y="157" on="0"/>
        <pt x="491" y="288" on="1"/>
        <pt x="491" y="419" on="0"/>
        <pt x="378" y="537" on="0"/>
        <pt x="265" y="537" on="1"/>
        <pt x="240" y="537" on="0"/>
        <pt x="198" y="534" on="0"/>
        <pt x="183" y="533" on="1"/>
        <pt x="183" y="313" on="1"/>
        <pt x="323" y="313" on="1"/>
        <pt x="323" y="272" on="1"/>
        <pt x="183" y="272" on="1"/>
      </contour>
    </TTGlyph>
    <TTGlyph name="E" xMin="42" yMin="0" xMax="469" yMax="568">
      <contour>
        <pt x="433" y="433" on="1"/>
        <pt x="400" y="433" on="1"/>
        <pt x="385" y="503" on="1"/>
        <pt x="383" y="510" on="0"/>
        <pt x="373" y="520" on="0"/>
        <pt x="364" y="524" on="1"/>
        <pt x="351" y="528" on="0"/>
        <pt x="308" y="532" on="0"/>
        <pt x="283" y="532" on="1"/>
        <pt x="182" y="532" on="1"/>
        <pt x="182" y="311" on="1"/>
        <pt x="366" y="317" on="1"/>
        <pt x="366" y="268" on="1"/>
        <pt x="182" y="272" on="1"/>
        <pt x="182" y="39" on="1"/>
        <pt x="305" y="39" on="1"/>
        <pt x="331" y="39" on="0"/>
        <pt x="377" y="43" on="0"/>
        <pt x="390" y="48" on="1"/>
        <pt x="399" y="51" on="0"/>
        <pt x="408" y="62" on="0"/>
        <pt x="411" y="69" on="1"/>
        <pt x="437" y="144" on="1"/>
        <pt x="469" y="140" on="1"/>
        <pt x="468" y="107" on="0"/>
        <pt x="460" y="35" on="0"/>
        <pt x="453" y="0" on="1"/>
        <pt x="42" y="0" on="1"/>
        <pt x="42" y="32" on="1"/>
        <pt x="101" y="43" on="1"/>
        <pt x="111" y="44" on="0"/>
        <pt x="120" y="56" on="0"/>
        <pt x="120" y="66" on="1"/>
        <pt x="120" y="501" on="1"/>
        <pt x="120" y="510" on="0"/>
        <pt x="110" y="523" on="0"/>
        <pt x="101" y="524" on="1"/>
        <pt x="42" y="536" on="1"/>
        <pt x="42" y="568" on="1"/>
        <pt x="435" y="568" on="1"/>
        <pt x="436" y="535" on="0"/>
        <pt x="436" y="470" on="0"/>
      </contour>
    </TTGlyph>
    <TTGlyph name="Eacute" xMin="42" yMin="0" xMax="469" yMax="747">
      <component glyphName="E" x="0" y="0" flags="0x204"/>
      <component glyphName="acutecomb.case" x="265" y="0" flags="0x4"/>
    </TTGlyph>
    <TTGlyph name="Ebreve" xMin="42" yMin="0" xMax="469" yMax="730">
      <component glyphName="E" x="0" y="0" flags="0x204"/>
      <component glyphName="uni0306.case" x="265" y="0" flags="0x4"/>
    </TTGlyph>
    <TTGlyph name="Ecaron" xMin="42" yMin="0" xMax="469" yMax="746">
      <component glyphName="E" x="0" y="0" flags="0x204"/>
      <component glyphName="uni030C.case" x="265" y="0" flags="0x4"/>
    </TTGlyph>
    <TTGlyph name="Ecircumflex" xMin="42" yMin="0" xMax="469" yMax="743">
      <component glyphName="E" x="0" y="0" flags="0x204"/>
      <component glyphName="uni0302.case" x="265" y="0" flags="0x4"/>
    </TTGlyph>
    <TTGlyph name="Edieresis" xMin="42" yMin="0" xMax="469" yMax="708">
      <component glyphName="E" x="0" y="0" flags="0x204"/>
      <component glyphName="uni0308.case" x="265" y="0" flags="0x4"/>
    </TTGlyph>
    <TTGlyph name="Edotaccent" xMin="42" yMin="0" xMax="469" yMax="718">
      <component glyphName="E" x="0" y="0" flags="0x204"/>
      <component glyphName="uni0307.case" x="265" y="0" flags="0x4"/>
    </TTGlyph>
    <TTGlyph name="Egrave" xMin="42" yMin="0" xMax="469" yMax="751">
      <component glyphName="E" x="0" y="0" flags="0x204"/>
      <component glyphName="gravecomb.case" x="265" y="0" flags="0x4"/>
    </TTGlyph>
    <TTGlyph name="Emacron" xMin="42" yMin="0" xMax="469" yMax="686">
      <component glyphName="E" x="0" y="0" flags="0x204"/>
      <component glyphName="uni0304.case" x="265" y="0" flags="0x4"/>
    </TTGlyph>
    <TTGlyph name="Eng" xMin="42" yMin="-180" xMax="605" yMax="568">
      <contour>
        <pt x="382" y="-180" on="1"/>
        <pt x="372" y="-180" on="0"/>
        <pt x="352" y="-178" on="0"/>
        <pt x="339" y="-177" on="1"/>
        <pt x="336" y="-142" on="1"/>
        <pt x="359" y="-138" on="0"/>
        <pt x="406" y="-126" on="0"/>
        <pt x="423" y="-116" on="1"/>
        <pt x="452" y="-98" on="0"/>
        <pt x="484" y="-36" on="0"/>
        <pt x="488" y="5" on="1"/>
        <pt x="165" y="479" on="1"/>
        <pt x="165" y="66" on="1"/>
        <pt x="165" y="56" on="0"/>
        <pt x="175" y="44" on="0"/>
        <pt x="185" y="43" on="1"/>
        <pt x="251" y="32" on="1"/>
        <pt x="251" y="0" on="1"/>
        <pt x="42" y="0" on="1"/>
        <pt x="42" y="32" on="1"/>
        <pt x="101" y="43" on="1"/>
        <pt x="111" y="44" on="0"/>
        <pt x="120" y="56" on="0"/>
        <pt x="120" y="66" on="1"/>
        <pt x="120" y="501" on="1"/>
        <pt x="120" y="510" on="0"/>
        <pt x="110" y="523" on="0"/>
        <pt x="101" y="524" on="1"/>
        <pt x="42" y="536" on="1"/>
        <pt x="42" y="568" on="1"/>
        <pt x="181" y="568" on="1"/>
        <pt x="489" y="112" on="1"/>
        <pt x="489" y="501" on="1"/>
        <pt x="489" y="510" on="0"/>
        <pt x="479" y="523" on="0"/>
        <pt x="469" y="524" on="1"/>
        <pt x="407" y="536" on="1"/>
        <pt x="407" y="568" on="1"/>
        <pt x="605" y="568" on="1"/>
        <pt x="605" y="536" on="1"/>
        <pt x="553" y="524" on="1"/>
        <pt x="544" y="522" on="0"/>
        <pt x="534" y="511" on="0"/>
        <pt x="534" y="501" on="1"/>
        <pt x="534" y="18" on="1"/>
        <pt x="534" y="-67" on="0"/>
        <pt x="472" y="-180" on="0"/>
      </contour>
    </TTGlyph>
    <TTGlyph name="Eogonek" xMin="42" yMin="-187" xMax="469" yMax="568">
      <contour>
        <pt x="464" y="-160" on="1"/>
        <pt x="447" y="-172" on="0"/>
        <pt x="398" y="-187" on="0"/>
        <pt x="373" y="-187" on="1"/>
        <pt x="339" y="-187" on="0"/>
        <pt x="287" y="-154" on="0"/>
        <pt x="287" y="-119" on="1"/>
        <pt x="287" y="-81" on="0"/>
        <pt x="350" y="-19" on="0"/>
        <pt x="391" y="-2" on="1"/>
        <pt x="391" y="0" on="1"/>
        <pt x="42" y="0" on="1"/>
        <pt x="42" y="32" on="1"/>
        <pt x="101" y="43" on="1"/>
        <pt x="111" y="44" on="0"/>
        <pt x="120" y="56" on="0"/>
        <pt x="120" y="66" on="1"/>
        <pt x="120" y="501" on="1"/>
        <pt x="120" y="510" on="0"/>
        <pt x="110" y="523" on="0"/>
        <pt x="101" y="524" on="1"/>
        <pt x="42" y="536" on="1"/>
        <pt x="42" y="568" on="1"/>
        <pt x="435" y="568" on="1"/>
        <pt x="436" y="535" on="0"/>
        <pt x="436" y="470" on="0"/>
        <pt x="433" y="433" on="1"/>
        <pt x="400" y="433" on="1"/>
        <pt x="385" y="503" on="1"/>
        <pt x="383" y="510" on="0"/>
        <pt x="373" y="520" on="0"/>
        <pt x="364" y="524" on="1"/>
        <pt x="351" y="528" on="0"/>
        <pt x="308" y="532" on="0"/>
        <pt x="283" y="532" on="1"/>
        <pt x="182" y="532" on="1"/>
        <pt x="182" y="311" on="1"/>
        <pt x="366" y="317" on="1"/>
        <pt x="366" y="268" on="1"/>
        <pt x="182" y="272" on="1"/>
        <pt x="182" y="39" on="1"/>
        <pt x="305" y="39" on="1"/>
        <pt x="331" y="39" on="0"/>
        <pt x="377" y="43" on="0"/>
        <pt x="390" y="48" on="1"/>
        <pt x="399" y="51" on="0"/>
        <pt x="408" y="62" on="0"/>
        <pt x="411" y="69" on="1"/>
        <pt x="437" y="144" on="1"/>
        <pt x="469" y="140" on="1"/>
        <pt x="468" y="107" on="0"/>
        <pt x="460" y="35" on="0"/>
        <pt x="453" y="0" on="1"/>
        <pt x="413" y="-11" on="0"/>
        <pt x="345" y="-69" on="0"/>
        <pt x="345" y="-101" on="1"/>
        <pt x="345" y="-123" on="0"/>
        <pt x="375" y="-145" on="0"/>
        <pt x="398" y="-145" on="1"/>
        <pt x="410" y="-145" on="0"/>
        <pt x="438" y="-139" on="0"/>
        <pt x="451" y="-133" on="1"/>
      </contour>
    </TTGlyph>
    <TTGlyph name="Eth" xMin="43" yMin="-8" xMax="557" yMax="574">
      <component glyphName="Dcroat" x="0" y="0" flags="0x204"/>
    </TTGlyph>
    <TTGlyph name="Euro" xMin="38" yMin="-7" xMax="480" yMax="506">
      <contour>
        <pt x="470" y="20" on="1"/>
        <pt x="446" y="9" on="0"/>
        <pt x="372" y="-7" on="0"/>
        <pt x="335" y="-7" on="1"/>
        <pt x="243" y="-7" on="0"/>
        <pt x="134" y="88" on="0"/>
        <pt x="121" y="178" on="1"/>
        <pt x="38" y="178" on="1"/>
        <pt x="38" y="215" on="1"/>
        <pt x="118" y="215" on="1"/>
        <pt x="117" y="220" on="0"/>
        <pt x="117" y="231" on="0"/>
        <pt x="117" y="237" on="1"/>
        <pt x="117" y="248" on="0"/>
        <pt x="118" y="269" on="0"/>
        <pt x="119" y="279" on="1"/>
        <pt x="44" y="279" on="1"/>
        <pt x="44" y="315" on="1"/>
        <pt x="124" y="315" on="1"/>
        <pt x="142" y="409" on="0"/>
        <pt x="262" y="506" on="0"/>
        <pt x="348" y="506" on="1"/>
        <pt x="377" y="506" on="0"/>
        <pt x="447" y="495" on="0"/>
        <pt x="477" y="482" on="1"/>
        <pt x="478" y="454" on="0"/>
        <pt x="474" y="389" on="0"/>
        <pt x="470" y="360" on="1"/>
        <pt x="436" y="360" on="1"/>
        <pt x="421" y="432" on="1"/>
        <pt x="420" y="439" on="0"/>
        <pt x="411" y="450" on="0"/>
        <pt x="404" y="454" on="1"/>
        <pt x="392" y="461" on="0"/>
        <pt x="351" y="472" on="0"/>
        <pt x="329" y="472" on="1"/>
        <pt x="276" y="472" on="0"/>
        <pt x="201" y="394" on="0"/>
        <pt x="189" y="315" on="1"/>
        <pt x="367" y="315" on="1"/>
        <pt x="367" y="279" on="1"/>
        <pt x="185" y="279" on="1"/>
        <pt x="184" y="271" on="0"/>
        <pt x="184" y="253" on="0"/>
        <pt x="184" y="244" on="1"/>
        <pt x="184" y="237" on="0"/>
        <pt x="184" y="222" on="0"/>
        <pt x="185" y="215" on="1"/>
        <pt x="362" y="215" on="1"/>
        <pt x="362" y="178" on="1"/>
        <pt x="188" y="178" on="1"/>
        <pt x="198" y="106" on="0"/>
        <pt x="267" y="27" on="0"/>
        <pt x="327" y="27" on="1"/>
        <pt x="352" y="27" on="0"/>
        <pt x="391" y="41" on="0"/>
        <pt x="403" y="49" on="1"/>
        <pt x="410" y="54" on="0"/>
        <pt x="419" y="65" on="0"/>
        <pt x="422" y="73" on="1"/>
        <pt x="444" y="138" on="1"/>
        <pt x="479" y="135" on="1"/>
        <pt x="480" y="108" on="0"/>
        <pt x="476" y="48" on="0"/>
      </contour>
    </TTGlyph>
    <TTGlyph name="Euro.tf" xMin="2" yMin="-7" xMax="412" yMax="506">
      <contour>
        <pt x="403" y="19" on="1"/>
        <pt x="380" y="7" on="0"/>
        <pt x="312" y="-7" on="0"/>
        <pt x="277" y="-7" on="1"/>
        <pt x="187" y="-7" on="0"/>
        <pt x="84" y="87" on="0"/>
        <pt x="72" y="178" on="1"/>
        <pt x="2" y="178" on="1"/>
        <pt x="2" y="215" on="1"/>
        <pt x="68" y="215" on="1"/>
        <pt x="68" y="220" on="0"/>
        <pt x="68" y="231" on="0"/>
        <pt x="68" y="237" on="1"/>
        <pt x="68" y="248" on="0"/>
        <pt x="69" y="269" on="0"/>
        <pt x="70" y="279" on="1"/>
        <pt x="4" y="279" on="1"/>
        <pt x="4" y="315" on="1"/>
        <pt x="74" y="315" on="1"/>
        <pt x="91" y="411" on="0"/>
        <pt x="205" y="506" on="0"/>
        <pt x="286" y="506" on="1"/>
        <pt x="314" y="506" on="0"/>
        <pt x="380" y="495" on="0"/>
        <pt x="408" y="482" on="1"/>
        <pt x="409" y="454" on="0"/>
        <pt x="404" y="389" on="0"/>
        <pt x="400" y="360" on="1"/>
        <pt x="366" y="360" on="1"/>
        <pt x="351" y="432" on="1"/>
        <pt x="350" y="439" on="0"/>
        <pt x="342" y="450" on="0"/>
        <pt x="335" y="454" on="1"/>
        <pt x="324" y="461" on="0"/>
        <pt x="287" y="472" on="0"/>
        <pt x="268" y="472" on="1"/>
        <pt x="220" y="472" on="0"/>
        <pt x="150" y="393" on="0"/>
        <pt x="139" y="315" on="1"/>
        <pt x="303" y="315" on="1"/>
        <pt x="303" y="279" on="1"/>
        <pt x="135" y="279" on="1"/>
        <pt x="134" y="270" on="0"/>
        <pt x="134" y="251" on="0"/>
        <pt x="134" y="241" on="1"/>
        <pt x="134" y="234" on="0"/>
        <pt x="134" y="221" on="0"/>
        <pt x="135" y="215" on="1"/>
        <pt x="301" y="215" on="1"/>
        <pt x="301" y="178" on="1"/>
        <pt x="138" y="178" on="1"/>
        <pt x="146" y="106" on="0"/>
        <pt x="210" y="27" on="0"/>
        <pt x="264" y="27" on="1"/>
        <pt x="289" y="27" on="0"/>
        <pt x="326" y="40" on="0"/>
        <pt x="336" y="48" on="1"/>
        <pt x="343" y="53" on="0"/>
        <pt x="353" y="67" on="0"/>
        <pt x="355" y="74" on="1"/>
        <pt x="376" y="142" on="1"/>
        <pt x="411" y="139" on="1"/>
        <pt x="412" y="109" on="0"/>
        <pt x="408" y="47" on="0"/>
      </contour>
    </TTGlyph>
    <TTGlyph name="F" xMin="42" yMin="0" xMax="436" yMax="568">
      <contour>
        <pt x="366" y="260" on="1"/>
        <pt x="182" y="265" on="1"/>
        <pt x="182" y="65" on="1"/>
        <pt x="182" y="57" on="0"/>
        <pt x="193" y="45" on="0"/>
        <pt x="201" y="44" on="1"/>
        <pt x="293" y="32" on="1"/>
        <pt x="293" y="0" on="1"/>
        <pt x="42" y="0" on="1"/>
        <pt x="42" y="32" on="1"/>
        <pt x="101" y="43" on="1"/>
        <pt x="111" y="44" on="0"/>
        <pt x="120" y="56" on="0"/>
        <pt x="120" y="66" on="1"/>
        <pt x="120" y="501" on="1"/>
        <pt x="120" y="510" on="0"/>
        <pt x="110" y="523" on="0"/>
        <pt x="101" y="524" on="1"/>
        <pt x="42" y="536" on="1"/>
        <pt x="42" y="568" on="1"/>
        <pt x="435" y="568" on="1"/>
        <pt x="436" y="535" on="0"/>
        <pt x="436" y="470" on="0"/>
        <pt x="433" y="433" on="1"/>
        <pt x="400" y="433" on="1"/>
        <pt x="385" y="503" on="1"/>
        <pt x="383" y="510" on="0"/>
        <pt x="373" y="520" on="0"/>
        <pt x="364" y="524" on="1"/>
        <pt x="351" y="528" on="0"/>
        <pt x="308" y="532" on="0"/>
        <pt x="283" y="532" on="1"/>
        <pt x="182" y="532" on="1"/>
        <pt x="182" y="304" on="1"/>
        <pt x="366" y="310" on="1"/>
      </contour>
    </TTGlyph>
    <TTGlyph name="G" xMin="48" yMin="-8" xMax="544" yMax="576">
      <contour>
        <pt x="481" y="-3" on="1"/>
        <pt x="442" y="43" on="1"/>
        <pt x="414" y="18" on="0"/>
        <pt x="342" y="-8" on="0"/>
        <pt x="296" y="-8" on="1"/>
        <pt x="174" y="-8" on="0"/>
        <pt x="48" y="152" on="0"/>
        <pt x="48" y="277" on="1"/>
        <pt x="48" y="425" on="0"/>
        <pt x="207" y="576" on="0"/>
        <pt x="329" y="576" on="1"/>
        <pt x="372" y="576" on="0"/>
        <pt x="457" y="560" on="0"/>
        <pt x="494" y="540" on="1"/>
        <pt x="495" y="509" on="0"/>
        <pt x="490" y="451" on="0"/>
        <pt x="486" y="420" on="1"/>
        <pt x="450" y="420" on="1"/>
        <pt x="434" y="490" on="1"/>
        <pt x="432" y="500" on="0"/>
        <pt x="424" y="514" on="0"/>
        <pt x="415" y="518" on="1"/>
        <pt x="399" y="528" on="0"/>
        <pt x="345" y="541" on="0"/>
        <pt x="312" y="541" on="1"/>
        <pt x="229" y="541" on="0"/>
        <pt x="118" y="417" on="0"/>
        <pt x="118" y="289" on="1"/>
        <pt x="118" y="185" on="0"/>
        <pt x="210" y="37" on="0"/>
        <pt x="315" y="37" on="1"/>
        <pt x="348" y="37" on="0"/>
        <pt x="410" y="55" on="0"/>
        <pt x="435" y="77" on="1"/>
        <pt x="435" y="239" on="1"/>
        <pt x="325" y="246" on="1"/>
        <pt x="325" y="285" on="1"/>
        <pt x="544" y="285" on="1"/>
        <pt x="544" y="246" on="1"/>
        <pt x="498" y="239" on="1"/>
        <pt x="498" y="4" on="1"/>
      </contour>
    </TTGlyph>
    <TTGlyph name="Gbreve" xMin="48" yMin="-8" xMax="544" yMax="730">
      <component glyphName="G" x="0" y="0" flags="0x204"/>
      <component glyphName="uni0306.case" x="307" y="0" flags="0x4"/>
    </TTGlyph>
    <TTGlyph name="Gcircumflex" xMin="48" yMin="-8" xMax="544" yMax="743">
      <component glyphName="G" x="0" y="0" flags="0x204"/>
      <component glyphName="uni0302.case" x="307" y="0" flags="0x4"/>
    </TTGlyph>
    <TTGlyph name="Gcommaaccent" xMin="48" yMin="-207" xMax="544" yMax="576">
      <component glyphName="G" x="0" y="0" flags="0x204"/>
      <component glyphName="uni0326" x="294" y="0" flags="0x4"/>
    </TTGlyph>
    <TTGlyph name="Gdotaccent" xMin="48" yMin="-8" xMax="544" yMax="718">
      <component glyphName="G" x="0" y="0" flags="0x204"/>
      <component glyphName="uni0307.case" x="307" y="0" flags="0x4"/>
    </TTGlyph>
    <TTGlyph name="H" xMin="42" yMin="0" xMax="613" yMax="568">
      <contour>
        <pt x="613" y="568" on="1"/>
        <pt x="613" y="536" on="1"/>
        <pt x="555" y="524" on="1"/>
        <pt x="545" y="523" on="0"/>
        <pt x="535" y="510" on="0"/>
        <pt x="535" y="500" on="1"/>
        <pt x="535" y="67" on="1"/>
        <pt x="535" y="57" on="0"/>
        <pt x="545" y="44" on="0"/>
        <pt x="555" y="43" on="1"/>
        <pt x="613" y="32" on="1"/>
        <pt x="613" y="0" on="1"/>
        <pt x="400" y="0" on="1"/>
        <pt x="400" y="32" on="1"/>
        <pt x="453" y="43" on="1"/>
        <pt x="463" y="44" on="0"/>
        <pt x="473" y="57" on="0"/>
        <pt x="473" y="67" on="1"/>
        <pt x="473" y="272" on="1"/>
        <pt x="182" y="272" on="1"/>
        <pt x="182" y="66" on="1"/>
        <pt x="182" y="56" on="0"/>
        <pt x="192" y="44" on="0"/>
        <pt x="202" y="43" on="1"/>
        <pt x="258" y="32" on="1"/>
        <pt x="258" y="0" on="1"/>
        <pt x="42" y="0" on="1"/>
        <pt x="42" y="32" on="1"/>
        <pt x="101" y="43" on="1"/>
        <pt x="111" y="44" on="0"/>
        <pt x="120" y="57" on="0"/>
        <pt x="120" y="67" on="1"/>
        <pt x="120" y="500" on="1"/>
        <pt x="120" y="510" on="0"/>
        <pt x="110" y="523" on="0"/>
        <pt x="101" y="524" on="1"/>
        <pt x="42" y="536" on="1"/>
        <pt x="42" y="568" on="1"/>
        <pt x="258" y="568" on="1"/>
        <pt x="258" y="536" on="1"/>
        <pt x="201" y="524" on="1"/>
        <pt x="192" y="523" on="0"/>
        <pt x="182" y="511" on="0"/>
        <pt x="182" y="501" on="1"/>
        <pt x="182" y="311" on="1"/>
        <pt x="473" y="311" on="1"/>
        <pt x="473" y="501" on="1"/>
        <pt x="473" y="511" on="0"/>
        <pt x="464" y="522" on="0"/>
        <pt x="454" y="524" on="1"/>
        <pt x="400" y="536" on="1"/>
        <pt x="400" y="568" on="1"/>
      </contour>
    </TTGlyph>
    <TTGlyph name="Hbar" xMin="43" yMin="0" xMax="613" yMax="568">
      <contour>
        <pt x="183" y="293" on="1"/>
        <pt x="473" y="293" on="1"/>
        <pt x="473" y="384" on="1"/>
        <pt x="183" y="384" on="1"/>
      </contour>
      <contour>
        <pt x="259" y="32" on="1"/>
        <pt x="259" y="0" on="1"/>
        <pt x="43" y="0" on="1"/>
        <pt x="43" y="32" on="1"/>
        <pt x="101" y="43" on="1"/>
        <pt x="111" y="44" on="0"/>
        <pt x="121" y="57" on="0"/>
        <pt x="121" y="67" on="1"/>
        <pt x="121" y="384" on="1"/>
        <pt x="46" y="384" on="1"/>
        <pt x="46" y="420" on="1"/>
        <pt x="121" y="420" on="1"/>
        <pt x="121" y="500" on="1"/>
        <pt x="121" y="510" on="0"/>
        <pt x="111" y="523" on="0"/>
        <pt x="101" y="524" on="1"/>
        <pt x="43" y="536" on="1"/>
        <pt x="43" y="568" on="1"/>
        <pt x="258" y="568" on="1"/>
        <pt x="258" y="536" on="1"/>
        <pt x="202" y="524" on="1"/>
        <pt x="192" y="523" on="0"/>
        <pt x="183" y="511" on="0"/>
        <pt x="183" y="501" on="1"/>
        <pt x="183" y="420" on="1"/>
        <pt x="473" y="420" on="1"/>
        <pt x="473" y="501" on="1"/>
        <pt x="473" y="511" on="0"/>
        <pt x="464" y="522" on="0"/>
        <pt x="454" y="524" on="1"/>
        <pt x="401" y="536" on="1"/>
        <pt x="401" y="568" on="1"/>
        <pt x="613" y="568" on="1"/>
        <pt x="613" y="536" on="1"/>
        <pt x="555" y="524" on="1"/>
        <pt x="545" y="523" on="0"/>
        <pt x="535" y="510" on="0"/>
        <pt x="535" y="500" on="1"/>
        <pt x="535" y="420" on="1"/>
        <pt x="610" y="420" on="1"/>
        <pt x="610" y="384" on="1"/>
        <pt x="535" y="384" on="1"/>
        <pt x="535" y="67" on="1"/>
        <pt x="535" y="57" on="0"/>
        <pt x="545" y="44" on="0"/>
        <pt x="555" y="43" on="1"/>
        <pt x="613" y="32" on="1"/>
        <pt x="613" y="0" on="1"/>
        <pt x="400" y="0" on="1"/>
        <pt x="400" y="32" on="1"/>
        <pt x="454" y="43" on="1"/>
        <pt x="464" y="44" on="0"/>
        <pt x="473" y="57" on="0"/>
        <pt x="473" y="67" on="1"/>
        <pt x="473" y="254" on="1"/>
        <pt x="183" y="254" on="1"/>
        <pt x="183" y="66" on="1"/>
        <pt x="183" y="56" on="0"/>
        <pt x="192" y="44" on="0"/>
        <pt x="202" y="43" on="1"/>
      </contour>
    </TTGlyph>
    <TTGlyph name="Hcircumflex" xMin="42" yMin="0" xMax="613" yMax="743">
      <component glyphName="H" x="0" y="0" flags="0x204"/>
      <component glyphName="uni0302.case" x="329" y="0" flags="0x4"/>
    </TTGlyph>
    <TTGlyph name="I" xMin="42" yMin="0" xMax="260" yMax="568">
      <contour>
        <pt x="260" y="568" on="1"/>
        <pt x="260" y="536" on="1"/>
        <pt x="202" y="524" on="1"/>
        <pt x="192" y="523" on="0"/>
        <pt x="182" y="511" on="0"/>
        <pt x="182" y="501" on="1"/>
        <pt x="182" y="66" on="1"/>
        <pt x="182" y="56" on="0"/>
        <pt x="192" y="44" on="0"/>
        <pt x="202" y="43" on="1"/>
        <pt x="260" y="32" on="1"/>
        <pt x="260" y="0" on="1"/>
        <pt x="42" y="0" on="1"/>
        <pt x="42" y="32" on="1"/>
        <pt x="101" y="43" on="1"/>
        <pt x="111" y="44" on="0"/>
        <pt x="120" y="56" on="0"/>
        <pt x="120" y="66" on="1"/>
        <pt x="120" y="501" on="1"/>
        <pt x="120" y="510" on="0"/>
        <pt x="110" y="523" on="0"/>
        <pt x="101" y="524" on="1"/>
        <pt x="42" y="536" on="1"/>
        <pt x="42" y="568" on="1"/>
      </contour>
    </TTGlyph>
    <TTGlyph name="IJ" xMin="42" yMin="-132" xMax="533" yMax="568">
      <component glyphName="I" x="0" y="0" flags="0x204"/>
      <component glyphName="J" x="288" y="0" flags="0x4"/>
    </TTGlyph>
    <TTGlyph name="Iacute" xMin="42" yMin="0" xMax="284" yMax="747">
      <component glyphName="I" x="0" y="0" flags="0x204"/>
      <component glyphName="acutecomb.case" x="151" y="0" flags="0x4"/>
    </TTGlyph>
    <TTGlyph name="Iacute_J.NLD" xMin="42" yMin="-132" xMax="575" yMax="747">
      <component glyphName="I" x="0" y="0" flags="0x204"/>
      <component glyphName="acutecomb.case" x="151" y="0" flags="0x4"/>
      <component glyphName="J" x="303" y="0" flags="0x4"/>
      <component glyphName="acutecomb.case" x="442" y="0" flags="0x4"/>
    </TTGlyph>
    <TTGlyph name="Ibreve" xMin="19" yMin="0" xMax="283" yMax="730">
      <component glyphName="I" x="0" y="0" flags="0x204"/>
      <component glyphName="uni0306.case" x="151" y="0" flags="0x4"/>
    </TTGlyph>
    <TTGlyph name="Icircumflex" xMin="16" yMin="0" xMax="285" yMax="743">
      <component glyphName="I" x="0" y="0" flags="0x204"/>
      <component glyphName="uni0302.case" x="151" y="0" flags="0x4"/>
    </TTGlyph>
    <TTGlyph name="Idieresis" xMin="23" yMin="0" xMax="279" yMax="708">
      <component glyphName="I" x="0" y="0" flags="0x204"/>
      <component glyphName="uni0308.case" x="151" y="0" flags="0x4"/>
    </TTGlyph>
    <TTGlyph name="Idotaccent" xMin="42" yMin="0" xMax="260" yMax="718">
      <component glyphName="I" x="0" y="0" flags="0x204"/>
      <component glyphName="uni0307.case" x="151" y="0" flags="0x4"/>
    </TTGlyph>
    <TTGlyph name="Igrave" xMin="24" yMin="0" xMax="260" yMax="751">
      <component glyphName="I" x="0" y="0" flags="0x204"/>
      <component glyphName="gravecomb.case" x="151" y="0" flags="0x4"/>
    </TTGlyph>
    <TTGlyph name="Imacron" xMin="34" yMin="0" xMax="268" yMax="686">
      <component glyphName="I" x="0" y="0" flags="0x204"/>
      <component glyphName="uni0304.case" x="151" y="0" flags="0x4"/>
    </TTGlyph>
    <TTGlyph name="Iogonek" xMin="42" yMin="-187" xMax="260" yMax="568">
      <contour>
        <pt x="235" y="-160" on="1"/>
        <pt x="218" y="-172" on="0"/>
        <pt x="169" y="-187" on="0"/>
        <pt x="145" y="-187" on="1"/>
        <pt x="110" y="-187" on="0"/>
        <pt x="58" y="-154" on="0"/>
        <pt x="58" y="-119" on="1"/>
        <pt x="58" y="-81" on="0"/>
        <pt x="117" y="-19" on="0"/>
        <pt x="154" y="-2" on="1"/>
        <pt x="154" y="0" on="1"/>
        <pt x="42" y="0" on="1"/>
        <pt x="42" y="32" on="1"/>
        <pt x="101" y="43" on="1"/>
        <pt x="111" y="44" on="0"/>
        <pt x="120" y="56" on="0"/>
        <pt x="120" y="66" on="1"/>
        <pt x="120" y="501" on="1"/>
        <pt x="120" y="510" on="0"/>
        <pt x="110" y="523" on="0"/>
        <pt x="101" y="524" on="1"/>
        <pt x="42" y="536" on="1"/>
        <pt x="42" y="568" on="1"/>
        <pt x="260" y="568" on="1"/>
        <pt x="260" y="536" on="1"/>
        <pt x="202" y="524" on="1"/>
        <pt x="192" y="523" on="0"/>
        <pt x="182" y="511" on="0"/>
        <pt x="182" y="501" on="1"/>
        <pt x="182" y="66" on="1"/>
        <pt x="182" y="56" on="0"/>
        <pt x="192" y="44" on="0"/>
        <pt x="202" y="43" on="1"/>
        <pt x="260" y="32" on="1"/>
        <pt x="260" y="0" on="1"/>
        <pt x="210" y="0" on="1"/>
        <pt x="170" y="-16" on="0"/>
        <pt x="116" y="-71" on="0"/>
        <pt x="116" y="-101" on="1"/>
        <pt x="116" y="-123" on="0"/>
        <pt x="147" y="-145" on="0"/>
        <pt x="169" y="-145" on="1"/>
        <pt x="181" y="-145" on="0"/>
        <pt x="210" y="-139" on="0"/>
        <pt x="223" y="-133" on="1"/>
      </contour>
    </TTGlyph>
    <TTGlyph name="Itilde" xMin="0" yMin="0" xMax="302" yMax="719">
      <component glyphName="I" x="0" y="0" flags="0x204"/>
      <component glyphName="tildecomb.case" x="151" y="0" flags="0x4"/>
    </TTGlyph>
    <TTGlyph name="J" xMin="1" yMin="-132" xMax="245" yMax="568">
      <contour>
        <pt x="194" y="524" on="1"/>
        <pt x="184" y="522" on="0"/>
        <pt x="174" y="511" on="0"/>
        <pt x="174" y="501" on="1"/>
        <pt x="174" y="163" on="1"/>
        <pt x="174" y="100" on="0"/>
        <pt x="165" y="12" on="0"/>
        <pt x="134" y="-53" on="0"/>
        <pt x="72" y="-105" on="0"/>
        <pt x="19" y="-132" on="1"/>
        <pt x="1" y="-102" on="1"/>
        <pt x="35" y="-76" on="0"/>
        <pt x="78" y="-29" on="0"/>
        <pt x="103" y="26" on="0"/>
        <pt x="112" y="98" on="0"/>
        <pt x="112" y="149" on="1"/>
        <pt x="112" y="501" on="1"/>
        <pt x="112" y="510" on="0"/>
        <pt x="102" y="523" on="0"/>
        <pt x="93" y="524" on="1"/>
        <pt x="34" y="536" on="1"/>
        <pt x="34" y="568" on="1"/>
        <pt x="245" y="568" on="1"/>
        <pt x="245" y="536" on="1"/>
      </contour>
    </TTGlyph>
    <TTGlyph name="Jacute" xMin="1" yMin="-132" xMax="273" yMax="747">
      <component glyphName="J" x="0" y="0" flags="0x204"/>
      <component glyphName="acutecomb.case" x="140" y="0" flags="0x4"/>
    </TTGlyph>
    <TTGlyph name="Jcircumflex" xMin="1" yMin="-132" xMax="274" yMax="743">
      <component glyphName="J" x="0" y="0" flags="0x204"/>
      <component glyphName="uni0302.case" x="140" y="0" flags="0x4"/>
    </TTGlyph>
    <TTGlyph name="K" xMin="42" yMin="0" xMax="561" yMax="568">
      <contour>
        <pt x="266" y="32" on="1"/>
        <pt x="266" y="0" on="1"/>
        <pt x="42" y="0" on="1"/>
        <pt x="42" y="32" on="1"/>
        <pt x="100" y="43" on="1"/>
        <pt x="110" y="44" on="0"/>
        <pt x="120" y="56" on="0"/>
        <pt x="120" y="66" on="1"/>
        <pt x="120" y="501" on="1"/>
        <pt x="120" y="511" on="0"/>
        <pt x="110" y="523" on="0"/>
        <pt x="100" y="524" on="1"/>
        <pt x="42" y="536" on="1"/>
        <pt x="42" y="568" on="1"/>
        <pt x="260" y="568" on="1"/>
        <pt x="260" y="536" on="1"/>
        <pt x="202" y="524" on="1"/>
        <pt x="192" y="523" on="0"/>
        <pt x="182" y="511" on="0"/>
        <pt x="182" y="501" on="1"/>
        <pt x="182" y="251" on="1"/>
        <pt x="422" y="522" on="1"/>
        <pt x="356" y="536" on="1"/>
        <pt x="356" y="568" on="1"/>
        <pt x="544" y="568" on="1"/>
        <pt x="544" y="536" on="1"/>
        <pt x="495" y="524" on="1"/>
        <pt x="487" y="523" on="0"/>
        <pt x="475" y="517" on="0"/>
        <pt x="469" y="511" on="1"/>
        <pt x="308" y="335" on="1"/>
        <pt x="325" y="315" on="0"/>
        <pt x="361" y="261" on="0"/>
        <pt x="386" y="222" on="1"/>
        <pt x="481" y="72" on="1"/>
        <pt x="491" y="56" on="0"/>
        <pt x="506" y="45" on="0"/>
        <pt x="519" y="42" on="1"/>
        <pt x="561" y="32" on="1"/>
        <pt x="561" y="0" on="1"/>
        <pt x="460" y="0" on="1"/>
        <pt x="449" y="0" on="0"/>
        <pt x="415" y="44" on="0"/>
        <pt x="392" y="83" on="1"/>
        <pt x="324" y="200" on="1"/>
        <pt x="308" y="226" on="0"/>
        <pt x="280" y="271" on="0"/>
        <pt x="267" y="290" on="1"/>
        <pt x="182" y="197" on="1"/>
        <pt x="182" y="66" on="1"/>
        <pt x="182" y="56" on="0"/>
        <pt x="193" y="45" on="0"/>
        <pt x="203" y="43" on="1"/>
      </contour>
    </TTGlyph>
    <TTGlyph name="Kcommaaccent" xMin="42" yMin="-207" xMax="561" yMax="568">
      <component glyphName="K" x="0" y="0" flags="0x204"/>
      <component glyphName="uni0326" x="317" y="0" flags="0x4"/>
    </TTGlyph>
    <TTGlyph name="L" xMin="42" yMin="0" xMax="467" yMax="568">
      <contour>
        <pt x="405" y="69" on="1"/>
        <pt x="435" y="161" on="1"/>
        <pt x="467" y="157" on="1"/>
        <pt x="466" y="120" on="0"/>
        <pt x="458" y="36" on="0"/>
        <pt x="451" y="0" on="1"/>
        <pt x="42" y="0" on="1"/>
        <pt x="42" y="32" on="1"/>
        <pt x="101" y="42" on="1"/>
        <pt x="111" y="43" on="0"/>
        <pt x="120" y="55" on="0"/>
        <pt x="120" y="65" on="1"/>
        <pt x="120" y="501" on="1"/>
        <pt x="120" y="511" on="0"/>
        <pt x="111" y="523" on="0"/>
        <pt x="101" y="525" on="1"/>
        <pt x="42" y="536" on="1"/>
        <pt x="42" y="568" on="1"/>
        <pt x="278" y="568" on="1"/>
        <pt x="278" y="536" on="1"/>
        <pt x="202" y="524" on="1"/>
        <pt x="192" y="523" on="0"/>
        <pt x="182" y="511" on="0"/>
        <pt x="182" y="501" on="1"/>
        <pt x="182" y="39" on="1"/>
        <pt x="299" y="39" on="1"/>
        <pt x="326" y="39" on="0"/>
        <pt x="370" y="43" on="0"/>
        <pt x="384" y="48" on="1"/>
        <pt x="392" y="51" on="0"/>
        <pt x="402" y="61" on="0"/>
      </contour>
    </TTGlyph>
    <TTGlyph name="Lacute" xMin="42" yMin="0" xMax="467" yMax="747">
      <component glyphName="L" x="0" y="0" flags="0x204"/>
      <component glyphName="acutecomb.case" x="176" y="0" flags="0x4"/>
    </TTGlyph>
    <TTGlyph name="Lcaron" xMin="42" yMin="0" xMax="467" yMax="603">
      <component glyphName="L" x="0" y="0" flags="0x204"/>
      <component glyphName="uni030C.calt" x="264" y="-80" flags="0x4"/>
    </TTGlyph>
    <TTGlyph name="Lcommaaccent" xMin="42" yMin="-207" xMax="467" yMax="568">
      <component glyphName="L" x="0" y="0" flags="0x204"/>
      <component glyphName="uni0326" x="270" y="0" flags="0x4"/>
    </TTGlyph>
    <TTGlyph name="Ldot" xMin="42" yMin="0" xMax="467" yMax="568">
      <component glyphName="L" x="0" y="0" flags="0x204"/>
      <component glyphName="periodcentered" x="275" y="64" flags="0x4"/>
    </TTGlyph>
    <TTGlyph name="Lslash" xMin="41" yMin="0" xMax="468" yMax="568">
      <contour>
        <pt x="452" y="0" on="1"/>
        <pt x="43" y="0" on="1"/>
        <pt x="43" y="32" on="1"/>
        <pt x="102" y="42" on="1"/>
        <pt x="112" y="43" on="0"/>
        <pt x="121" y="55" on="0"/>
        <pt x="121" y="65" on="1"/>
        <pt x="121" y="234" on="1"/>
        <pt x="41" y="200" on="1"/>
        <pt x="41" y="245" on="1"/>
        <pt x="121" y="277" on="1"/>
        <pt x="121" y="501" on="1"/>
        <pt x="121" y="511" on="0"/>
        <pt x="112" y="523" on="0"/>
        <pt x="102" y="525" on="1"/>
        <pt x="43" y="536" on="1"/>
        <pt x="43" y="568" on="1"/>
        <pt x="279" y="568" on="1"/>
        <pt x="279" y="536" on="1"/>
        <pt x="203" y="524" on="1"/>
        <pt x="193" y="523" on="0"/>
        <pt x="183" y="511" on="0"/>
        <pt x="183" y="501" on="1"/>
        <pt x="183" y="300" on="1"/>
        <pt x="349" y="375" on="1"/>
        <pt x="349" y="327" on="1"/>
        <pt x="183" y="256" on="1"/>
        <pt x="183" y="39" on="1"/>
        <pt x="300" y="39" on="1"/>
        <pt x="327" y="39" on="0"/>
        <pt x="372" y="43" on="0"/>
        <pt x="385" y="48" on="1"/>
        <pt x="393" y="51" on="0"/>
        <pt x="404" y="61" on="0"/>
        <pt x="406" y="69" on="1"/>
        <pt x="436" y="161" on="1"/>
        <pt x="468" y="157" on="1"/>
        <pt x="467" y="120" on="0"/>
        <pt x="459" y="36" on="0"/>
      </contour>
    </TTGlyph>
    <TTGlyph name="M" xMin="25" yMin="0" xMax="762" yMax="568">
      <contour>
        <pt x="220" y="32" on="1"/>
        <pt x="220" y="0" on="1"/>
        <pt x="25" y="0" on="1"/>
        <pt x="25" y="32" on="1"/>
        <pt x="80" y="42" on="1"/>
        <pt x="89" y="43" on="0"/>
        <pt x="99" y="55" on="0"/>
        <pt x="100" y="65" on="1"/>
        <pt x="153" y="500" on="1"/>
        <pt x="154" y="510" on="0"/>
        <pt x="145" y="523" on="0"/>
        <pt x="135" y="524" on="1"/>
        <pt x="68" y="536" on="1"/>
        <pt x="68" y="568" on="1"/>
        <pt x="243" y="568" on="1"/>
        <pt x="394" y="127" on="1"/>
        <pt x="525" y="568" on="1"/>
        <pt x="701" y="568" on="1"/>
        <pt x="701" y="536" on="1"/>
        <pt x="634" y="524" on="1"/>
        <pt x="624" y="523" on="0"/>
        <pt x="615" y="509" on="0"/>
        <pt x="616" y="499" on="1"/>
        <pt x="687" y="64" on="1"/>
        <pt x="688" y="55" on="0"/>
        <pt x="699" y="43" on="0"/>
        <pt x="708" y="42" on="1"/>
        <pt x="762" y="32" on="1"/>
        <pt x="762" y="0" on="1"/>
        <pt x="558" y="0" on="1"/>
        <pt x="558" y="32" on="1"/>
        <pt x="627" y="44" on="1"/>
        <pt x="552" y="500" on="1"/>
        <pt x="408" y="25" on="1"/>
        <pt x="368" y="25" on="1"/>
        <pt x="200" y="502" on="1"/>
        <pt x="147" y="44" on="1"/>
      </contour>
    </TTGlyph>
    <TTGlyph name="N" xMin="42" yMin="0" xMax="605" yMax="568">
      <contour>
        <pt x="251" y="32" on="1"/>
        <pt x="251" y="0" on="1"/>
        <pt x="42" y="0" on="1"/>
        <pt x="42" y="32" on="1"/>
        <pt x="101" y="43" on="1"/>
        <pt x="111" y="44" on="0"/>
        <pt x="120" y="56" on="0"/>
        <pt x="120" y="66" on="1"/>
        <pt x="120" y="501" on="1"/>
        <pt x="120" y="510" on="0"/>
        <pt x="110" y="523" on="0"/>
        <pt x="101" y="524" on="1"/>
        <pt x="42" y="536" on="1"/>
        <pt x="42" y="568" on="1"/>
        <pt x="181" y="568" on="1"/>
        <pt x="489" y="106" on="1"/>
        <pt x="489" y="501" on="1"/>
        <pt x="489" y="510" on="0"/>
        <pt x="479" y="523" on="0"/>
        <pt x="469" y="524" on="1"/>
        <pt x="407" y="536" on="1"/>
        <pt x="407" y="568" on="1"/>
        <pt x="605" y="568" on="1"/>
        <pt x="605" y="536" on="1"/>
        <pt x="553" y="524" on="1"/>
        <pt x="544" y="522" on="0"/>
        <pt x="534" y="511" on="0"/>
        <pt x="534" y="501" on="1"/>
        <pt x="534" y="0" on="1"/>
        <pt x="485" y="0" on="1"/>
        <pt x="165" y="479" on="1"/>
        <pt x="165" y="66" on="1"/>
        <pt x="165" y="56" on="0"/>
        <pt x="175" y="44" on="0"/>
        <pt x="185" y="43" on="1"/>
      </contour>
    </TTGlyph>
    <TTGlyph name="Nacute" xMin="42" yMin="0" xMax="605" yMax="747">
      <component glyphName="N" x="0" y="0" flags="0x204"/>
      <component glyphName="acutecomb.case" x="316" y="0" flags="0x4"/>
    </TTGlyph>
    <TTGlyph name="Ncaron" xMin="42" yMin="0" xMax="605" yMax="746">
      <component glyphName="N" x="0" y="0" flags="0x204"/>
      <component glyphName="uni030C.case" x="316" y="0" flags="0x4"/>
    </TTGlyph>
    <TTGlyph name="Ncommaaccent" xMin="42" yMin="-207" xMax="605" yMax="568">
      <component glyphName="N" x="0" y="0" flags="0x204"/>
      <component glyphName="uni0326" x="337" y="0" flags="0x4"/>
    </TTGlyph>
    <TTGlyph name="Ntilde" xMin="42" yMin="0" xMax="605" yMax="719">
      <component glyphName="N" x="0" y="0" flags="0x204"/>
      <component glyphName="tildecomb.case" x="316" y="0" flags="0x4"/>
    </TTGlyph>
    <TTGlyph name="O" xMin="49" yMin="-8" xMax="534" yMax="576">
      <contour>
        <pt x="282" y="-8" on="1"/>
        <pt x="169" y="-8" on="0"/>
        <pt x="49" y="144" on="0"/>
        <pt x="49" y="275" on="1"/>
        <pt x="49" y="421" on="0"/>
        <pt x="191" y="576" on="0"/>
        <pt x="301" y="576" on="1"/>
        <pt x="415" y="576" on="0"/>
        <pt x="534" y="424" on="0"/>
        <pt x="534" y="293" on="1"/>
        <pt x="534" y="150" on="0"/>
        <pt x="394" y="-8" on="0"/>
      </contour>
      <contour>
        <pt x="292" y="538" on="1"/>
        <pt x="211" y="538" on="0"/>
        <pt x="118" y="410" on="0"/>
        <pt x="118" y="284" on="1"/>
        <pt x="118" y="163" on="0"/>
        <pt x="204" y="31" on="0"/>
        <pt x="290" y="31" on="1"/>
        <pt x="371" y="31" on="0"/>
        <pt x="464" y="159" on="0"/>
        <pt x="464" y="285" on="1"/>
        <pt x="464" y="406" on="0"/>
        <pt x="379" y="538" on="0"/>
      </contour>
    </TTGlyph>
    <TTGlyph name="OE" xMin="49" yMin="-8" xMax="733" yMax="573">
      <contour>
        <pt x="300" y="27" on="1"/>
        <pt x="323" y="27" on="0"/>
        <pt x="367" y="37" on="0"/>
        <pt x="386" y="48" on="1"/>
        <pt x="386" y="519" on="1"/>
        <pt x="366" y="530" on="0"/>
        <pt x="323" y="539" on="0"/>
        <pt x="301" y="539" on="1"/>
        <pt x="213" y="539" on="0"/>
        <pt x="117" y="410" on="0"/>
        <pt x="117" y="284" on="1"/>
        <pt x="117" y="162" on="0"/>
        <pt x="210" y="27" on="0"/>
      </contour>
      <contour>
        <pt x="386" y="0" on="1"/>
        <pt x="386" y="1" on="1"/>
        <pt x="363" y="-3" on="0"/>
        <pt x="315" y="-8" on="0"/>
        <pt x="293" y="-8" on="1"/>
        <pt x="176" y="-8" on="0"/>
        <pt x="49" y="133" on="0"/>
        <pt x="49" y="272" on="1"/>
        <pt x="49" y="423" on="0"/>
        <pt x="193" y="573" on="0"/>
        <pt x="309" y="573" on="1"/>
        <pt x="326" y="573" on="0"/>
        <pt x="366" y="570" on="0"/>
        <pt x="386" y="567" on="1"/>
        <pt x="386" y="568" on="1"/>
        <pt x="699" y="568" on="1"/>
        <pt x="701" y="535" on="0"/>
        <pt x="700" y="470" on="0"/>
        <pt x="697" y="433" on="1"/>
        <pt x="665" y="433" on="1"/>
        <pt x="649" y="503" on="1"/>
        <pt x="648" y="511" on="0"/>
        <pt x="636" y="521" on="0"/>
        <pt x="628" y="524" on="1"/>
        <pt x="615" y="528" on="0"/>
        <pt x="572" y="532" on="0"/>
        <pt x="547" y="532" on="1"/>
        <pt x="447" y="532" on="1"/>
        <pt x="447" y="311" on="1"/>
        <pt x="631" y="317" on="1"/>
        <pt x="631" y="268" on="1"/>
        <pt x="447" y="272" on="1"/>
        <pt x="447" y="39" on="1"/>
        <pt x="570" y="39" on="1"/>
        <pt x="595" y="39" on="0"/>
        <pt x="642" y="43" on="0"/>
        <pt x="655" y="48" on="1"/>
        <pt x="663" y="51" on="0"/>
        <pt x="673" y="62" on="0"/>
        <pt x="675" y="69" on="1"/>
        <pt x="701" y="144" on="1"/>
        <pt x="733" y="140" on="1"/>
        <pt x="732" y="107" on="0"/>
        <pt x="724" y="35" on="0"/>
        <pt x="717" y="0" on="1"/>
      </contour>
    </TTGlyph>
    <TTGlyph name="Oacute" xMin="49" yMin="-8" xMax="534" yMax="747">
      <component glyphName="O" x="0" y="0" flags="0x204"/>
      <component glyphName="acutecomb.case" x="292" y="0" flags="0x4"/>
    </TTGlyph>
    <TTGlyph name="Obreve" xMin="49" yMin="-8" xMax="534" yMax="730">
      <component glyphName="O" x="0" y="0" flags="0x204"/>
      <component glyphName="uni0306.case" x="292" y="0" flags="0x4"/>
    </TTGlyph>
    <TTGlyph name="Ocircumflex" xMin="49" yMin="-8" xMax="534" yMax="743">
      <component glyphName="O" x="0" y="0" flags="0x204"/>
      <component glyphName="uni0302.case" x="292" y="0" flags="0x4"/>
    </TTGlyph>
    <TTGlyph name="Odieresis" xMin="49" yMin="-8" xMax="534" yMax="708">
      <component glyphName="O" x="0" y="0" flags="0x204"/>
      <component glyphName="uni0308.case" x="292" y="0" flags="0x4"/>
    </TTGlyph>
    <TTGlyph name="Ograve" xMin="49" yMin="-8" xMax="534" yMax="751">
      <component glyphName="O" x="0" y="0" flags="0x204"/>
      <component glyphName="gravecomb.case" x="292" y="0" flags="0x4"/>
    </TTGlyph>
    <TTGlyph name="Ohungarumlaut" xMin="49" yMin="-8" xMax="534" yMax="755">
      <component glyphName="O" x="0" y="0" flags="0x204"/>
      <component glyphName="uni030B.case" x="292" y="0" flags="0x4"/>
    </TTGlyph>
    <TTGlyph name="Omacron" xMin="49" yMin="-8" xMax="534" yMax="686">
      <component glyphName="O" x="0" y="0" flags="0x204"/>
      <component glyphName="uni0304.case" x="292" y="0" flags="0x4"/>
    </TTGlyph>
    <TTGlyph name="Oslash" xMin="49" yMin="-62" xMax="534" yMax="615">
      <contour>
        <pt x="116" y="284" on="1"/>
        <pt x="116" y="217" on="0"/>
        <pt x="142" y="115" on="0"/>
        <pt x="168" y="82" on="1"/>
        <pt x="386" y="513" on="1"/>
        <pt x="367" y="526" on="0"/>
        <pt x="320" y="540" on="0"/>
        <pt x="292" y="540" on="1"/>
        <pt x="209" y="540" on="0"/>
        <pt x="116" y="412" on="0"/>
      </contour>
      <contour>
        <pt x="291" y="28" on="1"/>
        <pt x="373" y="28" on="0"/>
        <pt x="467" y="157" on="0"/>
        <pt x="467" y="285" on="1"/>
        <pt x="467" y="352" on="0"/>
        <pt x="441" y="454" on="0"/>
        <pt x="415" y="486" on="1"/>
        <pt x="196" y="56" on="1"/>
        <pt x="215" y="42" on="0"/>
        <pt x="263" y="28" on="0"/>
      </contour>
      <contour>
        <pt x="282" y="-8" on="1"/>
        <pt x="252" y="-8" on="0"/>
        <pt x="198" y="4" on="0"/>
        <pt x="176" y="14" on="1"/>
        <pt x="137" y="-62" on="1"/>
        <pt x="101" y="-43" on="1"/>
        <pt x="141" y="35" on="1"/>
        <pt x="96" y="70" on="0"/>
        <pt x="49" y="194" on="0"/>
        <pt x="49" y="275" on="1"/>
        <pt x="49" y="421" on="0"/>
        <pt x="191" y="576" on="0"/>
        <pt x="301" y="576" on="1"/>
        <pt x="331" y="576" on="0"/>
        <pt x="385" y="564" on="0"/>
        <pt x="407" y="554" on="1"/>
        <pt x="439" y="615" on="1"/>
        <pt x="475" y="596" on="1"/>
        <pt x="442" y="533" on="1"/>
        <pt x="488" y="498" on="0"/>
        <pt x="534" y="375" on="0"/>
        <pt x="534" y="293" on="1"/>
        <pt x="534" y="150" on="0"/>
        <pt x="394" y="-8" on="0"/>
      </contour>
    </TTGlyph>
    <TTGlyph name="Otilde" xMin="49" yMin="-8" xMax="534" yMax="719">
      <component glyphName="O" x="0" y="0" flags="0x204"/>
      <component glyphName="tildecomb.case" x="292" y="0" flags="0x4"/>
    </TTGlyph>
    <TTGlyph name="P" xMin="42" yMin="0" xMax="474" yMax="573">
      <contour>
        <pt x="262" y="260" on="1"/>
        <pt x="318" y="260" on="0"/>
        <pt x="407" y="326" on="0"/>
        <pt x="407" y="415" on="1"/>
        <pt x="407" y="482" on="0"/>
        <pt x="336" y="537" on="0"/>
        <pt x="263" y="537" on="1"/>
        <pt x="236" y="537" on="0"/>
        <pt x="198" y="533" on="0"/>
        <pt x="182" y="533" on="1"/>
        <pt x="182" y="263" on="1"/>
        <pt x="202" y="262" on="0"/>
        <pt x="238" y="260" on="0"/>
      </contour>
      <contour>
        <pt x="289" y="32" on="1"/>
        <pt x="289" y="0" on="1"/>
        <pt x="42" y="0" on="1"/>
        <pt x="42" y="32" on="1"/>
        <pt x="101" y="43" on="1"/>
        <pt x="110" y="44" on="0"/>
        <pt x="120" y="56" on="0"/>
        <pt x="120" y="65" on="1"/>
        <pt x="120" y="502" on="1"/>
        <pt x="120" y="509" on="0"/>
        <pt x="111" y="522" on="0"/>
        <pt x="104" y="524" on="1"/>
        <pt x="42" y="536" on="1"/>
        <pt x="42" y="568" on="1"/>
        <pt x="151" y="568" on="1"/>
        <pt x="188" y="568" on="0"/>
        <pt x="233" y="573" on="0"/>
        <pt x="282" y="573" on="1"/>
        <pt x="391" y="573" on="0"/>
        <pt x="474" y="490" on="0"/>
        <pt x="474" y="415" on="1"/>
        <pt x="474" y="324" on="0"/>
        <pt x="350" y="223" on="0"/>
        <pt x="261" y="223" on="1"/>
        <pt x="242" y="223" on="0"/>
        <pt x="202" y="225" on="0"/>
        <pt x="182" y="226" on="1"/>
        <pt x="182" y="65" on="1"/>
        <pt x="182" y="57" on="0"/>
        <pt x="193" y="45" on="0"/>
        <pt x="201" y="44" on="1"/>
      </contour>
    </TTGlyph>
    <TTGlyph name="Q" xMin="49" yMin="-150" xMax="587" yMax="576">
      <contour>
        <pt x="505" y="-150" on="1"/>
        <pt x="467" y="-150" on="0"/>
        <pt x="409" y="-114" on="0"/>
        <pt x="360" y="-66" on="0"/>
        <pt x="311" y="-19" on="0"/>
        <pt x="282" y="-8" on="1"/>
        <pt x="169" y="-8" on="0"/>
        <pt x="49" y="144" on="0"/>
        <pt x="49" y="275" on="1"/>
        <pt x="49" y="421" on="0"/>
        <pt x="191" y="576" on="0"/>
        <pt x="301" y="576" on="1"/>
        <pt x="415" y="576" on="0"/>
        <pt x="534" y="424" on="0"/>
        <pt x="534" y="293" on="1"/>
        <pt x="534" y="176" on="0"/>
        <pt x="439" y="27" on="0"/>
        <pt x="359" y="3" on="1"/>
        <pt x="379" y="-6" on="0"/>
        <pt x="412" y="-29" on="0"/>
        <pt x="428" y="-42" on="1"/>
        <pt x="455" y="-64" on="0"/>
        <pt x="510" y="-98" on="0"/>
        <pt x="549" y="-98" on="1"/>
        <pt x="557" y="-98" on="0"/>
        <pt x="574" y="-98" on="0"/>
        <pt x="580" y="-97" on="1"/>
        <pt x="587" y="-128" on="1"/>
        <pt x="577" y="-135" on="0"/>
        <pt x="532" y="-150" on="0"/>
      </contour>
      <contour>
        <pt x="292" y="538" on="1"/>
        <pt x="210" y="538" on="0"/>
        <pt x="117" y="412" on="0"/>
        <pt x="117" y="284" on="1"/>
        <pt x="117" y="162" on="0"/>
        <pt x="203" y="31" on="0"/>
        <pt x="290" y="31" on="1"/>
        <pt x="372" y="31" on="0"/>
        <pt x="465" y="157" on="0"/>
        <pt x="465" y="285" on="1"/>
        <pt x="465" y="407" on="0"/>
        <pt x="379" y="538" on="0"/>
      </contour>
    </TTGlyph>
    <TTGlyph name="R" xMin="42" yMin="0" xMax="542" yMax="574">
      <contour>
        <pt x="290" y="289" on="1"/>
        <pt x="339" y="290" on="0"/>
        <pt x="401" y="353" on="0"/>
        <pt x="401" y="419" on="1"/>
        <pt x="401" y="473" on="0"/>
        <pt x="344" y="537" on="0"/>
        <pt x="261" y="537" on="1"/>
        <pt x="236" y="537" on="0"/>
        <pt x="192" y="533" on="0"/>
        <pt x="182" y="532" on="1"/>
        <pt x="182" y="290" on="1"/>
        <pt x="209" y="289" on="0"/>
        <pt x="277" y="289" on="0"/>
      </contour>
      <contour>
        <pt x="266" y="32" on="1"/>
        <pt x="266" y="0" on="1"/>
        <pt x="42" y="0" on="1"/>
        <pt x="42" y="32" on="1"/>
        <pt x="100" y="43" on="1"/>
        <pt x="110" y="44" on="0"/>
        <pt x="120" y="56" on="0"/>
        <pt x="120" y="66" on="1"/>
        <pt x="120" y="501" on="1"/>
        <pt x="120" y="511" on="0"/>
        <pt x="110" y="523" on="0"/>
        <pt x="100" y="524" on="1"/>
        <pt x="42" y="536" on="1"/>
        <pt x="42" y="568" on="1"/>
        <pt x="152" y="568" on="1"/>
        <pt x="184" y="568" on="0"/>
        <pt x="239" y="574" on="0"/>
        <pt x="275" y="574" on="1"/>
        <pt x="379" y="574" on="0"/>
        <pt x="468" y="498" on="0"/>
        <pt x="468" y="424" on="1"/>
        <pt x="468" y="381" on="0"/>
        <pt x="443" y="322" on="0"/>
        <pt x="406" y="285" on="0"/>
        <pt x="363" y="266" on="0"/>
        <pt x="345" y="262" on="1"/>
        <pt x="362" y="248" on="0"/>
        <pt x="390" y="207" on="0"/>
        <pt x="406" y="179" on="1"/>
        <pt x="465" y="68" on="1"/>
        <pt x="472" y="54" on="0"/>
        <pt x="487" y="44" on="0"/>
        <pt x="500" y="41" on="1"/>
        <pt x="542" y="32" on="1"/>
        <pt x="542" y="0" on="1"/>
        <pt x="445" y="0" on="1"/>
        <pt x="428" y="0" on="0"/>
        <pt x="398" y="50" on="0"/>
        <pt x="377" y="93" on="1"/>
        <pt x="341" y="164" on="1"/>
        <pt x="327" y="192" on="0"/>
        <pt x="299" y="240" on="0"/>
        <pt x="286" y="253" on="1"/>
        <pt x="182" y="253" on="1"/>
        <pt x="182" y="66" on="1"/>
        <pt x="182" y="56" on="0"/>
        <pt x="193" y="45" on="0"/>
        <pt x="203" y="43" on="1"/>
      </contour>
    </TTGlyph>
    <TTGlyph name="Racute" xMin="42" yMin="0" xMax="542" yMax="747">
      <component glyphName="R" x="0" y="0" flags="0x204"/>
      <component glyphName="acutecomb.case" x="265" y="0" flags="0x4"/>
    </TTGlyph>
    <TTGlyph name="Rcaron" xMin="42" yMin="0" xMax="542" yMax="746">
      <component glyphName="R" x="0" y="0" flags="0x204"/>
      <component glyphName="uni030C.case" x="265" y="0" flags="0x4"/>
    </TTGlyph>
    <TTGlyph name="Rcommaaccent" xMin="42" yMin="-207" xMax="542" yMax="574">
      <component glyphName="R" x="0" y="0" flags="0x204"/>
      <component glyphName="uni0326" x="307" y="0" flags="0x4"/>
    </TTGlyph>
    <TTGlyph name="S" xMin="51" yMin="-12" xMax="416" yMax="577">
      <contour>
        <pt x="416" y="148" on="1"/>
        <pt x="416" y="88" on="0"/>
        <pt x="323" y="-12" on="0"/>
        <pt x="225" y="-12" on="1"/>
        <pt x="168" y="-12" on="0"/>
        <pt x="77" y="19" on="0"/>
        <pt x="52" y="36" on="1"/>
        <pt x="51" y="70" on="0"/>
        <pt x="54" y="137" on="0"/>
        <pt x="58" y="173" on="1"/>
        <pt x="96" y="173" on="1"/>
        <pt x="109" y="91" on="1"/>
        <pt x="110" y="86" on="0"/>
        <pt x="115" y="73" on="0"/>
        <pt x="122" y="66" on="1"/>
        <pt x="137" y="50" on="0"/>
        <pt x="195" y="24" on="0"/>
        <pt x="232" y="24" on="1"/>
        <pt x="291" y="24" on="0"/>
        <pt x="352" y="81" on="0"/>
        <pt x="352" y="130" on="1"/>
        <pt x="352" y="185" on="0"/>
        <pt x="281" y="236" on="0"/>
        <pt x="221" y="263" on="1"/>
        <pt x="195" y="274" on="0"/>
        <pt x="139" y="302" on="0"/>
        <pt x="93" y="342" on="0"/>
        <pt x="63" y="397" on="0"/>
        <pt x="63" y="434" on="1"/>
        <pt x="63" y="496" on="0"/>
        <pt x="155" y="577" on="0"/>
        <pt x="243" y="577" on="1"/>
        <pt x="281" y="577" on="0"/>
        <pt x="359" y="561" on="0"/>
        <pt x="387" y="547" on="1"/>
        <pt x="389" y="511" on="0"/>
        <pt x="386" y="448" on="0"/>
        <pt x="382" y="417" on="1"/>
        <pt x="345" y="417" on="1"/>
        <pt x="331" y="489" on="1"/>
        <pt x="330" y="495" on="0"/>
        <pt x="323" y="508" on="0"/>
        <pt x="316" y="515" on="1"/>
        <pt x="303" y="525" on="0"/>
        <pt x="256" y="542" on="0"/>
        <pt x="227" y="542" on="1"/>
        <pt x="175" y="542" on="0"/>
        <pt x="121" y="494" on="0"/>
        <pt x="121" y="451" on="1"/>
        <pt x="121" y="399" on="0"/>
        <pt x="194" y="347" on="0"/>
        <pt x="260" y="316" on="1"/>
        <pt x="317" y="289" on="0"/>
        <pt x="416" y="217" on="0"/>
      </contour>
    </TTGlyph>
    <TTGlyph name="Sacute" xMin="51" yMin="-12" xMax="416" yMax="747">
      <component glyphName="S" x="0" y="0" flags="0x204"/>
      <component glyphName="acutecomb.case" x="233" y="0" flags="0x4"/>
    </TTGlyph>
    <TTGlyph name="Scaron" xMin="51" yMin="-12" xMax="416" yMax="746">
      <component glyphName="S" x="0" y="0" flags="0x204"/>
      <component glyphName="uni030C.case" x="233" y="0" flags="0x4"/>
    </TTGlyph>
    <TTGlyph name="Scedilla" xMin="51" yMin="-187" xMax="416" yMax="577">
      <component glyphName="S" x="0" y="0" flags="0x204"/>
      <component glyphName="uni0327" x="220" y="0" flags="0x4"/>
    </TTGlyph>
    <TTGlyph name="Scircumflex" xMin="51" yMin="-12" xMax="416" yMax="743">
      <component glyphName="S" x="0" y="0" flags="0x204"/>
      <component glyphName="uni0302.case" x="233" y="0" flags="0x4"/>
    </TTGlyph>
    <TTGlyph name="Scommaaccent" xMin="51" yMin="-207" xMax="416" yMax="577">
      <component glyphName="S" x="0" y="0" flags="0x204"/>
      <component glyphName="uni0326" x="220" y="0" flags="0x4"/>
    </TTGlyph>
    <TTGlyph name="T" xMin="29" yMin="0" xMax="510" yMax="568">
      <contour>
        <pt x="406" y="0" on="1"/>
        <pt x="133" y="0" on="1"/>
        <pt x="133" y="32" on="1"/>
        <pt x="218" y="45" on="1"/>
        <pt x="228" y="46" on="0"/>
        <pt x="239" y="58" on="0"/>
        <pt x="239" y="68" on="1"/>
        <pt x="239" y="532" on="1"/>
        <pt x="192" y="532" on="1"/>
        <pt x="164" y="532" on="0"/>
        <pt x="119" y="528" on="0"/>
        <pt x="109" y="524" on="1"/>
        <pt x="100" y="521" on="0"/>
        <pt x="90" y="511" on="0"/>
        <pt x="88" y="501" on="1"/>
        <pt x="67" y="406" on="1"/>
        <pt x="31" y="406" on="1"/>
        <pt x="29" y="449" on="0"/>
        <pt x="33" y="529" on="0"/>
        <pt x="37" y="568" on="1"/>
        <pt x="503" y="568" on="1"/>
        <pt x="507" y="529" on="0"/>
        <pt x="510" y="449" on="0"/>
        <pt x="506" y="406" on="1"/>
        <pt x="471" y="406" on="1"/>
        <pt x="450" y="501" on="1"/>
        <pt x="449" y="511" on="0"/>
        <pt x="438" y="521" on="0"/>
        <pt x="431" y="524" on="1"/>
        <pt x="419" y="528" on="0"/>
        <pt x="377" y="532" on="0"/>
        <pt x="349" y="532" on="1"/>
        <pt x="300" y="532" on="1"/>
        <pt x="300" y="68" on="1"/>
        <pt x="300" y="58" on="0"/>
        <pt x="311" y="46" on="0"/>
        <pt x="321" y="45" on="1"/>
        <pt x="406" y="32" on="1"/>
      </contour>
    </TTGlyph>
    <TTGlyph name="Tbar" xMin="29" yMin="0" xMax="510" yMax="568">
      <contour>
        <pt x="406" y="32" on="1"/>
        <pt x="406" y="0" on="1"/>
        <pt x="133" y="0" on="1"/>
        <pt x="133" y="32" on="1"/>
        <pt x="218" y="45" on="1"/>
        <pt x="228" y="46" on="0"/>
        <pt x="239" y="58" on="0"/>
        <pt x="239" y="68" on="1"/>
        <pt x="239" y="254" on="1"/>
        <pt x="140" y="254" on="1"/>
        <pt x="140" y="295" on="1"/>
        <pt x="239" y="295" on="1"/>
        <pt x="239" y="532" on="1"/>
        <pt x="192" y="532" on="1"/>
        <pt x="164" y="532" on="0"/>
        <pt x="119" y="528" on="0"/>
        <pt x="109" y="524" on="1"/>
        <pt x="100" y="521" on="0"/>
        <pt x="90" y="511" on="0"/>
        <pt x="88" y="501" on="1"/>
        <pt x="67" y="406" on="1"/>
        <pt x="31" y="406" on="1"/>
        <pt x="29" y="449" on="0"/>
        <pt x="33" y="529" on="0"/>
        <pt x="37" y="568" on="1"/>
        <pt x="503" y="568" on="1"/>
        <pt x="507" y="529" on="0"/>
        <pt x="510" y="449" on="0"/>
        <pt x="506" y="406" on="1"/>
        <pt x="471" y="406" on="1"/>
        <pt x="450" y="501" on="1"/>
        <pt x="449" y="511" on="0"/>
        <pt x="438" y="521" on="0"/>
        <pt x="431" y="524" on="1"/>
        <pt x="419" y="528" on="0"/>
        <pt x="377" y="532" on="0"/>
        <pt x="349" y="532" on="1"/>
        <pt x="300" y="532" on="1"/>
        <pt x="300" y="295" on="1"/>
        <pt x="399" y="295" on="1"/>
        <pt x="399" y="254" on="1"/>
        <pt x="300" y="254" on="1"/>
        <pt x="300" y="68" on="1"/>
        <pt x="300" y="58" on="0"/>
        <pt x="311" y="46" on="0"/>
        <pt x="321" y="45" on="1"/>
      </contour>
    </TTGlyph>
    <TTGlyph name="Tcaron" xMin="29" yMin="0" xMax="510" yMax="746">
      <component glyphName="T" x="0" y="0" flags="0x204"/>
      <component glyphName="uni030C.case" x="271" y="0" flags="0x4"/>
    </TTGlyph>
    <TTGlyph name="Thorn" xMin="48" yMin="0" xMax="469" yMax="568">
      <contour>
        <pt x="272" y="156" on="1"/>
        <pt x="329" y="156" on="0"/>
        <pt x="401" y="214" on="0"/>
        <pt x="401" y="289" on="1"/>
        <pt x="401" y="349" on="0"/>
        <pt x="341" y="410" on="0"/>
        <pt x="267" y="410" on="1"/>
        <pt x="245" y="410" on="0"/>
        <pt x="199" y="406" on="0"/>
        <pt x="180" y="404" on="1"/>
        <pt x="180" y="162" on="1"/>
        <pt x="205" y="159" on="0"/>
        <pt x="249" y="156" on="0"/>
      </contour>
      <contour>
        <pt x="262" y="32" on="1"/>
        <pt x="262" y="0" on="1"/>
        <pt x="48" y="0" on="1"/>
        <pt x="48" y="32" on="1"/>
        <pt x="100" y="43" on="1"/>
        <pt x="110" y="44" on="0"/>
        <pt x="119" y="56" on="0"/>
        <pt x="119" y="66" on="1"/>
        <pt x="119" y="501" on="1"/>
        <pt x="119" y="510" on="0"/>
        <pt x="109" y="522" on="0"/>
        <pt x="100" y="524" on="1"/>
        <pt x="48" y="536" on="1"/>
        <pt x="48" y="568" on="1"/>
        <pt x="262" y="568" on="1"/>
        <pt x="262" y="536" on="1"/>
        <pt x="200" y="524" on="1"/>
        <pt x="190" y="523" on="0"/>
        <pt x="180" y="511" on="0"/>
        <pt x="180" y="501" on="1"/>
        <pt x="180" y="441" on="1"/>
        <pt x="208" y="444" on="0"/>
        <pt x="260" y="447" on="0"/>
        <pt x="288" y="447" on="1"/>
        <pt x="375" y="447" on="0"/>
        <pt x="469" y="371" on="0"/>
        <pt x="469" y="292" on="1"/>
        <pt x="469" y="204" on="0"/>
        <pt x="367" y="122" on="0"/>
        <pt x="274" y="122" on="1"/>
        <pt x="244" y="122" on="0"/>
        <pt x="200" y="124" on="0"/>
        <pt x="180" y="125" on="1"/>
        <pt x="180" y="66" on="1"/>
        <pt x="180" y="56" on="0"/>
        <pt x="190" y="44" on="0"/>
        <pt x="200" y="43" on="1"/>
      </contour>
    </TTGlyph>
    <TTGlyph name="U" xMin="39" yMin="-7" xMax="573" yMax="568">
      <contour>
        <pt x="378" y="568" on="1"/>
        <pt x="573" y="568" on="1"/>
        <pt x="573" y="536" on="1"/>
        <pt x="528" y="525" on="1"/>
        <pt x="518" y="523" on="0"/>
        <pt x="509" y="511" on="0"/>
        <pt x="509" y="501" on="1"/>
        <pt x="509" y="209" on="1"/>
        <pt x="509" y="97" on="0"/>
        <pt x="399" y="-7" on="0"/>
        <pt x="300" y="-7" on="1"/>
        <pt x="196" y="-7" on="0"/>
        <pt x="101" y="107" on="0"/>
        <pt x="101" y="219" on="1"/>
        <pt x="101" y="501" on="1"/>
        <pt x="101" y="511" on="0"/>
        <pt x="92" y="523" on="0"/>
        <pt x="83" y="525" on="1"/>
        <pt x="39" y="536" on="1"/>
        <pt x="39" y="568" on="1"/>
        <pt x="251" y="568" on="1"/>
        <pt x="251" y="536" on="1"/>
        <pt x="184" y="524" on="1"/>
        <pt x="175" y="523" on="0"/>
        <pt x="165" y="510" on="0"/>
        <pt x="165" y="500" on="1"/>
        <pt x="165" y="212" on="1"/>
        <pt x="165" y="107" on="0"/>
        <pt x="249" y="29" on="0"/>
        <pt x="312" y="29" on="1"/>
        <pt x="390" y="29" on="0"/>
        <pt x="461" y="119" on="0"/>
        <pt x="461" y="206" on="1"/>
        <pt x="461" y="501" on="1"/>
        <pt x="461" y="511" on="0"/>
        <pt x="452" y="523" on="0"/>
        <pt x="442" y="524" on="1"/>
        <pt x="378" y="536" on="1"/>
      </contour>
    </TTGlyph>
    <TTGlyph name="Uacute" xMin="39" yMin="-7" xMax="573" yMax="747">
      <component glyphName="U" x="0" y="0" flags="0x204"/>
      <component glyphName="acutecomb.case" x="313" y="0" flags="0x4"/>
    </TTGlyph>
    <TTGlyph name="Ubreve" xMin="39" yMin="-7" xMax="573" yMax="730">
      <component glyphName="U" x="0" y="0" flags="0x204"/>
      <component glyphName="uni0306.case" x="313" y="0" flags="0x4"/>
    </TTGlyph>
    <TTGlyph name="Ucircumflex" xMin="39" yMin="-7" xMax="573" yMax="743">
      <component glyphName="U" x="0" y="0" flags="0x204"/>
      <component glyphName="uni0302.case" x="313" y="0" flags="0x4"/>
    </TTGlyph>
    <TTGlyph name="Udieresis" xMin="39" yMin="-7" xMax="573" yMax="708">
      <component glyphName="U" x="0" y="0" flags="0x204"/>
      <component glyphName="uni0308.case" x="313" y="0" flags="0x4"/>
    </TTGlyph>
    <TTGlyph name="Ugrave" xMin="39" yMin="-7" xMax="573" yMax="751">
      <component glyphName="U" x="0" y="0" flags="0x204"/>
      <component glyphName="gravecomb.case" x="313" y="0" flags="0x4"/>
    </TTGlyph>
    <TTGlyph name="Uhungarumlaut" xMin="39" yMin="-7" xMax="573" yMax="755">
      <component glyphName="U" x="0" y="0" flags="0x204"/>
      <component glyphName="uni030B.case" x="313" y="0" flags="0x4"/>
    </TTGlyph>
    <TTGlyph name="Umacron" xMin="39" yMin="-7" xMax="573" yMax="686">
      <component glyphName="U" x="0" y="0" flags="0x204"/>
      <component glyphName="uni0304.case" x="313" y="0" flags="0x4"/>
    </TTGlyph>
    <TTGlyph name="Uogonek" xMin="39" yMin="-187" xMax="573" yMax="568">
      <contour>
        <pt x="339" y="-187" on="1"/>
        <pt x="304" y="-187" on="0"/>
        <pt x="252" y="-154" on="0"/>
        <pt x="252" y="-119" on="1"/>
        <pt x="252" y="-80" on="0"/>
        <pt x="312" y="-23" on="0"/>
        <pt x="345" y="-6" on="1"/>
        <pt x="345" y="-4" on="1"/>
        <pt x="335" y="-5" on="0"/>
        <pt x="312" y="-7" on="0"/>
        <pt x="300" y="-7" on="1"/>
        <pt x="196" y="-7" on="0"/>
        <pt x="101" y="107" on="0"/>
        <pt x="101" y="219" on="1"/>
        <pt x="101" y="501" on="1"/>
        <pt x="101" y="511" on="0"/>
        <pt x="92" y="523" on="0"/>
        <pt x="83" y="525" on="1"/>
        <pt x="39" y="536" on="1"/>
        <pt x="39" y="568" on="1"/>
        <pt x="251" y="568" on="1"/>
        <pt x="251" y="536" on="1"/>
        <pt x="184" y="524" on="1"/>
        <pt x="175" y="523" on="0"/>
        <pt x="165" y="510" on="0"/>
        <pt x="165" y="500" on="1"/>
        <pt x="165" y="212" on="1"/>
        <pt x="165" y="107" on="0"/>
        <pt x="249" y="29" on="0"/>
        <pt x="312" y="29" on="1"/>
        <pt x="390" y="29" on="0"/>
        <pt x="461" y="119" on="0"/>
        <pt x="461" y="206" on="1"/>
        <pt x="461" y="501" on="1"/>
        <pt x="461" y="511" on="0"/>
        <pt x="452" y="523" on="0"/>
        <pt x="442" y="524" on="1"/>
        <pt x="378" y="536" on="1"/>
        <pt x="378" y="568" on="1"/>
        <pt x="573" y="568" on="1"/>
        <pt x="573" y="536" on="1"/>
        <pt x="528" y="525" on="1"/>
        <pt x="518" y="523" on="0"/>
        <pt x="509" y="511" on="0"/>
        <pt x="509" y="501" on="1"/>
        <pt x="509" y="209" on="1"/>
        <pt x="509" y="141" on="0"/>
        <pt x="468" y="49" on="0"/>
        <pt x="429" y="24" on="1"/>
        <pt x="374" y="-12" on="0"/>
        <pt x="310" y="-70" on="0"/>
        <pt x="310" y="-101" on="1"/>
        <pt x="310" y="-123" on="0"/>
        <pt x="340" y="-145" on="0"/>
        <pt x="363" y="-145" on="1"/>
        <pt x="375" y="-145" on="0"/>
        <pt x="403" y="-139" on="0"/>
        <pt x="416" y="-133" on="1"/>
        <pt x="429" y="-160" on="1"/>
        <pt x="412" y="-172" on="0"/>
        <pt x="363" y="-187" on="0"/>
      </contour>
    </TTGlyph>
    <TTGlyph name="Uring" xMin="39" yMin="-7" xMax="573" yMax="763">
      <component glyphName="U" x="0" y="0" flags="0x204"/>
      <component glyphName="uni030A.case" x="313" y="0" flags="0x4"/>
    </TTGlyph>
    <TTGlyph name="Utilde" xMin="39" yMin="-7" xMax="573" yMax="719">
      <component glyphName="U" x="0" y="0" flags="0x204"/>
      <component glyphName="tildecomb.case" x="313" y="0" flags="0x4"/>
    </TTGlyph>
    <TTGlyph name="V" xMin="-2" yMin="-2" xMax="549" yMax="568">
      <contour>
        <pt x="311" y="-2" on="1"/>
        <pt x="253" y="-2" on="1"/>
        <pt x="61" y="505" on="1"/>
        <pt x="57" y="513" on="0"/>
        <pt x="47" y="522" on="0"/>
        <pt x="38" y="524" on="1"/>
        <pt x="-2" y="536" on="1"/>
        <pt x="-2" y="568" on="1"/>
        <pt x="199" y="568" on="1"/>
        <pt x="199" y="536" on="1"/>
        <pt x="122" y="521" on="1"/>
        <pt x="290" y="69" on="1"/>
        <pt x="440" y="521" on="1"/>
        <pt x="364" y="536" on="1"/>
        <pt x="364" y="568" on="1"/>
        <pt x="549" y="568" on="1"/>
        <pt x="549" y="536" on="1"/>
        <pt x="507" y="524" on="1"/>
        <pt x="499" y="522" on="0"/>
        <pt x="487" y="513" on="0"/>
        <pt x="484" y="505" on="1"/>
      </contour>
    </TTGlyph>
    <TTGlyph name="W" xMin="0" yMin="-4" xMax="800" yMax="568">
      <contour>
        <pt x="524" y="-4" on="1"/>
        <pt x="405" y="393" on="1"/>
        <pt x="287" y="-4" on="1"/>
        <pt x="227" y="-4" on="1"/>
        <pt x="64" y="504" on="1"/>
        <pt x="62" y="512" on="0"/>
        <pt x="51" y="522" on="0"/>
        <pt x="42" y="524" on="1"/>
        <pt x="0" y="536" on="1"/>
        <pt x="0" y="568" on="1"/>
        <pt x="202" y="568" on="1"/>
        <pt x="202" y="536" on="1"/>
        <pt x="126" y="521" on="1"/>
        <pt x="264" y="71" on="1"/>
        <pt x="382" y="463" on="1"/>
        <pt x="367" y="504" on="1"/>
        <pt x="364" y="512" on="0"/>
        <pt x="354" y="522" on="0"/>
        <pt x="345" y="524" on="1"/>
        <pt x="307" y="536" on="1"/>
        <pt x="307" y="568" on="1"/>
        <pt x="503" y="568" on="1"/>
        <pt x="503" y="536" on="1"/>
        <pt x="428" y="521" on="1"/>
        <pt x="563" y="71" on="1"/>
        <pt x="692" y="521" on="1"/>
        <pt x="616" y="536" on="1"/>
        <pt x="616" y="568" on="1"/>
        <pt x="800" y="568" on="1"/>
        <pt x="800" y="536" on="1"/>
        <pt x="757" y="524" on="1"/>
        <pt x="749" y="522" on="0"/>
        <pt x="738" y="514" on="0"/>
        <pt x="735" y="504" on="1"/>
        <pt x="585" y="-4" on="1"/>
      </contour>
    </TTGlyph>
    <TTGlyph name="Wacute" xMin="0" yMin="-4" xMax="800" yMax="747">
      <component glyphName="W" x="0" y="0" flags="0x204"/>
      <component glyphName="acutecomb.case" x="400" y="0" flags="0x4"/>
    </TTGlyph>
    <TTGlyph name="Wcircumflex" xMin="0" yMin="-4" xMax="800" yMax="743">
      <component glyphName="W" x="0" y="0" flags="0x204"/>
      <component glyphName="uni0302.case" x="400" y="0" flags="0x4"/>
    </TTGlyph>
    <TTGlyph name="Wdieresis" xMin="0" yMin="-4" xMax="800" yMax="708">
      <component glyphName="W" x="0" y="0" flags="0x204"/>
      <component glyphName="uni0308.case" x="400" y="0" flags="0x4"/>
    </TTGlyph>
    <TTGlyph name="Wgrave" xMin="0" yMin="-4" xMax="800" yMax="751">
      <component glyphName="W" x="0" y="0" flags="0x204"/>
      <component glyphName="gravecomb.case" x="400" y="0" flags="0x4"/>
    </TTGlyph>
    <TTGlyph name="X" xMin="10" yMin="0" xMax="529" yMax="568">
      <contour>
        <pt x="206" y="32" on="1"/>
        <pt x="206" y="0" on="1"/>
        <pt x="10" y="0" on="1"/>
        <pt x="10" y="32" on="1"/>
        <pt x="59" y="43" on="1"/>
        <pt x="67" y="44" on="0"/>
        <pt x="78" y="52" on="0"/>
        <pt x="83" y="59" on="1"/>
        <pt x="238" y="282" on="1"/>
        <pt x="89" y="507" on="1"/>
        <pt x="85" y="514" on="0"/>
        <pt x="73" y="522" on="0"/>
        <pt x="65" y="524" on="1"/>
        <pt x="23" y="536" on="1"/>
        <pt x="23" y="568" on="1"/>
        <pt x="232" y="568" on="1"/>
        <pt x="232" y="536" on="1"/>
        <pt x="156" y="523" on="1"/>
        <pt x="278" y="328" on="1"/>
        <pt x="405" y="523" on="1"/>
        <pt x="338" y="536" on="1"/>
        <pt x="338" y="568" on="1"/>
        <pt x="516" y="568" on="1"/>
        <pt x="516" y="536" on="1"/>
        <pt x="472" y="524" on="1"/>
        <pt x="465" y="522" on="0"/>
        <pt x="453" y="515" on="0"/>
        <pt x="449" y="508" on="1"/>
        <pt x="302" y="297" on="1"/>
        <pt x="462" y="59" on="1"/>
        <pt x="466" y="52" on="0"/>
        <pt x="479" y="44" on="0"/>
        <pt x="486" y="43" on="1"/>
        <pt x="529" y="32" on="1"/>
        <pt x="529" y="0" on="1"/>
        <pt x="322" y="0" on="1"/>
        <pt x="322" y="32" on="1"/>
        <pt x="395" y="44" on="1"/>
        <pt x="264" y="249" on="1"/>
        <pt x="129" y="44" on="1"/>
      </contour>
    </TTGlyph>
    <TTGlyph name="Y" xMin="0" yMin="0" xMax="522" yMax="568">
      <contour>
        <pt x="389" y="0" on="1"/>
        <pt x="146" y="0" on="1"/>
        <pt x="146" y="32" on="1"/>
        <pt x="216" y="45" on="1"/>
        <pt x="226" y="46" on="0"/>
        <pt x="237" y="58" on="0"/>
        <pt x="237" y="68" on="1"/>
        <pt x="237" y="215" on="1"/>
        <pt x="69" y="507" on="1"/>
        <pt x="65" y="514" on="0"/>
        <pt x="53" y="523" on="0"/>
        <pt x="45" y="525" on="1"/>
        <pt x="0" y="536" on="1"/>
        <pt x="0" y="568" on="1"/>
        <pt x="203" y="568" on="1"/>
        <pt x="203" y="536" on="1"/>
        <pt x="133" y="523" on="1"/>
        <pt x="277" y="268" on="1"/>
        <pt x="409" y="523" on="1"/>
        <pt x="340" y="536" on="1"/>
        <pt x="340" y="568" on="1"/>
        <pt x="522" y="568" on="1"/>
        <pt x="522" y="536" on="1"/>
        <pt x="476" y="526" on="1"/>
        <pt x="468" y="524" on="0"/>
        <pt x="456" y="516" on="0"/>
        <pt x="452" y="508" on="1"/>
        <pt x="299" y="217" on="1"/>
        <pt x="299" y="68" on="1"/>
        <pt x="299" y="58" on="0"/>
        <pt x="309" y="46" on="0"/>
        <pt x="319" y="45" on="1"/>
        <pt x="389" y="32" on="1"/>
      </contour>
    </TTGlyph>
    <TTGlyph name="Yacute" xMin="0" yMin="0" xMax="522" yMax="747">
      <component glyphName="Y" x="0" y="0" flags="0x204"/>
      <component glyphName="acutecomb.case" x="261" y="0" flags="0x4"/>
    </TTGlyph>
    <TTGlyph name="Ycircumflex" xMin="0" yMin="0" xMax="522" yMax="743">
      <component glyphName="Y" x="0" y="0" flags="0x204"/>
      <component glyphName="uni0302.case" x="261" y="0" flags="0x4"/>
    </TTGlyph>
    <TTGlyph name="Ydieresis" xMin="0" yMin="0" xMax="522" yMax="708">
      <component glyphName="Y" x="0" y="0" flags="0x204"/>
      <component glyphName="uni0308.case" x="261" y="0" flags="0x4"/>
    </TTGlyph>
    <TTGlyph name="Ygrave" xMin="0" yMin="0" xMax="522" yMax="751">
      <component glyphName="Y" x="0" y="0" flags="0x204"/>
      <component glyphName="gravecomb.case" x="261" y="0" flags="0x4"/>
    </TTGlyph>
    <TTGlyph name="Z" xMin="27" yMin="0" xMax="445" yMax="568">
      <contour>
        <pt x="432" y="0" on="1"/>
        <pt x="44" y="0" on="1"/>
        <pt x="27" y="29" on="1"/>
        <pt x="362" y="530" on="1"/>
        <pt x="226" y="530" on="1"/>
        <pt x="200" y="530" on="0"/>
        <pt x="155" y="527" on="0"/>
        <pt x="141" y="522" on="1"/>
        <pt x="133" y="519" on="0"/>
        <pt x="123" y="509" on="0"/>
        <pt x="121" y="501" on="1"/>
        <pt x="98" y="414" on="1"/>
        <pt x="64" y="414" on="1"/>
        <pt x="62" y="451" on="0"/>
        <pt x="67" y="531" on="0"/>
        <pt x="72" y="568" on="1"/>
        <pt x="427" y="568" on="1"/>
        <pt x="443" y="540" on="1"/>
        <pt x="109" y="39" on="1"/>
        <pt x="278" y="39" on="1"/>
        <pt x="304" y="39" on="0"/>
        <pt x="349" y="43" on="0"/>
        <pt x="363" y="48" on="1"/>
        <pt x="371" y="51" on="0"/>
        <pt x="381" y="61" on="0"/>
        <pt x="383" y="69" on="1"/>
        <pt x="411" y="162" on="1"/>
        <pt x="444" y="159" on="1"/>
        <pt x="445" y="123" on="0"/>
        <pt x="438" y="34" on="0"/>
      </contour>
    </TTGlyph>
    <TTGlyph name="Zacute" xMin="27" yMin="0" xMax="445" yMax="747">
      <component glyphName="Z" x="0" y="0" flags="0x204"/>
      <component glyphName="acutecomb.case" x="257" y="0" flags="0x4"/>
    </TTGlyph>
    <TTGlyph name="Zcaron" xMin="27" yMin="0" xMax="445" yMax="746">
      <component glyphName="Z" x="0" y="0" flags="0x204"/>
      <component glyphName="uni030C.case" x="257" y="0" flags="0x4"/>
    </TTGlyph>
    <TTGlyph name="Zdotaccent" xMin="27" yMin="0" xMax="445" yMax="718">
      <component glyphName="Z" x="0" y="0" flags="0x204"/>
      <component glyphName="uni0307.case" x="257" y="0" flags="0x4"/>
    </TTGlyph>
    <TTGlyph name="__periodcentered.CAT" xMin="-2" yMin="223" xMax="92" yMax="317">
      <contour>
        <pt x="92" y="270" on="1"/>
        <pt x="92" y="250" on="0"/>
        <pt x="66" y="223" on="0"/>
        <pt x="45" y="223" on="1"/>
        <pt x="24" y="223" on="0"/>
        <pt x="-2" y="250" on="0"/>
        <pt x="-2" y="270" on="1"/>
        <pt x="-2" y="291" on="0"/>
        <pt x="24" y="317" on="0"/>
        <pt x="45" y="317" on="1"/>
        <pt x="66" y="317" on="0"/>
        <pt x="92" y="291" on="0"/>
      </contour>
    </TTGlyph>
    <TTGlyph name="__periodcentered.CAT.case" xMin="-152" yMin="259" xMax="-58" yMax="353">
      <contour>
        <pt x="-58" y="306" on="1"/>
        <pt x="-58" y="286" on="0"/>
        <pt x="-84" y="259" on="0"/>
        <pt x="-105" y="259" on="1"/>
        <pt x="-126" y="259" on="0"/>
        <pt x="-152" y="286" on="0"/>
        <pt x="-152" y="306" on="1"/>
        <pt x="-152" y="327" on="0"/>
        <pt x="-126" y="353" on="0"/>
        <pt x="-105" y="353" on="1"/>
        <pt x="-84" y="353" on="0"/>
        <pt x="-58" y="327" on="0"/>
      </contour>
    </TTGlyph>
    <TTGlyph name="a" xMin="39" yMin="-8" xMax="410" yMax="422">
      <contour>
        <pt x="173" y="36" on="1"/>
        <pt x="202" y="36" on="0"/>
        <pt x="264" y="59" on="0"/>
        <pt x="285" y="77" on="1"/>
        <pt x="285" y="177" on="1"/>
        <pt x="206" y="169" on="1"/>
        <pt x="159" y="165" on="0"/>
        <pt x="105" y="133" on="0"/>
        <pt x="105" y="96" on="1"/>
        <pt x="105" y="68" on="0"/>
        <pt x="139" y="36" on="0"/>
      </contour>
      <contour>
        <pt x="346" y="-6" on="1"/>
        <pt x="321" y="-6" on="0"/>
        <pt x="291" y="23" on="0"/>
        <pt x="287" y="48" on="1"/>
        <pt x="263" y="23" on="0"/>
        <pt x="193" y="-8" on="0"/>
        <pt x="154" y="-8" on="1"/>
        <pt x="106" y="-8" on="0"/>
        <pt x="39" y="42" on="0"/>
        <pt x="39" y="91" on="1"/>
        <pt x="39" y="123" on="0"/>
        <pt x="69" y="165" on="0"/>
        <pt x="116" y="190" on="0"/>
        <pt x="173" y="202" on="0"/>
        <pt x="199" y="204" on="1"/>
        <pt x="285" y="212" on="1"/>
        <pt x="285" y="264" on="1"/>
        <pt x="285" y="324" on="0"/>
        <pt x="240" y="373" on="0"/>
        <pt x="191" y="373" on="1"/>
        <pt x="156" y="373" on="0"/>
        <pt x="93" y="350" on="0"/>
        <pt x="66" y="325" on="1"/>
        <pt x="51" y="341" on="1"/>
        <pt x="64" y="381" on="0"/>
        <pt x="155" y="422" on="0"/>
        <pt x="207" y="422" on="1"/>
        <pt x="274" y="422" on="0"/>
        <pt x="345" y="352" on="0"/>
        <pt x="345" y="278" on="1"/>
        <pt x="345" y="64" on="1"/>
        <pt x="345" y="52" on="0"/>
        <pt x="356" y="41" on="0"/>
        <pt x="367" y="40" on="1"/>
        <pt x="410" y="36" on="1"/>
        <pt x="410" y="7" on="1"/>
        <pt x="403" y="4" on="0"/>
        <pt x="362" y="-6" on="0"/>
      </contour>
    </TTGlyph>
    <TTGlyph name="aacute" xMin="39" yMin="-8" xMax="410" yMax="634">
      <component glyphName="a" x="0" y="0" flags="0x204"/>
      <component glyphName="acutecomb" x="207" y="0" flags="0x4"/>
    </TTGlyph>
    <TTGlyph name="abreve" xMin="39" yMin="-8" xMax="410" yMax="592">
      <component glyphName="a" x="0" y="0" flags="0x204"/>
      <component glyphName="uni0306" x="207" y="0" flags="0x4"/>
    </TTGlyph>
    <TTGlyph name="acircumflex" xMin="39" yMin="-8" xMax="410" yMax="623">
      <component glyphName="a" x="0" y="0" flags="0x204"/>
      <component glyphName="uni0302" x="207" y="0" flags="0x4"/>
    </TTGlyph>
    <TTGlyph name="acute" xMin="127" yMin="459" xMax="302" yMax="634">
      <component glyphName="acutecomb" x="182" y="0" flags="0x4"/>
    </TTGlyph>
    <TTGlyph name="acutecomb" xMin="-55" yMin="459" xMax="120" yMax="634">
      <contour>
        <pt x="-34" y="459" on="1"/>
        <pt x="-55" y="480" on="1"/>
        <pt x="73" y="634" on="1"/>
        <pt x="120" y="595" on="1"/>
        <pt x="99" y="567" on="0"/>
        <pt x="7" y="487" on="0"/>
      </contour>
    </TTGlyph>
    <TTGlyph name="acutecomb.case" xMin="-70" yMin="607" xMax="133" yMax="747">
      <contour>
        <pt x="133" y="697" on="1"/>
        <pt x="105" y="675" on="0"/>
        <pt x="-10" y="625" on="0"/>
        <pt x="-57" y="607" on="1"/>
        <pt x="-70" y="632" on="1"/>
        <pt x="96" y="747" on="1"/>
      </contour>
    </TTGlyph>
    <TTGlyph name="adieresis" xMin="39" yMin="-8" xMax="410" yMax="573">
      <component glyphName="a" x="0" y="0" flags="0x204"/>
      <component glyphName="uni0308" x="207" y="0" flags="0x4"/>
    </TTGlyph>
    <TTGlyph name="ae" xMin="39" yMin="-8" xMax="622" yMax="425">
      <contour>
        <pt x="462" y="386" on="1"/>
        <pt x="419" y="386" on="0"/>
        <pt x="360" y="329" on="0"/>
        <pt x="351" y="268" on="1"/>
        <pt x="557" y="268" on="1"/>
        <pt x="558" y="273" on="0"/>
        <pt x="558" y="281" on="0"/>
        <pt x="558" y="285" on="1"/>
        <pt x="558" y="331" on="0"/>
        <pt x="508" y="386" on="0"/>
      </contour>
      <contour>
        <pt x="621" y="90" on="1"/>
        <pt x="607" y="47" on="0"/>
        <pt x="522" y="-8" on="0"/>
        <pt x="464" y="-8" on="1"/>
        <pt x="413" y="-8" on="0"/>
        <pt x="340" y="33" on="0"/>
        <pt x="318" y="68" on="1"/>
        <pt x="292" y="31" on="0"/>
        <pt x="203" y="-8" on="0"/>
        <pt x="157" y="-8" on="1"/>
        <pt x="106" y="-8" on="0"/>
        <pt x="39" y="41" on="0"/>
        <pt x="39" y="90" on="1"/>
        <pt x="39" y="122" on="0"/>
        <pt x="69" y="165" on="0"/>
        <pt x="115" y="190" on="0"/>
        <pt x="172" y="202" on="0"/>
        <pt x="199" y="204" on="1"/>
        <pt x="285" y="211" on="1"/>
        <pt x="285" y="264" on="1"/>
        <pt x="285" y="324" on="0"/>
        <pt x="236" y="373" on="0"/>
        <pt x="188" y="373" on="1"/>
        <pt x="159" y="373" on="0"/>
        <pt x="94" y="351" on="0"/>
        <pt x="66" y="325" on="1"/>
        <pt x="51" y="341" on="1"/>
        <pt x="64" y="381" on="0"/>
        <pt x="156" y="422" on="0"/>
        <pt x="204" y="422" on="1"/>
        <pt x="251" y="422" on="0"/>
        <pt x="313" y="387" on="0"/>
        <pt x="327" y="353" on="1"/>
        <pt x="352" y="387" on="0"/>
        <pt x="427" y="425" on="0"/>
        <pt x="473" y="425" on="1"/>
        <pt x="535" y="425" on="0"/>
        <pt x="622" y="354" on="0"/>
        <pt x="622" y="281" on="1"/>
        <pt x="622" y="272" on="0"/>
        <pt x="620" y="244" on="0"/>
        <pt x="618" y="233" on="1"/>
        <pt x="348" y="233" on="1"/>
        <pt x="348" y="229" on="0"/>
        <pt x="348" y="222" on="0"/>
        <pt x="348" y="218" on="1"/>
        <pt x="348" y="114" on="0"/>
        <pt x="428" y="37" on="0"/>
        <pt x="477" y="37" on="1"/>
        <pt x="513" y="37" on="0"/>
        <pt x="578" y="73" on="0"/>
        <pt x="596" y="103" on="1"/>
      </contour>
      <contour>
        <pt x="173" y="36" on="1"/>
        <pt x="203" y="36" on="0"/>
        <pt x="278" y="62" on="0"/>
        <pt x="306" y="91" on="1"/>
        <pt x="298" y="110" on="0"/>
        <pt x="287" y="153" on="0"/>
        <pt x="286" y="176" on="1"/>
        <pt x="206" y="169" on="1"/>
        <pt x="159" y="165" on="0"/>
        <pt x="105" y="133" on="0"/>
        <pt x="105" y="96" on="1"/>
        <pt x="105" y="68" on="0"/>
        <pt x="139" y="36" on="0"/>
      </contour>
    </TTGlyph>
    <TTGlyph name="agrave" xMin="39" yMin="-8" xMax="410" yMax="634">
      <component glyphName="a" x="0" y="0" flags="0x204"/>
      <component glyphName="gravecomb" x="207" y="0" flags="0x4"/>
    </TTGlyph>
    <TTGlyph name="amacron" xMin="39" yMin="-8" xMax="410" yMax="541">
      <component glyphName="a" x="0" y="0" flags="0x204"/>
      <component glyphName="uni0304" x="207" y="0" flags="0x4"/>
    </TTGlyph>
    <TTGlyph name="ampersand" xMin="44" yMin="-9" xMax="533" yMax="575">
      <contour>
        <pt x="149" y="448" on="1"/>
        <pt x="149" y="426" on="0"/>
        <pt x="172" y="364" on="0"/>
        <pt x="208" y="314" on="1"/>
        <pt x="246" y="341" on="0"/>
        <pt x="303" y="408" on="0"/>
        <pt x="303" y="457" on="1"/>
        <pt x="303" y="488" on="0"/>
        <pt x="271" y="545" on="0"/>
        <pt x="231" y="545" on="1"/>
        <pt x="190" y="545" on="0"/>
        <pt x="149" y="483" on="0"/>
      </contour>
      <contour>
        <pt x="223" y="28" on="1"/>
        <pt x="256" y="28" on="0"/>
        <pt x="318" y="48" on="0"/>
        <pt x="343" y="67" on="1"/>
        <pt x="343" y="67" on="1"/>
        <pt x="301" y="108" on="0"/>
        <pt x="207" y="218" on="0"/>
        <pt x="176" y="258" on="1"/>
        <pt x="148" y="237" on="0"/>
        <pt x="104" y="181" on="0"/>
        <pt x="104" y="138" on="1"/>
        <pt x="104" y="90" on="0"/>
        <pt x="166" y="28" on="0"/>
      </contour>
      <contour>
        <pt x="468" y="-5" on="1"/>
        <pt x="445" y="-5" on="0"/>
        <pt x="399" y="16" on="0"/>
        <pt x="369" y="42" on="1"/>
        <pt x="335" y="14" on="0"/>
        <pt x="252" y="-9" on="0"/>
        <pt x="213" y="-9" on="1"/>
        <pt x="145" y="-9" on="0"/>
        <pt x="44" y="59" on="0"/>
        <pt x="44" y="131" on="1"/>
        <pt x="44" y="194" on="0"/>
        <pt x="115" y="264" on="0"/>
        <pt x="157" y="283" on="1"/>
        <pt x="125" y="327" on="0"/>
        <pt x="90" y="402" on="0"/>
        <pt x="90" y="439" on="1"/>
        <pt x="90" y="493" on="0"/>
        <pt x="163" y="575" on="0"/>
        <pt x="230" y="575" on="1"/>
        <pt x="285" y="575" on="0"/>
        <pt x="359" y="512" on="0"/>
        <pt x="359" y="455" on="1"/>
        <pt x="359" y="399" on="0"/>
        <pt x="285" y="319" on="0"/>
        <pt x="226" y="290" on="1"/>
        <pt x="262" y="244" on="0"/>
        <pt x="351" y="146" on="0"/>
        <pt x="389" y="108" on="1"/>
        <pt x="411" y="136" on="0"/>
        <pt x="427" y="209" on="0"/>
        <pt x="427" y="243" on="1"/>
        <pt x="427" y="248" on="0"/>
        <pt x="422" y="264" on="0"/>
        <pt x="410" y="266" on="1"/>
        <pt x="352" y="277" on="1"/>
        <pt x="352" y="309" on="1"/>
        <pt x="533" y="309" on="1"/>
        <pt x="533" y="277" on="1"/>
        <pt x="496" y="266" on="1"/>
        <pt x="486" y="262" on="0"/>
        <pt x="479" y="252" on="0"/>
        <pt x="478" y="242" on="1"/>
        <pt x="473" y="198" on="0"/>
        <pt x="446" y="118" on="0"/>
        <pt x="414" y="84" on="1"/>
        <pt x="442" y="56" on="0"/>
        <pt x="485" y="41" on="0"/>
        <pt x="533" y="41" on="1"/>
        <pt x="533" y="9" on="1"/>
        <pt x="519" y="4" on="0"/>
        <pt x="486" y="-5" on="0"/>
      </contour>
    </TTGlyph>
    <TTGlyph name="aogonek" xMin="39" yMin="-187" xMax="410" yMax="422">
      <contour>
        <pt x="311" y="-187" on="1"/>
        <pt x="276" y="-187" on="0"/>
        <pt x="224" y="-154" on="0"/>
        <pt x="224" y="-119" on="1"/>
        <pt x="224" y="-81" on="0"/>
        <pt x="286" y="-21" on="0"/>
        <pt x="323" y="-3" on="1"/>
        <pt x="323" y="-2" on="1"/>
        <pt x="308" y="3" on="0"/>
        <pt x="290" y="29" on="0"/>
        <pt x="287" y="48" on="1"/>
        <pt x="263" y="23" on="0"/>
        <pt x="193" y="-8" on="0"/>
        <pt x="154" y="-8" on="1"/>
        <pt x="106" y="-8" on="0"/>
        <pt x="39" y="42" on="0"/>
        <pt x="39" y="91" on="1"/>
        <pt x="39" y="123" on="0"/>
        <pt x="69" y="165" on="0"/>
        <pt x="116" y="190" on="0"/>
        <pt x="173" y="202" on="0"/>
        <pt x="199" y="204" on="1"/>
        <pt x="285" y="212" on="1"/>
        <pt x="285" y="264" on="1"/>
        <pt x="285" y="324" on="0"/>
        <pt x="240" y="373" on="0"/>
        <pt x="191" y="373" on="1"/>
        <pt x="156" y="373" on="0"/>
        <pt x="93" y="350" on="0"/>
        <pt x="66" y="325" on="1"/>
        <pt x="51" y="341" on="1"/>
        <pt x="64" y="381" on="0"/>
        <pt x="155" y="422" on="0"/>
        <pt x="207" y="422" on="1"/>
        <pt x="274" y="422" on="0"/>
        <pt x="345" y="352" on="0"/>
        <pt x="345" y="278" on="1"/>
        <pt x="345" y="64" on="1"/>
        <pt x="345" y="52" on="0"/>
        <pt x="356" y="41" on="0"/>
        <pt x="367" y="40" on="1"/>
        <pt x="410" y="36" on="1"/>
        <pt x="410" y="7" on="1"/>
        <pt x="406" y="5" on="0"/>
        <pt x="384" y="-1" on="0"/>
        <pt x="372" y="-3" on="1"/>
        <pt x="335" y="-19" on="0"/>
        <pt x="283" y="-73" on="0"/>
        <pt x="283" y="-101" on="1"/>
        <pt x="283" y="-123" on="0"/>
        <pt x="313" y="-145" on="0"/>
        <pt x="336" y="-145" on="1"/>
        <pt x="348" y="-145" on="0"/>
        <pt x="376" y="-139" on="0"/>
        <pt x="389" y="-133" on="1"/>
        <pt x="401" y="-160" on="1"/>
        <pt x="385" y="-172" on="0"/>
        <pt x="336" y="-187" on="0"/>
      </contour>
      <contour>
        <pt x="173" y="36" on="1"/>
        <pt x="202" y="36" on="0"/>
        <pt x="264" y="59" on="0"/>
        <pt x="285" y="77" on="1"/>
        <pt x="285" y="177" on="1"/>
        <pt x="206" y="169" on="1"/>
        <pt x="159" y="165" on="0"/>
        <pt x="105" y="133" on="0"/>
        <pt x="105" y="96" on="1"/>
        <pt x="105" y="68" on="0"/>
        <pt x="139" y="36" on="0"/>
      </contour>
    </TTGlyph>
    <TTGlyph name="approxequal" xMin="64" yMin="106" xMax="416" yMax="343">
      <component glyphName="asciitilde" x="0" y="-67" flags="0x4"/>
      <component glyphName="asciitilde" x="0" y="69" flags="0x4"/>
    </TTGlyph>
    <TTGlyph name="aring" xMin="39" yMin="-8" xMax="410" yMax="629">
      <component glyphName="a" x="0" y="0" flags="0x204"/>
      <component glyphName="uni030A" x="207" y="0" flags="0x4"/>
    </TTGlyph>
    <TTGlyph name="asciicircum" xMin="41" yMin="297" xMax="396" yMax="557">
      <contour>
        <pt x="365" y="297" on="1"/>
        <pt x="215" y="489" on="1"/>
        <pt x="70" y="297" on="1"/>
        <pt x="41" y="317" on="1"/>
        <pt x="187" y="553" on="1"/>
        <pt x="244" y="557" on="1"/>
        <pt x="396" y="317" on="1"/>
      </contour>
    </TTGlyph>
    <TTGlyph name="asciitilde" xMin="64" yMin="173" xMax="416" yMax="274">
      <contour>
        <pt x="416" y="250" on="1"/>
        <pt x="401" y="220" on="0"/>
        <pt x="345" y="173" on="0"/>
        <pt x="308" y="173" on="1"/>
        <pt x="266" y="173" on="0"/>
        <pt x="193" y="222" on="0"/>
        <pt x="160" y="222" on="1"/>
        <pt x="139" y="222" on="0"/>
        <pt x="100" y="197" on="0"/>
        <pt x="87" y="178" on="1"/>
        <pt x="64" y="197" on="1"/>
        <pt x="79" y="227" on="0"/>
        <pt x="135" y="274" on="0"/>
        <pt x="172" y="274" on="1"/>
        <pt x="214" y="274" on="0"/>
        <pt x="287" y="225" on="0"/>
        <pt x="320" y="225" on="1"/>
        <pt x="341" y="225" on="0"/>
        <pt x="380" y="250" on="0"/>
        <pt x="393" y="269" on="1"/>
      </contour>
    </TTGlyph>
    <TTGlyph name="asterisk" xMin="53" yMin="306" xMax="384" yMax="653">
      <contour>
        <pt x="239" y="413" on="1"/>
        <pt x="249" y="306" on="1"/>
        <pt x="188" y="306" on="1"/>
        <pt x="199" y="413" on="1"/>
        <pt x="210" y="465" on="1"/>
        <pt x="171" y="429" on="1"/>
        <pt x="84" y="366" on="1"/>
        <pt x="53" y="420" on="1"/>
        <pt x="151" y="464" on="1"/>
        <pt x="201" y="480" on="1"/>
        <pt x="151" y="496" on="1"/>
        <pt x="53" y="540" on="1"/>
        <pt x="84" y="593" on="1"/>
        <pt x="171" y="531" on="1"/>
        <pt x="210" y="495" on="1"/>
        <pt x="199" y="547" on="1"/>
        <pt x="188" y="653" on="1"/>
        <pt x="249" y="653" on="1"/>
        <pt x="239" y="547" on="1"/>
        <pt x="227" y="495" on="1"/>
        <pt x="267" y="531" on="1"/>
        <pt x="353" y="593" on="1"/>
        <pt x="384" y="540" on="1"/>
        <pt x="286" y="496" on="1"/>
        <pt x="236" y="480" on="1"/>
        <pt x="286" y="464" on="1"/>
        <pt x="384" y="420" on="1"/>
        <pt x="353" y="366" on="1"/>
        <pt x="267" y="429" on="1"/>
        <pt x="227" y="465" on="1"/>
      </contour>
    </TTGlyph>
    <TTGlyph name="at" xMin="45" yMin="-186" xMax="721" yMax="560">
      <contour>
        <pt x="338" y="-186" on="1"/>
        <pt x="198" y="-186" on="0"/>
        <pt x="45" y="-4" on="0"/>
        <pt x="45" y="140" on="1"/>
        <pt x="45" y="237" on="0"/>
        <pt x="111" y="393" on="0"/>
        <pt x="220" y="501" on="0"/>
        <pt x="365" y="560" on="0"/>
        <pt x="443" y="560" on="1"/>
        <pt x="562" y="560" on="0"/>
        <pt x="721" y="420" on="0"/>
        <pt x="721" y="283" on="1"/>
        <pt x="721" y="210" on="0"/>
        <pt x="676" y="100" on="0"/>
        <pt x="613" y="27" on="0"/>
        <pt x="542" y="-9" on="0"/>
        <pt x="516" y="-9" on="1"/>
        <pt x="483" y="-9" on="0"/>
        <pt x="457" y="42" on="0"/>
        <pt x="457" y="78" on="1"/>
        <pt x="457" y="93" on="0"/>
        <pt x="462" y="135" on="0"/>
        <pt x="466" y="162" on="1"/>
        <pt x="441" y="97" on="0"/>
        <pt x="359" y="-9" on="0"/>
        <pt x="308" y="-9" on="1"/>
        <pt x="264" y="-9" on="0"/>
        <pt x="208" y="74" on="0"/>
        <pt x="208" y="136" on="1"/>
        <pt x="208" y="177" on="0"/>
        <pt x="234" y="263" on="0"/>
        <pt x="284" y="333" on="0"/>
        <pt x="355" y="378" on="0"/>
        <pt x="400" y="378" on="1"/>
        <pt x="422" y="378" on="0"/>
        <pt x="471" y="365" on="0"/>
        <pt x="494" y="353" on="1"/>
        <pt x="507" y="376" on="1"/>
        <pt x="548" y="362" on="1"/>
        <pt x="535" y="300" on="0"/>
        <pt x="512" y="144" on="0"/>
        <pt x="512" y="93" on="1"/>
        <pt x="512" y="59" on="0"/>
        <pt x="524" y="38" on="0"/>
        <pt x="536" y="38" on="1"/>
        <pt x="553" y="38" on="0"/>
        <pt x="601" y="69" on="0"/>
        <pt x="645" y="128" on="0"/>
        <pt x="676" y="216" on="0"/>
        <pt x="676" y="272" on="1"/>
        <pt x="676" y="336" on="0"/>
        <pt x="634" y="429" on="0"/>
        <pt x="564" y="488" on="0"/>
        <pt x="473" y="517" on="0"/>
        <pt x="424" y="517" on="1"/>
        <pt x="359" y="517" on="0"/>
        <pt x="239" y="467" on="0"/>
        <pt x="149" y="374" on="0"/>
        <pt x="95" y="238" on="0"/>
        <pt x="95" y="153" on="1"/>
        <pt x="95" y="10" on="0"/>
        <pt x="240" y="-144" on="0"/>
        <pt x="349" y="-144" on="1"/>
        <pt x="392" y="-144" on="0"/>
        <pt x="487" y="-123" on="0"/>
        <pt x="510" y="-108" on="1"/>
        <pt x="523" y="-133" on="1"/>
        <pt x="495" y="-155" on="0"/>
        <pt x="397" y="-186" on="0"/>
      </contour>
      <contour>
        <pt x="322" y="44" on="1"/>
        <pt x="360" y="44" on="0"/>
        <pt x="433" y="154" on="0"/>
        <pt x="457" y="222" on="1"/>
        <pt x="464" y="244" on="0"/>
        <pt x="475" y="284" on="0"/>
        <pt x="479" y="300" on="1"/>
        <pt x="458" y="318" on="0"/>
        <pt x="408" y="334" on="0"/>
        <pt x="389" y="334" on="1"/>
        <pt x="329" y="334" on="0"/>
        <pt x="267" y="226" on="0"/>
        <pt x="267" y="155" on="1"/>
        <pt x="267" y="111" on="0"/>
        <pt x="293" y="44" on="0"/>
      </contour>
    </TTGlyph>
    <TTGlyph name="atilde" xMin="39" yMin="-8" xMax="410" yMax="573">
      <component glyphName="a" x="0" y="0" flags="0x204"/>
      <component glyphName="tildecomb" x="207" y="0" flags="0x4"/>
    </TTGlyph>
    <TTGlyph name="b" xMin="-4" yMin="-8" xMax="423" yMax="653">
      <contour>
        <pt x="211" y="-8" on="1"/>
        <pt x="165" y="-8" on="0"/>
        <pt x="90" y="13" on="0"/>
        <pt x="72" y="20" on="1"/>
        <pt x="72" y="576" on="1"/>
        <pt x="72" y="586" on="0"/>
        <pt x="62" y="597" on="0"/>
        <pt x="52" y="598" on="1"/>
        <pt x="-4" y="606" on="1"/>
        <pt x="-4" y="633" on="1"/>
        <pt x="26" y="642" on="0"/>
        <pt x="93" y="652" on="0"/>
        <pt x="123" y="653" on="1"/>
        <pt x="132" y="644" on="1"/>
        <pt x="132" y="373" on="1"/>
        <pt x="154" y="395" on="0"/>
        <pt x="215" y="425" on="0"/>
        <pt x="258" y="425" on="1"/>
        <pt x="327" y="425" on="0"/>
        <pt x="423" y="332" on="0"/>
        <pt x="423" y="227" on="1"/>
        <pt x="423" y="120" on="0"/>
        <pt x="314" y="-8" on="0"/>
      </contour>
      <contour>
        <pt x="216" y="29" on="1"/>
        <pt x="284" y="29" on="0"/>
        <pt x="356" y="115" on="0"/>
        <pt x="357" y="208" on="1"/>
        <pt x="358" y="302" on="0"/>
        <pt x="292" y="379" on="0"/>
        <pt x="236" y="379" on="1"/>
        <pt x="204" y="379" on="0"/>
        <pt x="152" y="358" on="0"/>
        <pt x="132" y="340" on="1"/>
        <pt x="132" y="50" on="1"/>
        <pt x="148" y="42" on="0"/>
        <pt x="188" y="29" on="0"/>
      </contour>
    </TTGlyph>
    <TTGlyph name="backslash" xMin="28" yMin="-105" xMax="314" yMax="633">
      <contour>
        <pt x="314" y="-105" on="1"/>
        <pt x="258" y="-105" on="1"/>
        <pt x="28" y="633" on="1"/>
        <pt x="84" y="633" on="1"/>
      </contour>
    </TTGlyph>
    <TTGlyph name="bar" xMin="87" yMin="-108" xMax="140" yMax="687">
      <contour>
        <pt x="87" y="-108" on="1"/>
        <pt x="87" y="687" on="1"/>
        <pt x="140" y="687" on="1"/>
        <pt x="140" y="-108" on="1"/>
      </contour>
    </TTGlyph>
    <TTGlyph name="braceleft" xMin="15" yMin="-145" xMax="300" yMax="723">
      <contour>
        <pt x="300" y="-112" on="1"/>
        <pt x="296" y="-145" on="1"/>
        <pt x="283" y="-145" on="0"/>
        <pt x="255" y="-144" on="0"/>
        <pt x="236" y="-143" on="1"/>
        <pt x="170" y="-140" on="0"/>
        <pt x="107" y="-79" on="0"/>
        <pt x="107" y="-19" on="1"/>
        <pt x="107" y="39" on="0"/>
        <pt x="117" y="131" on="0"/>
        <pt x="117" y="172" on="1"/>
        <pt x="117" y="203" on="0"/>
        <pt x="87" y="254" on="0"/>
        <pt x="15" y="259" on="1"/>
        <pt x="15" y="319" on="1"/>
        <pt x="87" y="324" on="0"/>
        <pt x="117" y="376" on="0"/>
        <pt x="117" y="407" on="1"/>
        <pt x="117" y="447" on="0"/>
        <pt x="107" y="539" on="0"/>
        <pt x="107" y="597" on="1"/>
        <pt x="107" y="657" on="0"/>
        <pt x="170" y="718" on="0"/>
        <pt x="236" y="721" on="1"/>
        <pt x="255" y="722" on="0"/>
        <pt x="283" y="723" on="0"/>
        <pt x="296" y="723" on="1"/>
        <pt x="300" y="691" on="1"/>
        <pt x="249" y="682" on="1"/>
        <pt x="208" y="675" on="0"/>
        <pt x="165" y="633" on="0"/>
        <pt x="165" y="585" on="1"/>
        <pt x="165" y="541" on="0"/>
        <pt x="171" y="440" on="0"/>
        <pt x="171" y="395" on="1"/>
        <pt x="171" y="354" on="0"/>
        <pt x="126" y="304" on="0"/>
        <pt x="75" y="291" on="1"/>
        <pt x="126" y="278" on="0"/>
        <pt x="171" y="224" on="0"/>
        <pt x="171" y="183" on="1"/>
        <pt x="171" y="138" on="0"/>
        <pt x="165" y="37" on="0"/>
        <pt x="165" y="-7" on="1"/>
        <pt x="165" y="-55" on="0"/>
        <pt x="208" y="-97" on="0"/>
        <pt x="249" y="-104" on="1"/>
      </contour>
    </TTGlyph>
    <TTGlyph name="braceright" xMin="18" yMin="-145" xMax="303" yMax="723">
      <contour>
        <pt x="82" y="-143" on="1"/>
        <pt x="63" y="-144" on="0"/>
        <pt x="35" y="-145" on="0"/>
        <pt x="21" y="-145" on="1"/>
        <pt x="18" y="-112" on="1"/>
        <pt x="69" y="-104" on="1"/>
        <pt x="110" y="-97" on="0"/>
        <pt x="152" y="-55" on="0"/>
        <pt x="152" y="-7" on="1"/>
        <pt x="152" y="37" on="0"/>
        <pt x="145" y="138" on="0"/>
        <pt x="145" y="183" on="1"/>
        <pt x="145" y="224" on="0"/>
        <pt x="190" y="275" on="0"/>
        <pt x="241" y="288" on="1"/>
        <pt x="190" y="300" on="0"/>
        <pt x="145" y="354" on="0"/>
        <pt x="145" y="395" on="1"/>
        <pt x="145" y="440" on="0"/>
        <pt x="152" y="541" on="0"/>
        <pt x="152" y="585" on="1"/>
        <pt x="152" y="633" on="0"/>
        <pt x="110" y="675" on="0"/>
        <pt x="69" y="682" on="1"/>
        <pt x="18" y="691" on="1"/>
        <pt x="21" y="723" on="1"/>
        <pt x="35" y="723" on="0"/>
        <pt x="63" y="722" on="0"/>
        <pt x="82" y="721" on="1"/>
        <pt x="147" y="718" on="0"/>
        <pt x="211" y="657" on="0"/>
        <pt x="211" y="597" on="1"/>
        <pt x="211" y="539" on="0"/>
        <pt x="199" y="447" on="0"/>
        <pt x="199" y="407" on="1"/>
        <pt x="199" y="376" on="0"/>
        <pt x="230" y="324" on="0"/>
        <pt x="303" y="319" on="1"/>
        <pt x="303" y="259" on="1"/>
        <pt x="230" y="254" on="0"/>
        <pt x="199" y="203" on="0"/>
        <pt x="199" y="172" on="1"/>
        <pt x="199" y="131" on="0"/>
        <pt x="211" y="39" on="0"/>
        <pt x="211" y="-19" on="1"/>
        <pt x="211" y="-79" on="0"/>
        <pt x="147" y="-140" on="0"/>
      </contour>
    </TTGlyph>
    <TTGlyph name="bracketleft" xMin="87" yMin="-146" xMax="261" yMax="724">
      <contour>
        <pt x="261" y="-136" on="1"/>
        <pt x="224" y="-140" on="0"/>
        <pt x="130" y="-146" on="0"/>
        <pt x="96" y="-145" on="1"/>
        <pt x="87" y="-135" on="1"/>
        <pt x="87" y="713" on="1"/>
        <pt x="96" y="723" on="1"/>
        <pt x="130" y="724" on="0"/>
        <pt x="224" y="718" on="0"/>
        <pt x="261" y="714" on="1"/>
        <pt x="261" y="683" on="1"/>
        <pt x="164" y="675" on="1"/>
        <pt x="154" y="674" on="0"/>
        <pt x="143" y="664" on="0"/>
        <pt x="143" y="653" on="1"/>
        <pt x="143" y="-75" on="1"/>
        <pt x="143" y="-85" on="0"/>
        <pt x="154" y="-96" on="0"/>
        <pt x="164" y="-97" on="1"/>
        <pt x="261" y="-104" on="1"/>
      </contour>
    </TTGlyph>
    <TTGlyph name="bracketright" xMin="23" yMin="-146" xMax="197" yMax="724">
      <contour>
        <pt x="197" y="-135" on="1"/>
        <pt x="188" y="-145" on="1"/>
        <pt x="154" y="-146" on="0"/>
        <pt x="60" y="-140" on="0"/>
        <pt x="23" y="-136" on="1"/>
        <pt x="23" y="-104" on="1"/>
        <pt x="119" y="-97" on="1"/>
        <pt x="129" y="-96" on="0"/>
        <pt x="141" y="-85" on="0"/>
        <pt x="141" y="-75" on="1"/>
        <pt x="141" y="653" on="1"/>
        <pt x="141" y="664" on="0"/>
        <pt x="129" y="674" on="0"/>
        <pt x="119" y="675" on="1"/>
        <pt x="23" y="683" on="1"/>
        <pt x="23" y="714" on="1"/>
        <pt x="60" y="718" on="0"/>
        <pt x="154" y="724" on="0"/>
        <pt x="188" y="723" on="1"/>
        <pt x="197" y="713" on="1"/>
      </contour>
    </TTGlyph>
    <TTGlyph name="breve" xMin="52" yMin="471" xMax="312" yMax="592">
      <component glyphName="uni0306" x="182" y="0" flags="0x4"/>
    </TTGlyph>
    <TTGlyph name="brokenbar" xMin="86" yMin="-108" xMax="139" yMax="687">
      <contour>
        <pt x="86" y="345" on="1"/>
        <pt x="86" y="687" on="1"/>
        <pt x="139" y="687" on="1"/>
        <pt x="139" y="345" on="1"/>
      </contour>
      <contour>
        <pt x="86" y="-108" on="1"/>
        <pt x="86" y="233" on="1"/>
        <pt x="139" y="233" on="1"/>
        <pt x="139" y="-108" on="1"/>
      </contour>
    </TTGlyph>
    <TTGlyph name="bullet" xMin="69" yMin="152" xMax="235" yMax="311">
      <contour>
        <pt x="235" y="231" on="1"/>
        <pt x="235" y="195" on="0"/>
        <pt x="189" y="152" on="0"/>
        <pt x="152" y="152" on="1"/>
        <pt x="115" y="152" on="0"/>
        <pt x="69" y="195" on="0"/>
        <pt x="69" y="231" on="1"/>
        <pt x="69" y="267" on="0"/>
        <pt x="115" y="311" on="0"/>
        <pt x="152" y="311" on="1"/>
        <pt x="189" y="311" on="0"/>
        <pt x="235" y="267" on="0"/>
      </contour>
    </TTGlyph>
    <TTGlyph name="bulletoperator" xMin="112" yMin="171" xMax="216" yMax="275">
      <contour>
        <pt x="216" y="223" on="1"/>
        <pt x="216" y="201" on="0"/>
        <pt x="187" y="171" on="0"/>
        <pt x="164" y="171" on="1"/>
        <pt x="141" y="171" on="0"/>
        <pt x="112" y="201" on="0"/>
        <pt x="112" y="223" on="1"/>
        <pt x="112" y="246" on="0"/>
        <pt x="141" y="275" on="0"/>
        <pt x="164" y="275" on="1"/>
        <pt x="187" y="275" on="0"/>
        <pt x="216" y="246" on="0"/>
      </contour>
    </TTGlyph>
    <TTGlyph name="c" xMin="44" yMin="-8" xMax="368" yMax="425">
      <contour>
        <pt x="44" y="202" on="1"/>
        <pt x="44" y="294" on="0"/>
        <pt x="140" y="425" on="0"/>
        <pt x="241" y="425" on="1"/>
        <pt x="274" y="425" on="0"/>
        <pt x="343" y="410" on="0"/>
        <pt x="364" y="400" on="1"/>
        <pt x="365" y="375" on="0"/>
        <pt x="361" y="311" on="0"/>
        <pt x="357" y="285" on="1"/>
        <pt x="325" y="285" on="1"/>
        <pt x="311" y="341" on="1"/>
        <pt x="309" y="351" on="0"/>
        <pt x="303" y="365" on="0"/>
        <pt x="296" y="371" on="1"/>
        <pt x="286" y="379" on="0"/>
        <pt x="252" y="389" on="0"/>
        <pt x="231" y="389" on="1"/>
        <pt x="173" y="389" on="0"/>
        <pt x="111" y="303" on="0"/>
        <pt x="111" y="219" on="1"/>
        <pt x="111" y="127" on="0"/>
        <pt x="181" y="37" on="0"/>
        <pt x="240" y="37" on="1"/>
        <pt x="274" y="37" on="0"/>
        <pt x="330" y="65" on="0"/>
        <pt x="348" y="85" on="1"/>
        <pt x="368" y="67" on="1"/>
        <pt x="349" y="31" on="0"/>
        <pt x="274" y="-8" on="0"/>
        <pt x="224" y="-8" on="1"/>
        <pt x="137" y="-8" on="0"/>
        <pt x="44" y="110" on="0"/>
      </contour>
    </TTGlyph>
    <TTGlyph name="cacute" xMin="44" yMin="-8" xMax="368" yMax="634">
      <component glyphName="c" x="0" y="0" flags="0x204"/>
      <component glyphName="acutecomb" x="229" y="0" flags="0x4"/>
    </TTGlyph>
    <TTGlyph name="caron" xMin="54" yMin="473" xMax="316" yMax="638">
      <component glyphName="uni030C" x="182" y="0" flags="0x4"/>
    </TTGlyph>
    <TTGlyph name="ccaron" xMin="44" yMin="-8" xMax="368" yMax="638">
      <component glyphName="c" x="0" y="0" flags="0x204"/>
      <component glyphName="uni030C" x="229" y="0" flags="0x4"/>
    </TTGlyph>
    <TTGlyph name="ccedilla" xMin="44" yMin="-187" xMax="368" yMax="425">
      <component glyphName="c" x="0" y="0" flags="0x204"/>
      <component glyphName="uni0327" x="213" y="0" flags="0x4"/>
    </TTGlyph>
    <TTGlyph name="ccircumflex" xMin="44" yMin="-8" xMax="368" yMax="623">
      <component glyphName="c" x="0" y="0" flags="0x204"/>
      <component glyphName="uni0302" x="229" y="0" flags="0x4"/>
    </TTGlyph>
    <TTGlyph name="cdotaccent" xMin="44" yMin="-8" xMax="368" yMax="582">
      <component glyphName="c" x="0" y="0" flags="0x204"/>
      <component glyphName="uni0307" x="229" y="0" flags="0x4"/>
    </TTGlyph>
    <TTGlyph name="cedilla" xMin="115" yMin="-187" xMax="253" yMax="19">
      <component glyphName="uni0327" x="182" y="0" flags="0x4"/>
    </TTGlyph>
    <TTGlyph name="cent" xMin="46" yMin="-76" xMax="380" yMax="512">
      <contour>
        <pt x="379" y="82" on="1"/>
        <pt x="361" y="47" on="0"/>
        <pt x="286" y="8" on="0"/>
        <pt x="243" y="5" on="1"/>
        <pt x="243" y="-76" on="1"/>
        <pt x="196" y="-76" on="1"/>
        <pt x="196" y="6" on="1"/>
        <pt x="126" y="17" on="0"/>
        <pt x="46" y="130" on="0"/>
        <pt x="46" y="215" on="1"/>
        <pt x="46" y="303" on="0"/>
        <pt x="138" y="429" on="0"/>
        <pt x="231" y="436" on="1"/>
        <pt x="231" y="512" on="1"/>
        <pt x="278" y="512" on="1"/>
        <pt x="278" y="436" on="1"/>
        <pt x="308" y="434" on="0"/>
        <pt x="363" y="420" on="0"/>
        <pt x="379" y="412" on="1"/>
        <pt x="380" y="387" on="0"/>
        <pt x="376" y="323" on="0"/>
        <pt x="372" y="297" on="1"/>
        <pt x="340" y="297" on="1"/>
        <pt x="327" y="353" on="1"/>
        <pt x="325" y="363" on="0"/>
        <pt x="318" y="377" on="0"/>
        <pt x="311" y="383" on="1"/>
        <pt x="301" y="391" on="0"/>
        <pt x="264" y="401" on="0"/>
        <pt x="242" y="401" on="1"/>
        <pt x="181" y="401" on="0"/>
        <pt x="113" y="309" on="0"/>
        <pt x="113" y="226" on="1"/>
        <pt x="113" y="141" on="0"/>
        <pt x="183" y="49" on="0"/>
        <pt x="243" y="49" on="1"/>
        <pt x="277" y="49" on="0"/>
        <pt x="340" y="78" on="0"/>
        <pt x="359" y="101" on="1"/>
      </contour>
    </TTGlyph>
    <TTGlyph name="cent.tf" xMin="46" yMin="-76" xMax="380" yMax="512">
      <component glyphName="cent" x="0" y="0" flags="0x204"/>
    </TTGlyph>
    <TTGlyph name="circumflex" xMin="53" yMin="457" xMax="314" yMax="623">
      <component glyphName="uni0302" x="182" y="0" flags="0x4"/>
    </TTGlyph>
    <TTGlyph name="colon" xMin="63" yMin="-8" xMax="157" yMax="396">
      <contour>
        <pt x="157" y="349" on="1"/>
        <pt x="157" y="328" on="0"/>
        <pt x="131" y="301" on="0"/>
        <pt x="110" y="301" on="1"/>
        <pt x="89" y="301" on="0"/>
        <pt x="63" y="328" on="0"/>
        <pt x="63" y="349" on="1"/>
        <pt x="63" y="370" on="0"/>
        <pt x="89" y="396" on="0"/>
        <pt x="110" y="396" on="1"/>
        <pt x="131" y="396" on="0"/>
        <pt x="157" y="370" on="0"/>
      </contour>
      <contour>
        <pt x="157" y="39" on="1"/>
        <pt x="157" y="19" on="0"/>
        <pt x="131" y="-8" on="0"/>
        <pt x="110" y="-8" on="1"/>
        <pt x="89" y="-8" on="0"/>
        <pt x="63" y="19" on="0"/>
        <pt x="63" y="39" on="1"/>
        <pt x="63" y="60" on="0"/>
        <pt x="89" y="87" on="0"/>
        <pt x="110" y="87" on="1"/>
        <pt x="131" y="87" on="0"/>
        <pt x="157" y="60" on="0"/>
      </contour>
    </TTGlyph>
    <TTGlyph name="comma" xMin="45" yMin="-138" xMax="161" yMax="101">
      <contour>
        <pt x="161" y="24" on="1"/>
        <pt x="161" y="-25" on="0"/>
        <pt x="106" y="-111" on="0"/>
        <pt x="60" y="-138" on="1"/>
        <pt x="45" y="-118" on="1"/>
        <pt x="75" y="-93" on="0"/>
        <pt x="105" y="-39" on="0"/>
        <pt x="105" y="-15" on="1"/>
        <pt x="105" y="-2" on="0"/>
        <pt x="95" y="7" on="0"/>
        <pt x="88" y="11" on="1"/>
        <pt x="78" y="17" on="0"/>
        <pt x="60" y="38" on="0"/>
        <pt x="60" y="56" on="1"/>
        <pt x="60" y="74" on="0"/>
        <pt x="85" y="101" on="0"/>
        <pt x="105" y="101" on="1"/>
        <pt x="126" y="101" on="0"/>
        <pt x="161" y="64" on="0"/>
      </contour>
    </TTGlyph>
    <TTGlyph name="copyright" xMin="45" yMin="-37" xMax="682" yMax="606">
      <contour>
        <pt x="45" y="285" on="1"/>
        <pt x="45" y="353" on="0"/>
        <pt x="94" y="471" on="0"/>
        <pt x="179" y="557" on="0"/>
        <pt x="296" y="606" on="0"/>
        <pt x="364" y="606" on="1"/>
        <pt x="432" y="606" on="0"/>
        <pt x="548" y="557" on="0"/>
        <pt x="633" y="471" on="0"/>
        <pt x="682" y="353" on="0"/>
        <pt x="682" y="285" on="1"/>
        <pt x="682" y="217" on="0"/>
        <pt x="633" y="98" on="0"/>
        <pt x="548" y="12" on="0"/>
        <pt x="432" y="-37" on="0"/>
        <pt x="364" y="-37" on="1"/>
        <pt x="296" y="-37" on="0"/>
        <pt x="179" y="12" on="0"/>
        <pt x="94" y="98" on="0"/>
        <pt x="45" y="217" on="0"/>
      </contour>
      <contour>
        <pt x="87" y="285" on="1"/>
        <pt x="87" y="162" on="0"/>
        <pt x="244" y="0" on="0"/>
        <pt x="364" y="0" on="1"/>
        <pt x="483" y="0" on="0"/>
        <pt x="641" y="162" on="0"/>
        <pt x="641" y="285" on="1"/>
        <pt x="641" y="409" on="0"/>
        <pt x="483" y="571" on="0"/>
        <pt x="364" y="571" on="1"/>
        <pt x="244" y="571" on="0"/>
        <pt x="87" y="409" on="0"/>
      </contour>
      <contour>
        <pt x="362" y="107" on="1"/>
        <pt x="288" y="107" on="0"/>
        <pt x="207" y="206" on="0"/>
        <pt x="207" y="282" on="1"/>
        <pt x="207" y="367" on="0"/>
        <pt x="301" y="465" on="0"/>
        <pt x="378" y="465" on="1"/>
        <pt x="412" y="465" on="0"/>
        <pt x="474" y="448" on="0"/>
        <pt x="487" y="439" on="1"/>
        <pt x="488" y="417" on="0"/>
        <pt x="484" y="368" on="0"/>
        <pt x="480" y="343" on="1"/>
        <pt x="447" y="343" on="1"/>
        <pt x="435" y="392" on="1"/>
        <pt x="434" y="398" on="0"/>
        <pt x="428" y="410" on="0"/>
        <pt x="419" y="416" on="1"/>
        <pt x="409" y="423" on="0"/>
        <pt x="380" y="430" on="0"/>
        <pt x="365" y="430" on="1"/>
        <pt x="315" y="430" on="0"/>
        <pt x="266" y="355" on="0"/>
        <pt x="266" y="293" on="1"/>
        <pt x="266" y="227" on="0"/>
        <pt x="322" y="153" on="0"/>
        <pt x="376" y="153" on="1"/>
        <pt x="405" y="153" on="0"/>
        <pt x="456" y="173" on="0"/>
        <pt x="471" y="190" on="1"/>
        <pt x="489" y="171" on="1"/>
        <pt x="473" y="144" on="0"/>
        <pt x="408" y="107" on="0"/>
      </contour>
    </TTGlyph>
    <TTGlyph name="currency" xMin="54" yMin="69" xMax="460" yMax="493">
      <contour>
        <pt x="256" y="165" on="1"/>
        <pt x="310" y="165" on="0"/>
        <pt x="364" y="233" on="0"/>
        <pt x="364" y="280" on="1"/>
        <pt x="364" y="327" on="0"/>
        <pt x="300" y="397" on="0"/>
        <pt x="254" y="397" on="1"/>
        <pt x="202" y="397" on="0"/>
        <pt x="148" y="325" on="0"/>
        <pt x="148" y="279" on="1"/>
        <pt x="148" y="231" on="0"/>
        <pt x="211" y="165" on="0"/>
      </contour>
      <contour>
        <pt x="256" y="120" on="1"/>
        <pt x="231" y="120" on="0"/>
        <pt x="187" y="133" on="0"/>
        <pt x="168" y="146" on="1"/>
        <pt x="91" y="69" on="1"/>
        <pt x="54" y="107" on="1"/>
        <pt x="129" y="183" on="1"/>
        <pt x="116" y="202" on="0"/>
        <pt x="100" y="250" on="0"/>
        <pt x="100" y="277" on="1"/>
        <pt x="100" y="305" on="0"/>
        <pt x="116" y="356" on="0"/>
        <pt x="131" y="377" on="1"/>
        <pt x="54" y="455" on="1"/>
        <pt x="91" y="492" on="1"/>
        <pt x="169" y="414" on="1"/>
        <pt x="187" y="427" on="0"/>
        <pt x="231" y="442" on="0"/>
        <pt x="256" y="442" on="1"/>
        <pt x="281" y="442" on="0"/>
        <pt x="326" y="429" on="0"/>
        <pt x="345" y="417" on="1"/>
        <pt x="422" y="493" on="1"/>
        <pt x="460" y="455" on="1"/>
        <pt x="385" y="380" on="1"/>
        <pt x="399" y="361" on="0"/>
        <pt x="416" y="312" on="0"/>
        <pt x="416" y="285" on="1"/>
        <pt x="416" y="257" on="0"/>
        <pt x="399" y="206" on="0"/>
        <pt x="383" y="185" on="1"/>
        <pt x="459" y="108" on="1"/>
        <pt x="421" y="71" on="1"/>
        <pt x="344" y="147" on="1"/>
        <pt x="325" y="134" on="0"/>
        <pt x="281" y="120" on="0"/>
      </contour>
    </TTGlyph>
    <TTGlyph name="d" xMin="45" yMin="-8" xMax="462" yMax="653">
      <contour>
        <pt x="231" y="39" on="1"/>
        <pt x="262" y="39" on="0"/>
        <pt x="315" y="61" on="0"/>
        <pt x="336" y="80" on="1"/>
        <pt x="336" y="365" on="1"/>
        <pt x="322" y="374" on="0"/>
        <pt x="274" y="387" on="0"/>
        <pt x="247" y="387" on="1"/>
        <pt x="192" y="387" on="0"/>
        <pt x="111" y="310" on="0"/>
        <pt x="111" y="207" on="1"/>
        <pt x="111" y="107" on="0"/>
        <pt x="185" y="39" on="0"/>
      </contour>
      <contour>
        <pt x="398" y="-6" on="1"/>
        <pt x="370" y="-6" on="0"/>
        <pt x="342" y="28" on="0"/>
        <pt x="338" y="50" on="1"/>
        <pt x="317" y="26" on="0"/>
        <pt x="252" y="-8" on="0"/>
        <pt x="208" y="-8" on="1"/>
        <pt x="143" y="-8" on="0"/>
        <pt x="45" y="88" on="0"/>
        <pt x="45" y="196" on="1"/>
        <pt x="45" y="313" on="0"/>
        <pt x="164" y="425" on="0"/>
        <pt x="256" y="425" on="1"/>
        <pt x="278" y="425" on="0"/>
        <pt x="320" y="419" on="0"/>
        <pt x="336" y="415" on="1"/>
        <pt x="336" y="576" on="1"/>
        <pt x="336" y="586" on="0"/>
        <pt x="326" y="597" on="0"/>
        <pt x="316" y="598" on="1"/>
        <pt x="258" y="606" on="1"/>
        <pt x="258" y="633" on="1"/>
        <pt x="286" y="643" on="0"/>
        <pt x="359" y="652" on="0"/>
        <pt x="387" y="653" on="1"/>
        <pt x="396" y="643" on="1"/>
        <pt x="396" y="64" on="1"/>
        <pt x="396" y="51" on="0"/>
        <pt x="408" y="41" on="0"/>
        <pt x="418" y="40" on="1"/>
        <pt x="462" y="36" on="1"/>
        <pt x="462" y="7" on="1"/>
        <pt x="450" y="3" on="0"/>
        <pt x="413" y="-6" on="0"/>
      </contour>
    </TTGlyph>
    <TTGlyph name="dagger" xMin="30" yMin="-89" xMax="315" yMax="604">
      <contour>
        <pt x="189" y="-89" on="1"/>
        <pt x="156" y="-89" on="1"/>
        <pt x="144" y="379" on="1"/>
        <pt x="142" y="387" on="0"/>
        <pt x="130" y="394" on="0"/>
        <pt x="120" y="396" on="1"/>
        <pt x="30" y="414" on="1"/>
        <pt x="30" y="451" on="1"/>
        <pt x="142" y="447" on="1"/>
        <pt x="139" y="548" on="1"/>
        <pt x="139" y="604" on="1"/>
        <pt x="206" y="604" on="1"/>
        <pt x="206" y="548" on="1"/>
        <pt x="203" y="447" on="1"/>
        <pt x="315" y="451" on="1"/>
        <pt x="315" y="414" on="1"/>
        <pt x="225" y="396" on="1"/>
        <pt x="214" y="394" on="0"/>
        <pt x="202" y="386" on="0"/>
        <pt x="201" y="378" on="1"/>
      </contour>
    </TTGlyph>
    <TTGlyph name="daggerdbl" xMin="37" yMin="-90" xMax="323" yMax="604">
      <contour>
        <pt x="196" y="-90" on="1"/>
        <pt x="164" y="-89" on="1"/>
        <pt x="156" y="195" on="1"/>
        <pt x="155" y="205" on="0"/>
        <pt x="144" y="214" on="0"/>
        <pt x="132" y="216" on="1"/>
        <pt x="37" y="234" on="1"/>
        <pt x="37" y="271" on="1"/>
        <pt x="154" y="267" on="1"/>
        <pt x="151" y="376" on="1"/>
        <pt x="150" y="386" on="0"/>
        <pt x="138" y="394" on="0"/>
        <pt x="127" y="396" on="1"/>
        <pt x="37" y="414" on="1"/>
        <pt x="37" y="451" on="1"/>
        <pt x="149" y="447" on="1"/>
        <pt x="146" y="548" on="1"/>
        <pt x="146" y="604" on="1"/>
        <pt x="214" y="604" on="1"/>
        <pt x="214" y="548" on="1"/>
        <pt x="211" y="447" on="1"/>
        <pt x="323" y="451" on="1"/>
        <pt x="323" y="414" on="1"/>
        <pt x="232" y="396" on="1"/>
        <pt x="221" y="394" on="0"/>
        <pt x="210" y="386" on="0"/>
        <pt x="209" y="376" on="1"/>
        <pt x="206" y="267" on="1"/>
        <pt x="323" y="271" on="1"/>
        <pt x="323" y="234" on="1"/>
        <pt x="228" y="216" on="1"/>
        <pt x="216" y="214" on="0"/>
        <pt x="205" y="205" on="0"/>
        <pt x="204" y="195" on="1"/>
      </contour>
    </TTGlyph>
    <TTGlyph name="dcaron" xMin="45" yMin="-8" xMax="528" yMax="683">
      <component glyphName="d" x="0" y="0" flags="0x204"/>
      <component glyphName="uni030C.calt" x="396" y="0" flags="0x4"/>
    </TTGlyph>
    <TTGlyph name="dcroat" xMin="45" yMin="-8" xMax="462" yMax="653">
      <contour>
        <pt x="231" y="39" on="1"/>
        <pt x="262" y="39" on="0"/>
        <pt x="315" y="61" on="0"/>
        <pt x="336" y="80" on="1"/>
        <pt x="336" y="354" on="1"/>
        <pt x="322" y="363" on="0"/>
        <pt x="274" y="376" on="0"/>
        <pt x="247" y="376" on="1"/>
        <pt x="192" y="376" on="0"/>
        <pt x="111" y="302" on="0"/>
        <pt x="111" y="203" on="1"/>
        <pt x="111" y="106" on="0"/>
        <pt x="185" y="39" on="0"/>
      </contour>
      <contour>
        <pt x="398" y="-6" on="1"/>
        <pt x="370" y="-6" on="0"/>
        <pt x="342" y="28" on="0"/>
        <pt x="338" y="50" on="1"/>
        <pt x="317" y="26" on="0"/>
        <pt x="252" y="-8" on="0"/>
        <pt x="208" y="-8" on="1"/>
        <pt x="143" y="-8" on="0"/>
        <pt x="45" y="85" on="0"/>
        <pt x="45" y="192" on="1"/>
        <pt x="45" y="305" on="0"/>
        <pt x="164" y="414" on="0"/>
        <pt x="256" y="414" on="1"/>
        <pt x="278" y="414" on="0"/>
        <pt x="320" y="408" on="0"/>
        <pt x="336" y="404" on="1"/>
        <pt x="336" y="485" on="1"/>
        <pt x="204" y="485" on="1"/>
        <pt x="204" y="524" on="1"/>
        <pt x="336" y="524" on="1"/>
        <pt x="336" y="576" on="1"/>
        <pt x="336" y="586" on="0"/>
        <pt x="326" y="597" on="0"/>
        <pt x="316" y="598" on="1"/>
        <pt x="258" y="606" on="1"/>
        <pt x="258" y="633" on="1"/>
        <pt x="286" y="643" on="0"/>
        <pt x="359" y="652" on="0"/>
        <pt x="387" y="653" on="1"/>
        <pt x="396" y="643" on="1"/>
        <pt x="396" y="524" on="1"/>
        <pt x="448" y="524" on="1"/>
        <pt x="448" y="485" on="1"/>
        <pt x="396" y="485" on="1"/>
        <pt x="396" y="64" on="1"/>
        <pt x="396" y="51" on="0"/>
        <pt x="408" y="41" on="0"/>
        <pt x="418" y="40" on="1"/>
        <pt x="462" y="36" on="1"/>
        <pt x="462" y="7" on="1"/>
        <pt x="450" y="3" on="0"/>
        <pt x="413" y="-6" on="0"/>
      </contour>
    </TTGlyph>
    <TTGlyph name="degree" xMin="44" yMin="346" xMax="294" yMax="594">
      <contour>
        <pt x="168" y="346" on="1"/>
        <pt x="117" y="346" on="0"/>
        <pt x="44" y="419" on="0"/>
        <pt x="44" y="470" on="1"/>
        <pt x="44" y="523" on="0"/>
        <pt x="117" y="594" on="0"/>
        <pt x="168" y="594" on="1"/>
        <pt x="222" y="594" on="0"/>
        <pt x="294" y="521" on="0"/>
        <pt x="294" y="470" on="1"/>
        <pt x="294" y="417" on="0"/>
        <pt x="220" y="346" on="0"/>
      </contour>
      <contour>
        <pt x="169" y="387" on="1"/>
        <pt x="205" y="387" on="0"/>
        <pt x="250" y="433" on="0"/>
        <pt x="250" y="470" on="1"/>
        <pt x="250" y="504" on="0"/>
        <pt x="203" y="553" on="0"/>
        <pt x="168" y="553" on="1"/>
        <pt x="133" y="553" on="0"/>
        <pt x="87" y="506" on="0"/>
        <pt x="87" y="470" on="1"/>
        <pt x="87" y="436" on="0"/>
        <pt x="135" y="387" on="0"/>
      </contour>
    </TTGlyph>
    <TTGlyph name="dieresis" xMin="61" yMin="486" xMax="302" yMax="573">
      <component glyphName="uni0308" x="182" y="0" flags="0x4"/>
    </TTGlyph>
    <TTGlyph name="divide" xMin="63" yMin="56" xMax="392" yMax="391">
      <contour>
        <pt x="268" y="351" on="1"/>
        <pt x="268" y="333" on="0"/>
        <pt x="245" y="310" on="0"/>
        <pt x="227" y="310" on="1"/>
        <pt x="209" y="310" on="0"/>
        <pt x="187" y="333" on="0"/>
        <pt x="187" y="351" on="1"/>
        <pt x="187" y="369" on="0"/>
        <pt x="209" y="391" on="0"/>
        <pt x="227" y="391" on="1"/>
        <pt x="245" y="391" on="0"/>
        <pt x="268" y="369" on="0"/>
      </contour>
      <contour>
        <pt x="392" y="200" on="1"/>
        <pt x="63" y="200" on="1"/>
        <pt x="63" y="247" on="1"/>
        <pt x="392" y="247" on="1"/>
      </contour>
      <contour>
        <pt x="268" y="96" on="1"/>
        <pt x="268" y="79" on="0"/>
        <pt x="245" y="56" on="0"/>
        <pt x="227" y="56" on="1"/>
        <pt x="209" y="56" on="0"/>
        <pt x="187" y="79" on="0"/>
        <pt x="187" y="96" on="1"/>
        <pt x="187" y="114" on="0"/>
        <pt x="209" y="137" on="0"/>
        <pt x="227" y="137" on="1"/>
        <pt x="245" y="137" on="0"/>
        <pt x="268" y="114" on="0"/>
      </contour>
    </TTGlyph>
    <TTGlyph name="dollar" xMin="44" yMin="-76" xMax="378" yMax="576">
      <contour>
        <pt x="223" y="-76" on="1"/>
        <pt x="176" y="-76" on="1"/>
        <pt x="176" y="7" on="1"/>
        <pt x="133" y="11" on="0"/>
        <pt x="64" y="35" on="0"/>
        <pt x="45" y="48" on="1"/>
        <pt x="44" y="76" on="0"/>
        <pt x="47" y="134" on="0"/>
        <pt x="51" y="165" on="1"/>
        <pt x="91" y="165" on="1"/>
        <pt x="102" y="99" on="1"/>
        <pt x="103" y="95" on="0"/>
        <pt x="108" y="84" on="0"/>
        <pt x="113" y="79" on="1"/>
        <pt x="125" y="66" on="0"/>
        <pt x="177" y="42" on="0"/>
        <pt x="213" y="42" on="1"/>
        <pt x="262" y="42" on="0"/>
        <pt x="315" y="90" on="0"/>
        <pt x="315" y="125" on="1"/>
        <pt x="315" y="161" on="0"/>
        <pt x="257" y="203" on="0"/>
        <pt x="200" y="229" on="1"/>
        <pt x="149" y="251" on="0"/>
        <pt x="56" y="313" on="0"/>
        <pt x="56" y="372" on="1"/>
        <pt x="56" y="421" on="0"/>
        <pt x="129" y="489" on="0"/>
        <pt x="198" y="494" on="1"/>
        <pt x="198" y="576" on="1"/>
        <pt x="245" y="576" on="1"/>
        <pt x="245" y="494" on="1"/>
        <pt x="274" y="492" on="0"/>
        <pt x="330" y="479" on="0"/>
        <pt x="350" y="469" on="1"/>
        <pt x="352" y="438" on="0"/>
        <pt x="350" y="383" on="0"/>
        <pt x="346" y="357" on="1"/>
        <pt x="308" y="356" on="1"/>
        <pt x="296" y="415" on="1"/>
        <pt x="295" y="419" on="0"/>
        <pt x="289" y="429" on="0"/>
        <pt x="282" y="435" on="1"/>
        <pt x="272" y="444" on="0"/>
        <pt x="231" y="459" on="0"/>
        <pt x="203" y="459" on="1"/>
        <pt x="157" y="459" on="0"/>
        <pt x="113" y="418" on="0"/>
        <pt x="113" y="388" on="1"/>
        <pt x="113" y="351" on="0"/>
        <pt x="176" y="309" on="0"/>
        <pt x="234" y="283" on="1"/>
        <pt x="296" y="254" on="0"/>
        <pt x="378" y="193" on="0"/>
        <pt x="378" y="142" on="1"/>
        <pt x="378" y="95" on="0"/>
        <pt x="300" y="13" on="0"/>
        <pt x="223" y="7" on="1"/>
      </contour>
    </TTGlyph>
    <TTGlyph name="dollar.tf" xMin="50" yMin="-76" xMax="384" yMax="576">
      <component glyphName="dollar" x="6" y="0" flags="0x4"/>
    </TTGlyph>
    <TTGlyph name="dotaccent" xMin="141" yMin="486" xMax="237" yMax="582">
      <component glyphName="uni0307" x="182" y="0" flags="0x4"/>
    </TTGlyph>
    <TTGlyph name="dotlessi" xMin="32" yMin="0" xMax="232" yMax="422">
      <contour>
        <pt x="165" y="412" on="1"/>
        <pt x="165" y="63" on="1"/>
        <pt x="165" y="53" on="0"/>
        <pt x="176" y="40" on="0"/>
        <pt x="186" y="39" on="1"/>
        <pt x="232" y="32" on="1"/>
        <pt x="232" y="0" on="1"/>
        <pt x="38" y="0" on="1"/>
        <pt x="38" y="32" on="1"/>
        <pt x="84" y="39" on="1"/>
        <pt x="94" y="40" on="0"/>
        <pt x="105" y="52" on="0"/>
        <pt x="105" y="62" on="1"/>
        <pt x="105" y="344" on="1"/>
        <pt x="105" y="354" on="0"/>
        <pt x="95" y="366" on="0"/>
        <pt x="85" y="367" on="1"/>
        <pt x="32" y="373" on="1"/>
        <pt x="32" y="403" on="1"/>
        <pt x="61" y="413" on="0"/>
        <pt x="127" y="421" on="0"/>
        <pt x="156" y="422" on="1"/>
      </contour>
    </TTGlyph>
    <TTGlyph name="dotlessiogonek" xMin="32" yMin="-187" xMax="232" yMax="422">
      <contour>
        <pt x="216" y="-160" on="1"/>
        <pt x="200" y="-172" on="0"/>
        <pt x="151" y="-187" on="0"/>
        <pt x="126" y="-187" on="1"/>
        <pt x="91" y="-187" on="0"/>
        <pt x="39" y="-154" on="0"/>
        <pt x="39" y="-119" on="1"/>
        <pt x="39" y="-81" on="0"/>
        <pt x="101" y="-19" on="0"/>
        <pt x="139" y="-2" on="1"/>
        <pt x="139" y="0" on="1"/>
        <pt x="38" y="0" on="1"/>
        <pt x="38" y="32" on="1"/>
        <pt x="84" y="39" on="1"/>
        <pt x="94" y="40" on="0"/>
        <pt x="105" y="52" on="0"/>
        <pt x="105" y="62" on="1"/>
        <pt x="105" y="344" on="1"/>
        <pt x="105" y="354" on="0"/>
        <pt x="95" y="366" on="0"/>
        <pt x="85" y="367" on="1"/>
        <pt x="32" y="373" on="1"/>
        <pt x="32" y="403" on="1"/>
        <pt x="61" y="413" on="0"/>
        <pt x="127" y="421" on="0"/>
        <pt x="156" y="422" on="1"/>
        <pt x="165" y="412" on="1"/>
        <pt x="165" y="63" on="1"/>
        <pt x="165" y="53" on="0"/>
        <pt x="176" y="40" on="0"/>
        <pt x="186" y="39" on="1"/>
        <pt x="232" y="32" on="1"/>
        <pt x="232" y="0" on="1"/>
        <pt x="194" y="0" on="1"/>
        <pt x="154" y="-16" on="0"/>
        <pt x="98" y="-71" on="0"/>
        <pt x="98" y="-101" on="1"/>
        <pt x="98" y="-123" on="0"/>
        <pt x="128" y="-145" on="0"/>
        <pt x="151" y="-145" on="1"/>
        <pt x="163" y="-145" on="0"/>
        <pt x="191" y="-139" on="0"/>
        <pt x="204" y="-133" on="1"/>
      </contour>
    </TTGlyph>
    <TTGlyph name="dotlessj" xMin="-13" yMin="-193" xMax="156" yMax="422">
      <contour>
        <pt x="147" y="422" on="1"/>
        <pt x="156" y="412" on="1"/>
        <pt x="156" y="46" on="1"/>
        <pt x="156" y="-35" on="0"/>
        <pt x="133" y="-111" on="0"/>
        <pt x="101" y="-139" on="1"/>
        <pt x="80" y="-157" on="0"/>
        <pt x="28" y="-183" on="0"/>
        <pt x="3" y="-193" on="1"/>
        <pt x="-13" y="-164" on="1"/>
        <pt x="53" y="-119" on="0"/>
        <pt x="96" y="-36" on="0"/>
        <pt x="96" y="49" on="1"/>
        <pt x="96" y="344" on="1"/>
        <pt x="96" y="354" on="0"/>
        <pt x="86" y="366" on="0"/>
        <pt x="76" y="367" on="1"/>
        <pt x="24" y="373" on="1"/>
        <pt x="24" y="403" on="1"/>
        <pt x="52" y="413" on="0"/>
        <pt x="119" y="421" on="0"/>
      </contour>
    </TTGlyph>
    <TTGlyph name="e" xMin="44" yMin="-8" xMax="382" yMax="425">
      <contour>
        <pt x="223" y="388" on="1"/>
        <pt x="179" y="388" on="0"/>
        <pt x="120" y="329" on="0"/>
        <pt x="112" y="268" on="1"/>
        <pt x="317" y="268" on="1"/>
        <pt x="318" y="273" on="0"/>
        <pt x="319" y="281" on="0"/>
        <pt x="319" y="286" on="1"/>
        <pt x="319" y="332" on="0"/>
        <pt x="268" y="388" on="0"/>
      </contour>
      <contour>
        <pt x="381" y="90" on="1"/>
        <pt x="368" y="47" on="0"/>
        <pt x="285" y="-8" on="0"/>
        <pt x="224" y="-8" on="1"/>
        <pt x="134" y="-8" on="0"/>
        <pt x="44" y="112" on="0"/>
        <pt x="44" y="202" on="1"/>
        <pt x="44" y="305" on="0"/>
        <pt x="150" y="425" on="0"/>
        <pt x="235" y="425" on="1"/>
        <pt x="295" y="425" on="0"/>
        <pt x="382" y="354" on="0"/>
        <pt x="382" y="281" on="1"/>
        <pt x="382" y="272" on="0"/>
        <pt x="380" y="244" on="0"/>
        <pt x="379" y="233" on="1"/>
        <pt x="109" y="233" on="1"/>
        <pt x="109" y="229" on="0"/>
        <pt x="109" y="222" on="0"/>
        <pt x="109" y="218" on="1"/>
        <pt x="109" y="114" on="0"/>
        <pt x="188" y="37" on="0"/>
        <pt x="239" y="37" on="1"/>
        <pt x="276" y="37" on="0"/>
        <pt x="339" y="73" on="0"/>
        <pt x="356" y="103" on="1"/>
      </contour>
    </TTGlyph>
    <TTGlyph name="eacute" xMin="44" yMin="-8" xMax="382" yMax="634">
      <component glyphName="e" x="0" y="0" flags="0x204"/>
      <component glyphName="acutecomb" x="225" y="0" flags="0x4"/>
    </TTGlyph>
    <TTGlyph name="ebreve" xMin="44" yMin="-8" xMax="382" yMax="592">
      <component glyphName="e" x="0" y="0" flags="0x204"/>
      <component glyphName="uni0306" x="225" y="0" flags="0x4"/>
    </TTGlyph>
    <TTGlyph name="ecaron" xMin="44" yMin="-8" xMax="382" yMax="638">
      <component glyphName="e" x="0" y="0" flags="0x204"/>
      <component glyphName="uni030C" x="225" y="0" flags="0x4"/>
    </TTGlyph>
    <TTGlyph name="ecircumflex" xMin="44" yMin="-8" xMax="382" yMax="623">
      <component glyphName="e" x="0" y="0" flags="0x204"/>
      <component glyphName="uni0302" x="225" y="0" flags="0x4"/>
    </TTGlyph>
    <TTGlyph name="edieresis" xMin="44" yMin="-8" xMax="382" yMax="573">
      <component glyphName="e" x="0" y="0" flags="0x204"/>
      <component glyphName="uni0308" x="225" y="0" flags="0x4"/>
    </TTGlyph>
    <TTGlyph name="edotaccent" xMin="44" yMin="-8" xMax="382" yMax="582">
      <component glyphName="e" x="0" y="0" flags="0x204"/>
      <component glyphName="uni0307" x="225" y="0" flags="0x4"/>
    </TTGlyph>
    <TTGlyph name="egrave" xMin="44" yMin="-8" xMax="382" yMax="634">
      <component glyphName="e" x="0" y="0" flags="0x204"/>
      <component glyphName="gravecomb" x="225" y="0" flags="0x4"/>
    </TTGlyph>
    <TTGlyph name="eight" xMin="48" yMin="-8" xMax="409" yMax="508">
      <contour>
        <pt x="227" y="-8" on="1"/>
        <pt x="153" y="-8" on="0"/>
        <pt x="48" y="63" on="0"/>
        <pt x="48" y="126" on="1"/>
        <pt x="48" y="172" on="0"/>
        <pt x="106" y="244" on="0"/>
        <pt x="157" y="261" on="1"/>
        <pt x="123" y="281" on="0"/>
        <pt x="75" y="340" on="0"/>
        <pt x="75" y="381" on="1"/>
        <pt x="75" y="437" on="0"/>
        <pt x="166" y="508" on="0"/>
        <pt x="234" y="508" on="1"/>
        <pt x="300" y="508" on="0"/>
        <pt x="389" y="443" on="0"/>
        <pt x="389" y="392" on="1"/>
        <pt x="389" y="351" on="0"/>
        <pt x="331" y="281" on="0"/>
        <pt x="288" y="265" on="1"/>
        <pt x="339" y="240" on="0"/>
        <pt x="409" y="180" on="0"/>
        <pt x="409" y="129" on="1"/>
        <pt x="409" y="67" on="0"/>
        <pt x="305" y="-8" on="0"/>
      </contour>
      <contour>
        <pt x="249" y="284" on="1"/>
        <pt x="252" y="283" on="1"/>
        <pt x="289" y="301" on="0"/>
        <pt x="328" y="352" on="0"/>
        <pt x="328" y="385" on="1"/>
        <pt x="328" y="425" on="0"/>
        <pt x="274" y="472" on="0"/>
        <pt x="229" y="472" on="1"/>
        <pt x="183" y="472" on="0"/>
        <pt x="133" y="426" on="0"/>
        <pt x="133" y="394" on="1"/>
        <pt x="133" y="354" on="0"/>
        <pt x="201" y="306" on="0"/>
      </contour>
      <contour>
        <pt x="233" y="29" on="1"/>
        <pt x="283" y="29" on="0"/>
        <pt x="343" y="77" on="0"/>
        <pt x="343" y="117" on="1"/>
        <pt x="343" y="163" on="0"/>
        <pt x="272" y="207" on="0"/>
        <pt x="227" y="226" on="1"/>
        <pt x="217" y="230" on="0"/>
        <pt x="198" y="239" on="0"/>
        <pt x="189" y="244" on="1"/>
        <pt x="149" y="224" on="0"/>
        <pt x="113" y="166" on="0"/>
        <pt x="113" y="132" on="1"/>
        <pt x="113" y="80" on="0"/>
        <pt x="184" y="29" on="0"/>
      </contour>
    </TTGlyph>
    <TTGlyph name="eight.tf" xMin="33" yMin="-8" xMax="394" yMax="508">
      <component glyphName="eight" x="-15" y="0" flags="0x4"/>
    </TTGlyph>
    <TTGlyph name="ellipsis" xMin="56" yMin="-8" xMax="562" yMax="87">
      <contour>
        <pt x="150" y="39" on="1"/>
        <pt x="150" y="19" on="0"/>
        <pt x="124" y="-8" on="0"/>
        <pt x="103" y="-8" on="1"/>
        <pt x="82" y="-8" on="0"/>
        <pt x="56" y="19" on="0"/>
        <pt x="56" y="39" on="1"/>
        <pt x="56" y="60" on="0"/>
        <pt x="82" y="87" on="0"/>
        <pt x="103" y="87" on="1"/>
        <pt x="124" y="87" on="0"/>
        <pt x="150" y="60" on="0"/>
      </contour>
      <contour>
        <pt x="562" y="39" on="1"/>
        <pt x="562" y="19" on="0"/>
        <pt x="536" y="-8" on="0"/>
        <pt x="515" y="-8" on="1"/>
        <pt x="494" y="-8" on="0"/>
        <pt x="467" y="19" on="0"/>
        <pt x="467" y="39" on="1"/>
        <pt x="467" y="60" on="0"/>
        <pt x="494" y="87" on="0"/>
        <pt x="515" y="87" on="1"/>
        <pt x="536" y="87" on="0"/>
        <pt x="562" y="60" on="0"/>
      </contour>
      <contour>
        <pt x="356" y="39" on="1"/>
        <pt x="356" y="19" on="0"/>
        <pt x="330" y="-8" on="0"/>
        <pt x="309" y="-8" on="1"/>
        <pt x="288" y="-8" on="0"/>
        <pt x="261" y="19" on="0"/>
        <pt x="261" y="39" on="1"/>
        <pt x="261" y="60" on="0"/>
        <pt x="288" y="87" on="0"/>
        <pt x="309" y="87" on="1"/>
        <pt x="330" y="87" on="0"/>
        <pt x="356" y="60" on="0"/>
      </contour>
    </TTGlyph>
    <TTGlyph name="emacron" xMin="44" yMin="-8" xMax="382" yMax="541">
      <component glyphName="e" x="0" y="0" flags="0x204"/>
      <component glyphName="uni0304" x="225" y="0" flags="0x4"/>
    </TTGlyph>
    <TTGlyph name="emdash" xMin="63" yMin="194" xMax="746" yMax="239">
      <contour>
        <pt x="63" y="194" on="1"/>
        <pt x="63" y="239" on="1"/>
        <pt x="746" y="239" on="1"/>
        <pt x="746" y="194" on="1"/>
      </contour>
    </TTGlyph>
    <TTGlyph name="endash" xMin="63" yMin="193" xMax="484" yMax="239">
      <contour>
        <pt x="63" y="193" on="1"/>
        <pt x="63" y="239" on="1"/>
        <pt x="484" y="239" on="1"/>
        <pt x="484" y="193" on="1"/>
      </contour>
    </TTGlyph>
    <TTGlyph name="eng" xMin="32" yMin="-180" xMax="435" yMax="423">
      <contour>
        <pt x="309" y="-180" on="1"/>
        <pt x="300" y="-180" on="0"/>
        <pt x="281" y="-180" on="0"/>
        <pt x="271" y="-179" on="1"/>
        <pt x="268" y="-146" on="1"/>
        <pt x="287" y="-142" on="0"/>
        <pt x="333" y="-130" on="0"/>
        <pt x="348" y="-114" on="1"/>
        <pt x="363" y="-98" on="0"/>
        <pt x="375" y="-33" on="0"/>
        <pt x="375" y="21" on="1"/>
        <pt x="375" y="249" on="1"/>
        <pt x="375" y="313" on="0"/>
        <pt x="340" y="377" on="0"/>
        <pt x="286" y="377" on="1"/>
        <pt x="255" y="377" on="0"/>
        <pt x="191" y="356" on="0"/>
        <pt x="165" y="335" on="1"/>
        <pt x="165" y="62" on="1"/>
        <pt x="165" y="52" on="0"/>
        <pt x="175" y="40" on="0"/>
        <pt x="185" y="39" on="1"/>
        <pt x="231" y="32" on="1"/>
        <pt x="231" y="0" on="1"/>
        <pt x="38" y="0" on="1"/>
        <pt x="38" y="32" on="1"/>
        <pt x="84" y="39" on="1"/>
        <pt x="94" y="40" on="0"/>
        <pt x="105" y="52" on="0"/>
        <pt x="105" y="62" on="1"/>
        <pt x="105" y="344" on="1"/>
        <pt x="105" y="354" on="0"/>
        <pt x="95" y="366" on="0"/>
        <pt x="85" y="367" on="1"/>
        <pt x="32" y="373" on="1"/>
        <pt x="32" y="403" on="1"/>
        <pt x="59" y="412" on="0"/>
        <pt x="121" y="421" on="0"/>
        <pt x="147" y="422" on="1"/>
        <pt x="159" y="411" on="1"/>
        <pt x="163" y="364" on="1"/>
        <pt x="195" y="398" on="0"/>
        <pt x="273" y="423" on="0"/>
        <pt x="309" y="423" on="1"/>
        <pt x="382" y="423" on="0"/>
        <pt x="435" y="340" on="0"/>
        <pt x="435" y="263" on="1"/>
        <pt x="435" y="4" on="1"/>
        <pt x="435" y="-86" on="0"/>
        <pt x="378" y="-180" on="0"/>
      </contour>
    </TTGlyph>
    <TTGlyph name="eogonek" xMin="44" yMin="-187" xMax="382" yMax="425">
      <contour>
        <pt x="223" y="386" on="1"/>
        <pt x="179" y="386" on="0"/>
        <pt x="120" y="329" on="0"/>
        <pt x="112" y="268" on="1"/>
        <pt x="317" y="268" on="1"/>
        <pt x="318" y="273" on="0"/>
        <pt x="319" y="281" on="0"/>
        <pt x="319" y="286" on="1"/>
        <pt x="319" y="332" on="0"/>
        <pt x="268" y="386" on="0"/>
      </contour>
      <contour>
        <pt x="356" y="-160" on="1"/>
        <pt x="340" y="-172" on="0"/>
        <pt x="291" y="-187" on="0"/>
        <pt x="266" y="-187" on="1"/>
        <pt x="231" y="-187" on="0"/>
        <pt x="179" y="-154" on="0"/>
        <pt x="179" y="-119" on="1"/>
        <pt x="179" y="-82" on="0"/>
        <pt x="230" y="-25" on="0"/>
        <pt x="257" y="-8" on="1"/>
        <pt x="257" y="-6" on="1"/>
        <pt x="249" y="-7" on="0"/>
        <pt x="232" y="-8" on="0"/>
        <pt x="224" y="-8" on="1"/>
        <pt x="134" y="-8" on="0"/>
        <pt x="44" y="112" on="0"/>
        <pt x="44" y="202" on="1"/>
        <pt x="44" y="305" on="0"/>
        <pt x="150" y="425" on="0"/>
        <pt x="235" y="425" on="1"/>
        <pt x="295" y="425" on="0"/>
        <pt x="382" y="354" on="0"/>
        <pt x="382" y="281" on="1"/>
        <pt x="382" y="272" on="0"/>
        <pt x="380" y="244" on="0"/>
        <pt x="379" y="233" on="1"/>
        <pt x="109" y="233" on="1"/>
        <pt x="109" y="229" on="0"/>
        <pt x="109" y="222" on="0"/>
        <pt x="109" y="218" on="1"/>
        <pt x="109" y="114" on="0"/>
        <pt x="188" y="37" on="0"/>
        <pt x="239" y="37" on="1"/>
        <pt x="276" y="37" on="0"/>
        <pt x="339" y="73" on="0"/>
        <pt x="356" y="103" on="1"/>
        <pt x="381" y="90" on="1"/>
        <pt x="375" y="71" on="0"/>
        <pt x="351" y="38" on="0"/>
        <pt x="334" y="25" on="1"/>
        <pt x="334" y="25" on="1"/>
        <pt x="288" y="-10" on="0"/>
        <pt x="238" y="-70" on="0"/>
        <pt x="238" y="-101" on="1"/>
        <pt x="238" y="-123" on="0"/>
        <pt x="268" y="-145" on="0"/>
        <pt x="291" y="-145" on="1"/>
        <pt x="303" y="-145" on="0"/>
        <pt x="331" y="-139" on="0"/>
        <pt x="344" y="-133" on="1"/>
      </contour>
    </TTGlyph>
    <TTGlyph name="equal" xMin="64" yMin="133" xMax="393" yMax="314">
      <contour>
        <pt x="393" y="268" on="1"/>
        <pt x="64" y="268" on="1"/>
        <pt x="64" y="314" on="1"/>
        <pt x="393" y="314" on="1"/>
      </contour>
      <contour>
        <pt x="393" y="133" on="1"/>
        <pt x="64" y="133" on="1"/>
        <pt x="64" y="179" on="1"/>
        <pt x="393" y="179" on="1"/>
      </contour>
    </TTGlyph>
    <TTGlyph name="estimated" xMin="50" yMin="-6" xMax="474" yMax="493">
      <contour>
        <pt x="144" y="400" on="1"/>
        <pt x="144" y="268" on="1"/>
        <pt x="387" y="268" on="1"/>
        <pt x="387" y="415" on="1"/>
        <pt x="371" y="435" on="0"/>
        <pt x="309" y="457" on="0"/>
        <pt x="272" y="457" on="1"/>
        <pt x="227" y="457" on="0"/>
        <pt x="161" y="425" on="0"/>
      </contour>
      <contour>
        <pt x="452" y="44" on="1"/>
        <pt x="417" y="16" on="0"/>
        <pt x="335" y="-6" on="0"/>
        <pt x="296" y="-6" on="1"/>
        <pt x="191" y="-6" on="0"/>
        <pt x="50" y="127" on="0"/>
        <pt x="50" y="246" on="1"/>
        <pt x="50" y="351" on="0"/>
        <pt x="168" y="493" on="0"/>
        <pt x="275" y="493" on="1"/>
        <pt x="359" y="493" on="0"/>
        <pt x="474" y="392" on="0"/>
        <pt x="474" y="285" on="1"/>
        <pt x="474" y="269" on="0"/>
        <pt x="472" y="240" on="0"/>
        <pt x="471" y="228" on="1"/>
        <pt x="144" y="228" on="1"/>
        <pt x="144" y="96" on="1"/>
        <pt x="166" y="67" on="0"/>
        <pt x="251" y="31" on="0"/>
        <pt x="300" y="31" on="1"/>
        <pt x="337" y="31" on="0"/>
        <pt x="405" y="52" on="0"/>
        <pt x="433" y="72" on="1"/>
      </contour>
    </TTGlyph>
    <TTGlyph name="eth" xMin="45" yMin="-8" xMax="409" yMax="652">
      <contour>
        <pt x="217" y="-8" on="1"/>
        <pt x="133" y="-8" on="0"/>
        <pt x="45" y="104" on="0"/>
        <pt x="45" y="198" on="1"/>
        <pt x="45" y="256" on="0"/>
        <pt x="76" y="336" on="0"/>
        <pt x="125" y="385" on="0"/>
        <pt x="186" y="407" on="0"/>
        <pt x="215" y="407" on="1"/>
        <pt x="243" y="407" on="0"/>
        <pt x="299" y="388" on="0"/>
        <pt x="320" y="369" on="1"/>
        <pt x="305" y="412" on="0"/>
        <pt x="256" y="489" on="0"/>
        <pt x="223" y="521" on="1"/>
        <pt x="118" y="440" on="1"/>
        <pt x="91" y="476" on="1"/>
        <pt x="193" y="548" on="1"/>
        <pt x="168" y="569" on="0"/>
        <pt x="107" y="606" on="0"/>
        <pt x="73" y="621" on="1"/>
        <pt x="86" y="652" on="1"/>
        <pt x="128" y="638" on="0"/>
        <pt x="202" y="600" on="0"/>
        <pt x="233" y="577" on="1"/>
        <pt x="327" y="648" on="1"/>
        <pt x="354" y="612" on="1"/>
        <pt x="265" y="551" on="1"/>
        <pt x="337" y="488" on="0"/>
        <pt x="409" y="320" on="0"/>
        <pt x="409" y="233" on="1"/>
        <pt x="409" y="120" on="0"/>
        <pt x="306" y="-8" on="0"/>
      </contour>
      <contour>
        <pt x="226" y="28" on="1"/>
        <pt x="289" y="28" on="0"/>
        <pt x="343" y="132" on="0"/>
        <pt x="343" y="224" on="1"/>
        <pt x="343" y="249" on="0"/>
        <pt x="338" y="297" on="0"/>
        <pt x="333" y="319" on="1"/>
        <pt x="313" y="341" on="0"/>
        <pt x="257" y="364" on="0"/>
        <pt x="227" y="364" on="1"/>
        <pt x="178" y="364" on="0"/>
        <pt x="111" y="288" on="0"/>
        <pt x="111" y="197" on="1"/>
        <pt x="111" y="131" on="0"/>
        <pt x="161" y="28" on="0"/>
      </contour>
    </TTGlyph>
    <TTGlyph name="exclam" xMin="73" yMin="-8" xMax="159" yMax="623">
      <contour>
        <pt x="81" y="568" on="1"/>
        <pt x="81" y="623" on="1"/>
        <pt x="151" y="623" on="1"/>
        <pt x="151" y="568" on="1"/>
        <pt x="134" y="163" on="1"/>
        <pt x="99" y="163" on="1"/>
      </contour>
      <contour>
        <pt x="159" y="35" on="1"/>
        <pt x="159" y="16" on="0"/>
        <pt x="135" y="-8" on="0"/>
        <pt x="116" y="-8" on="1"/>
        <pt x="97" y="-8" on="0"/>
        <pt x="73" y="16" on="0"/>
        <pt x="73" y="35" on="1"/>
        <pt x="73" y="54" on="0"/>
        <pt x="97" y="78" on="0"/>
        <pt x="116" y="78" on="1"/>
        <pt x="135" y="78" on="0"/>
        <pt x="159" y="54" on="0"/>
      </contour>
    </TTGlyph>
    <TTGlyph name="exclamdown" xMin="67" yMin="-206" xMax="153" yMax="425">
      <contour>
        <pt x="153" y="382" on="1"/>
        <pt x="153" y="363" on="0"/>
        <pt x="129" y="339" on="0"/>
        <pt x="110" y="339" on="1"/>
        <pt x="91" y="339" on="0"/>
        <pt x="67" y="363" on="0"/>
        <pt x="67" y="382" on="1"/>
        <pt x="67" y="401" on="0"/>
        <pt x="91" y="425" on="0"/>
        <pt x="110" y="425" on="1"/>
        <pt x="129" y="425" on="0"/>
        <pt x="153" y="401" on="0"/>
      </contour>
      <contour>
        <pt x="145" y="-206" on="1"/>
        <pt x="76" y="-206" on="1"/>
        <pt x="76" y="-151" on="1"/>
        <pt x="92" y="254" on="1"/>
        <pt x="128" y="254" on="1"/>
        <pt x="145" y="-151" on="1"/>
      </contour>
    </TTGlyph>
    <TTGlyph name="f" xMin="31" yMin="0" xMax="356" yMax="653">
      <contour>
        <pt x="106" y="463" on="1"/>
        <pt x="106" y="548" on="0"/>
        <pt x="211" y="653" on="0"/>
        <pt x="269" y="653" on="1"/>
        <pt x="291" y="653" on="0"/>
        <pt x="335" y="640" on="0"/>
        <pt x="356" y="629" on="1"/>
        <pt x="348" y="585" on="1"/>
        <pt x="327" y="589" on="0"/>
        <pt x="281" y="593" on="0"/>
        <pt x="263" y="593" on="1"/>
        <pt x="211" y="593" on="0"/>
        <pt x="166" y="547" on="0"/>
        <pt x="166" y="490" on="1"/>
        <pt x="166" y="413" on="1"/>
        <pt x="292" y="413" on="1"/>
        <pt x="292" y="369" on="1"/>
        <pt x="166" y="369" on="1"/>
        <pt x="166" y="61" on="1"/>
        <pt x="166" y="51" on="0"/>
        <pt x="177" y="40" on="0"/>
        <pt x="187" y="39" on="1"/>
        <pt x="265" y="32" on="1"/>
        <pt x="265" y="0" on="1"/>
        <pt x="39" y="0" on="1"/>
        <pt x="39" y="32" on="1"/>
        <pt x="85" y="39" on="1"/>
        <pt x="95" y="40" on="0"/>
        <pt x="106" y="51" on="0"/>
        <pt x="106" y="61" on="1"/>
        <pt x="106" y="366" on="1"/>
        <pt x="31" y="374" on="1"/>
        <pt x="31" y="403" on="1"/>
        <pt x="106" y="413" on="1"/>
      </contour>
    </TTGlyph>
    <TTGlyph name="f_b" xMin="31" yMin="-8" xMax="732" yMax="653">
      <contour>
        <pt x="521" y="-8" on="1"/>
        <pt x="475" y="-8" on="0"/>
        <pt x="400" y="13" on="0"/>
        <pt x="382" y="20" on="1"/>
        <pt x="382" y="572" on="1"/>
        <pt x="353" y="585" on="0"/>
        <pt x="297" y="593" on="0"/>
        <pt x="276" y="593" on="1"/>
        <pt x="221" y="593" on="0"/>
        <pt x="166" y="546" on="0"/>
        <pt x="166" y="490" on="1"/>
        <pt x="166" y="413" on="1"/>
        <pt x="300" y="413" on="1"/>
        <pt x="300" y="369" on="1"/>
        <pt x="166" y="369" on="1"/>
        <pt x="166" y="61" on="1"/>
        <pt x="166" y="51" on="0"/>
        <pt x="177" y="40" on="0"/>
        <pt x="187" y="39" on="1"/>
        <pt x="265" y="32" on="1"/>
        <pt x="265" y="0" on="1"/>
        <pt x="39" y="0" on="1"/>
        <pt x="39" y="32" on="1"/>
        <pt x="85" y="39" on="1"/>
        <pt x="95" y="40" on="0"/>
        <pt x="106" y="51" on="0"/>
        <pt x="106" y="61" on="1"/>
        <pt x="106" y="366" on="1"/>
        <pt x="31" y="374" on="1"/>
        <pt x="31" y="403" on="1"/>
        <pt x="106" y="413" on="1"/>
        <pt x="106" y="463" on="1"/>
        <pt x="106" y="506" on="0"/>
        <pt x="140" y="576" on="0"/>
        <pt x="193" y="626" on="0"/>
        <pt x="257" y="653" on="0"/>
        <pt x="288" y="653" on="1"/>
        <pt x="306" y="653" on="0"/>
        <pt x="347" y="643" on="0"/>
        <pt x="369" y="633" on="1"/>
        <pt x="386" y="640" on="0"/>
        <pt x="418" y="651" on="0"/>
        <pt x="431" y="653" on="1"/>
        <pt x="442" y="644" on="1"/>
        <pt x="442" y="373" on="1"/>
        <pt x="464" y="395" on="0"/>
        <pt x="525" y="425" on="0"/>
        <pt x="568" y="425" on="1"/>
        <pt x="637" y="425" on="0"/>
        <pt x="732" y="332" on="0"/>
        <pt x="732" y="227" on="1"/>
        <pt x="732" y="120" on="0"/>
        <pt x="623" y="-8" on="0"/>
      </contour>
      <contour>
        <pt x="525" y="29" on="1"/>
        <pt x="593" y="29" on="0"/>
        <pt x="666" y="115" on="0"/>
        <pt x="667" y="208" on="1"/>
        <pt x="668" y="302" on="0"/>
        <pt x="601" y="379" on="0"/>
        <pt x="545" y="379" on="1"/>
        <pt x="513" y="379" on="0"/>
        <pt x="462" y="358" on="0"/>
        <pt x="442" y="340" on="1"/>
        <pt x="442" y="50" on="1"/>
        <pt x="458" y="42" on="0"/>
        <pt x="497" y="29" on="0"/>
      </contour>
    </TTGlyph>
    <TTGlyph name="f_f" xMin="31" yMin="0" xMax="641" yMax="653">
      <contour>
        <pt x="254" y="0" on="1"/>
        <pt x="39" y="0" on="1"/>
        <pt x="39" y="32" on="1"/>
        <pt x="85" y="39" on="1"/>
        <pt x="95" y="40" on="0"/>
        <pt x="106" y="51" on="0"/>
        <pt x="106" y="61" on="1"/>
        <pt x="106" y="366" on="1"/>
        <pt x="31" y="374" on="1"/>
        <pt x="31" y="403" on="1"/>
        <pt x="106" y="413" on="1"/>
        <pt x="106" y="445" on="1"/>
        <pt x="106" y="530" on="0"/>
        <pt x="211" y="635" on="0"/>
        <pt x="269" y="635" on="1"/>
        <pt x="291" y="635" on="0"/>
        <pt x="335" y="620" on="0"/>
        <pt x="357" y="607" on="1"/>
        <pt x="344" y="564" on="1"/>
        <pt x="324" y="569" on="0"/>
        <pt x="280" y="575" on="0"/>
        <pt x="263" y="575" on="1"/>
        <pt x="211" y="575" on="0"/>
        <pt x="166" y="529" on="0"/>
        <pt x="166" y="472" on="1"/>
        <pt x="166" y="413" on="1"/>
        <pt x="391" y="413" on="1"/>
        <pt x="391" y="463" on="1"/>
        <pt x="391" y="548" on="0"/>
        <pt x="496" y="653" on="0"/>
        <pt x="554" y="653" on="1"/>
        <pt x="576" y="653" on="0"/>
        <pt x="619" y="640" on="0"/>
        <pt x="641" y="629" on="1"/>
        <pt x="632" y="585" on="1"/>
        <pt x="611" y="589" on="0"/>
        <pt x="566" y="593" on="0"/>
        <pt x="548" y="593" on="1"/>
        <pt x="496" y="593" on="0"/>
        <pt x="451" y="547" on="0"/>
        <pt x="451" y="490" on="1"/>
        <pt x="451" y="413" on="1"/>
        <pt x="577" y="413" on="1"/>
        <pt x="577" y="369" on="1"/>
        <pt x="451" y="369" on="1"/>
        <pt x="451" y="61" on="1"/>
        <pt x="451" y="51" on="0"/>
        <pt x="462" y="40" on="0"/>
        <pt x="472" y="39" on="1"/>
        <pt x="550" y="32" on="1"/>
        <pt x="550" y="0" on="1"/>
        <pt x="325" y="0" on="1"/>
        <pt x="325" y="32" on="1"/>
        <pt x="370" y="39" on="1"/>
        <pt x="380" y="40" on="0"/>
        <pt x="391" y="51" on="0"/>
        <pt x="391" y="61" on="1"/>
        <pt x="391" y="369" on="1"/>
        <pt x="166" y="369" on="1"/>
        <pt x="166" y="61" on="1"/>
        <pt x="166" y="51" on="0"/>
        <pt x="177" y="40" on="0"/>
        <pt x="187" y="39" on="1"/>
        <pt x="254" y="32" on="1"/>
      </contour>
    </TTGlyph>
    <TTGlyph name="f_f_b" xMin="31" yMin="-8" xMax="1017" yMax="653">
      <contour>
        <pt x="1017" y="227" on="1"/>
        <pt x="1017" y="120" on="0"/>
        <pt x="908" y="-8" on="0"/>
        <pt x="805" y="-8" on="1"/>
        <pt x="759" y="-8" on="0"/>
        <pt x="685" y="13" on="0"/>
        <pt x="667" y="20" on="1"/>
        <pt x="667" y="572" on="1"/>
        <pt x="638" y="585" on="0"/>
        <pt x="581" y="593" on="0"/>
        <pt x="560" y="593" on="1"/>
        <pt x="508" y="593" on="0"/>
        <pt x="451" y="546" on="0"/>
        <pt x="451" y="490" on="1"/>
        <pt x="451" y="413" on="1"/>
        <pt x="584" y="413" on="1"/>
        <pt x="584" y="369" on="1"/>
        <pt x="451" y="369" on="1"/>
        <pt x="451" y="61" on="1"/>
        <pt x="451" y="51" on="0"/>
        <pt x="462" y="40" on="0"/>
        <pt x="472" y="39" on="1"/>
        <pt x="550" y="32" on="1"/>
        <pt x="550" y="0" on="1"/>
        <pt x="324" y="0" on="1"/>
        <pt x="324" y="32" on="1"/>
        <pt x="370" y="39" on="1"/>
        <pt x="380" y="40" on="0"/>
        <pt x="391" y="51" on="0"/>
        <pt x="391" y="61" on="1"/>
        <pt x="391" y="369" on="1"/>
        <pt x="166" y="369" on="1"/>
        <pt x="166" y="61" on="1"/>
        <pt x="166" y="51" on="0"/>
        <pt x="177" y="40" on="0"/>
        <pt x="187" y="39" on="1"/>
        <pt x="254" y="32" on="1"/>
        <pt x="254" y="0" on="1"/>
        <pt x="39" y="0" on="1"/>
        <pt x="39" y="32" on="1"/>
        <pt x="85" y="39" on="1"/>
        <pt x="95" y="40" on="0"/>
        <pt x="106" y="51" on="0"/>
        <pt x="106" y="61" on="1"/>
        <pt x="106" y="366" on="1"/>
        <pt x="31" y="374" on="1"/>
        <pt x="31" y="403" on="1"/>
        <pt x="106" y="413" on="1"/>
        <pt x="106" y="445" on="1"/>
        <pt x="106" y="530" on="0"/>
        <pt x="211" y="635" on="0"/>
        <pt x="269" y="635" on="1"/>
        <pt x="291" y="635" on="0"/>
        <pt x="335" y="620" on="0"/>
        <pt x="357" y="607" on="1"/>
        <pt x="344" y="564" on="1"/>
        <pt x="324" y="569" on="0"/>
        <pt x="280" y="575" on="0"/>
        <pt x="263" y="575" on="1"/>
        <pt x="211" y="575" on="0"/>
        <pt x="166" y="529" on="0"/>
        <pt x="166" y="472" on="1"/>
        <pt x="166" y="413" on="1"/>
        <pt x="391" y="413" on="1"/>
        <pt x="391" y="463" on="1"/>
        <pt x="391" y="506" on="0"/>
        <pt x="426" y="576" on="0"/>
        <pt x="479" y="626" on="0"/>
        <pt x="544" y="653" on="0"/>
        <pt x="573" y="653" on="1"/>
        <pt x="590" y="653" on="0"/>
        <pt x="632" y="643" on="0"/>
        <pt x="654" y="633" on="1"/>
        <pt x="671" y="640" on="0"/>
        <pt x="702" y="651" on="0"/>
        <pt x="715" y="653" on="1"/>
        <pt x="727" y="644" on="1"/>
        <pt x="727" y="374" on="1"/>
        <pt x="749" y="396" on="0"/>
        <pt x="809" y="425" on="0"/>
        <pt x="852" y="425" on="1"/>
        <pt x="921" y="425" on="0"/>
        <pt x="1017" y="332" on="0"/>
      </contour>
      <contour>
        <pt x="810" y="29" on="1"/>
        <pt x="878" y="29" on="0"/>
        <pt x="951" y="115" on="0"/>
        <pt x="952" y="208" on="1"/>
        <pt x="953" y="302" on="0"/>
        <pt x="886" y="379" on="0"/>
        <pt x="830" y="379" on="1"/>
        <pt x="799" y="379" on="0"/>
        <pt x="747" y="359" on="0"/>
        <pt x="727" y="341" on="1"/>
        <pt x="727" y="50" on="1"/>
        <pt x="742" y="42" on="0"/>
        <pt x="782" y="29" on="0"/>
      </contour>
    </TTGlyph>
    <TTGlyph name="f_f_h" xMin="31" yMin="0" xMax="1075" yMax="653">
      <contour>
        <pt x="254" y="0" on="1"/>
        <pt x="39" y="0" on="1"/>
        <pt x="39" y="32" on="1"/>
        <pt x="85" y="39" on="1"/>
        <pt x="95" y="40" on="0"/>
        <pt x="106" y="51" on="0"/>
        <pt x="106" y="61" on="1"/>
        <pt x="106" y="366" on="1"/>
        <pt x="31" y="374" on="1"/>
        <pt x="31" y="403" on="1"/>
        <pt x="106" y="413" on="1"/>
        <pt x="106" y="445" on="1"/>
        <pt x="106" y="530" on="0"/>
        <pt x="211" y="635" on="0"/>
        <pt x="269" y="635" on="1"/>
        <pt x="291" y="635" on="0"/>
        <pt x="335" y="620" on="0"/>
        <pt x="357" y="607" on="1"/>
        <pt x="344" y="564" on="1"/>
        <pt x="324" y="569" on="0"/>
        <pt x="280" y="575" on="0"/>
        <pt x="263" y="575" on="1"/>
        <pt x="211" y="575" on="0"/>
        <pt x="166" y="529" on="0"/>
        <pt x="166" y="472" on="1"/>
        <pt x="166" y="413" on="1"/>
        <pt x="391" y="413" on="1"/>
        <pt x="391" y="463" on="1"/>
        <pt x="391" y="506" on="0"/>
        <pt x="427" y="576" on="0"/>
        <pt x="481" y="626" on="0"/>
        <pt x="547" y="653" on="0"/>
        <pt x="578" y="653" on="1"/>
        <pt x="596" y="653" on="0"/>
        <pt x="641" y="643" on="0"/>
        <pt x="664" y="633" on="1"/>
        <pt x="681" y="640" on="0"/>
        <pt x="713" y="651" on="0"/>
        <pt x="726" y="653" on="1"/>
        <pt x="737" y="643" on="1"/>
        <pt x="737" y="365" on="1"/>
        <pt x="768" y="398" on="0"/>
        <pt x="846" y="423" on="0"/>
        <pt x="884" y="423" on="1"/>
        <pt x="956" y="423" on="0"/>
        <pt x="1008" y="338" on="0"/>
        <pt x="1008" y="263" on="1"/>
        <pt x="1008" y="62" on="1"/>
        <pt x="1008" y="52" on="0"/>
        <pt x="1018" y="40" on="0"/>
        <pt x="1028" y="39" on="1"/>
        <pt x="1075" y="32" on="1"/>
        <pt x="1075" y="0" on="1"/>
        <pt x="882" y="0" on="1"/>
        <pt x="882" y="32" on="1"/>
        <pt x="927" y="39" on="1"/>
        <pt x="936" y="40" on="0"/>
        <pt x="948" y="51" on="0"/>
        <pt x="948" y="62" on="1"/>
        <pt x="948" y="249" on="1"/>
        <pt x="948" y="312" on="0"/>
        <pt x="914" y="377" on="0"/>
        <pt x="862" y="377" on="1"/>
        <pt x="828" y="377" on="0"/>
        <pt x="764" y="356" on="0"/>
        <pt x="737" y="334" on="1"/>
        <pt x="737" y="62" on="1"/>
        <pt x="737" y="52" on="0"/>
        <pt x="748" y="40" on="0"/>
        <pt x="758" y="39" on="1"/>
        <pt x="803" y="32" on="1"/>
        <pt x="803" y="0" on="1"/>
        <pt x="612" y="0" on="1"/>
        <pt x="612" y="32" on="1"/>
        <pt x="657" y="39" on="1"/>
        <pt x="667" y="40" on="0"/>
        <pt x="677" y="51" on="0"/>
        <pt x="677" y="61" on="1"/>
        <pt x="677" y="572" on="1"/>
        <pt x="646" y="585" on="0"/>
        <pt x="587" y="593" on="0"/>
        <pt x="565" y="593" on="1"/>
        <pt x="510" y="593" on="0"/>
        <pt x="451" y="546" on="0"/>
        <pt x="451" y="490" on="1"/>
        <pt x="451" y="413" on="1"/>
        <pt x="584" y="413" on="1"/>
        <pt x="584" y="369" on="1"/>
        <pt x="451" y="369" on="1"/>
        <pt x="451" y="61" on="1"/>
        <pt x="451" y="51" on="0"/>
        <pt x="462" y="40" on="0"/>
        <pt x="472" y="39" on="1"/>
        <pt x="543" y="32" on="1"/>
        <pt x="543" y="0" on="1"/>
        <pt x="324" y="0" on="1"/>
        <pt x="324" y="32" on="1"/>
        <pt x="370" y="39" on="1"/>
        <pt x="380" y="40" on="0"/>
        <pt x="391" y="51" on="0"/>
        <pt x="391" y="61" on="1"/>
        <pt x="391" y="369" on="1"/>
        <pt x="166" y="369" on="1"/>
        <pt x="166" y="61" on="1"/>
        <pt x="166" y="51" on="0"/>
        <pt x="177" y="40" on="0"/>
        <pt x="187" y="39" on="1"/>
        <pt x="254" y="32" on="1"/>
      </contour>
    </TTGlyph>
    <TTGlyph name="f_f_k" xMin="31" yMin="0" xMax="1048" yMax="653">
      <contour>
        <pt x="254" y="0" on="1"/>
        <pt x="39" y="0" on="1"/>
        <pt x="39" y="32" on="1"/>
        <pt x="85" y="39" on="1"/>
        <pt x="95" y="40" on="0"/>
        <pt x="106" y="51" on="0"/>
        <pt x="106" y="61" on="1"/>
        <pt x="106" y="366" on="1"/>
        <pt x="31" y="374" on="1"/>
        <pt x="31" y="403" on="1"/>
        <pt x="106" y="413" on="1"/>
        <pt x="106" y="445" on="1"/>
        <pt x="106" y="530" on="0"/>
        <pt x="211" y="635" on="0"/>
        <pt x="269" y="635" on="1"/>
        <pt x="291" y="635" on="0"/>
        <pt x="335" y="620" on="0"/>
        <pt x="357" y="607" on="1"/>
        <pt x="344" y="564" on="1"/>
        <pt x="324" y="569" on="0"/>
        <pt x="280" y="575" on="0"/>
        <pt x="263" y="575" on="1"/>
        <pt x="211" y="575" on="0"/>
        <pt x="166" y="529" on="0"/>
        <pt x="166" y="472" on="1"/>
        <pt x="166" y="413" on="1"/>
        <pt x="391" y="413" on="1"/>
        <pt x="391" y="463" on="1"/>
        <pt x="391" y="506" on="0"/>
        <pt x="427" y="576" on="0"/>
        <pt x="481" y="626" on="0"/>
        <pt x="547" y="653" on="0"/>
        <pt x="578" y="653" on="1"/>
        <pt x="596" y="653" on="0"/>
        <pt x="641" y="643" on="0"/>
        <pt x="664" y="633" on="1"/>
        <pt x="681" y="640" on="0"/>
        <pt x="713" y="651" on="0"/>
        <pt x="726" y="653" on="1"/>
        <pt x="737" y="643" on="1"/>
        <pt x="737" y="178" on="1"/>
        <pt x="911" y="371" on="1"/>
        <pt x="836" y="383" on="1"/>
        <pt x="836" y="413" on="1"/>
        <pt x="1028" y="413" on="1"/>
        <pt x="1028" y="383" on="1"/>
        <pt x="984" y="373" on="1"/>
        <pt x="975" y="372" on="0"/>
        <pt x="962" y="366" on="0"/>
        <pt x="956" y="360" on="1"/>
        <pt x="854" y="252" on="1"/>
        <pt x="864" y="238" on="0"/>
        <pt x="880" y="213" on="0"/>
        <pt x="890" y="197" on="1"/>
        <pt x="971" y="65" on="1"/>
        <pt x="978" y="55" on="0"/>
        <pt x="993" y="43" on="0"/>
        <pt x="1000" y="42" on="1"/>
        <pt x="1048" y="32" on="1"/>
        <pt x="1048" y="0" on="1"/>
        <pt x="951" y="0" on="1"/>
        <pt x="938" y="0" on="0"/>
        <pt x="913" y="32" on="0"/>
        <pt x="898" y="60" on="1"/>
        <pt x="853" y="140" on="1"/>
        <pt x="842" y="160" on="0"/>
        <pt x="823" y="195" on="0"/>
        <pt x="814" y="210" on="1"/>
        <pt x="737" y="129" on="1"/>
        <pt x="737" y="62" on="1"/>
        <pt x="737" y="52" on="0"/>
        <pt x="748" y="40" on="0"/>
        <pt x="758" y="39" on="1"/>
        <pt x="805" y="32" on="1"/>
        <pt x="805" y="0" on="1"/>
        <pt x="612" y="0" on="1"/>
        <pt x="612" y="32" on="1"/>
        <pt x="657" y="39" on="1"/>
        <pt x="667" y="40" on="0"/>
        <pt x="677" y="52" on="0"/>
        <pt x="677" y="62" on="1"/>
        <pt x="677" y="572" on="1"/>
        <pt x="646" y="585" on="0"/>
        <pt x="587" y="593" on="0"/>
        <pt x="565" y="593" on="1"/>
        <pt x="510" y="593" on="0"/>
        <pt x="451" y="546" on="0"/>
        <pt x="451" y="490" on="1"/>
        <pt x="451" y="413" on="1"/>
        <pt x="584" y="413" on="1"/>
        <pt x="584" y="369" on="1"/>
        <pt x="451" y="369" on="1"/>
        <pt x="451" y="61" on="1"/>
        <pt x="451" y="51" on="0"/>
        <pt x="462" y="40" on="0"/>
        <pt x="472" y="39" on="1"/>
        <pt x="543" y="32" on="1"/>
        <pt x="543" y="0" on="1"/>
        <pt x="324" y="0" on="1"/>
        <pt x="324" y="32" on="1"/>
        <pt x="370" y="39" on="1"/>
        <pt x="380" y="40" on="0"/>
        <pt x="391" y="51" on="0"/>
        <pt x="391" y="61" on="1"/>
        <pt x="391" y="369" on="1"/>
        <pt x="166" y="369" on="1"/>
        <pt x="166" y="61" on="1"/>
        <pt x="166" y="51" on="0"/>
        <pt x="177" y="40" on="0"/>
        <pt x="187" y="39" on="1"/>
        <pt x="254" y="32" on="1"/>
      </contour>
    </TTGlyph>
    <TTGlyph name="f_f_l" xMin="31" yMin="0" xMax="814" yMax="653">
      <contour>
        <pt x="254" y="0" on="1"/>
        <pt x="39" y="0" on="1"/>
        <pt x="39" y="32" on="1"/>
        <pt x="85" y="39" on="1"/>
        <pt x="95" y="40" on="0"/>
        <pt x="106" y="51" on="0"/>
        <pt x="106" y="61" on="1"/>
        <pt x="106" y="366" on="1"/>
        <pt x="31" y="374" on="1"/>
        <pt x="31" y="403" on="1"/>
        <pt x="106" y="413" on="1"/>
        <pt x="106" y="445" on="1"/>
        <pt x="106" y="530" on="0"/>
        <pt x="211" y="635" on="0"/>
        <pt x="269" y="635" on="1"/>
        <pt x="291" y="635" on="0"/>
        <pt x="335" y="620" on="0"/>
        <pt x="357" y="607" on="1"/>
        <pt x="344" y="564" on="1"/>
        <pt x="324" y="569" on="0"/>
        <pt x="280" y="575" on="0"/>
        <pt x="263" y="575" on="1"/>
        <pt x="211" y="575" on="0"/>
        <pt x="166" y="529" on="0"/>
        <pt x="166" y="472" on="1"/>
        <pt x="166" y="413" on="1"/>
        <pt x="391" y="413" on="1"/>
        <pt x="391" y="463" on="1"/>
        <pt x="391" y="506" on="0"/>
        <pt x="427" y="576" on="0"/>
        <pt x="481" y="626" on="0"/>
        <pt x="547" y="653" on="0"/>
        <pt x="578" y="653" on="1"/>
        <pt x="596" y="653" on="0"/>
        <pt x="641" y="643" on="0"/>
        <pt x="664" y="633" on="1"/>
        <pt x="681" y="640" on="0"/>
        <pt x="713" y="651" on="0"/>
        <pt x="726" y="653" on="1"/>
        <pt x="737" y="643" on="1"/>
        <pt x="737" y="62" on="1"/>
        <pt x="737" y="52" on="0"/>
        <pt x="748" y="40" on="0"/>
        <pt x="758" y="39" on="1"/>
        <pt x="814" y="31" on="1"/>
        <pt x="814" y="0" on="1"/>
        <pt x="612" y="0" on="1"/>
        <pt x="612" y="32" on="1"/>
        <pt x="657" y="39" on="1"/>
        <pt x="667" y="40" on="0"/>
        <pt x="677" y="51" on="0"/>
        <pt x="677" y="61" on="1"/>
        <pt x="677" y="572" on="1"/>
        <pt x="646" y="585" on="0"/>
        <pt x="587" y="593" on="0"/>
        <pt x="565" y="593" on="1"/>
        <pt x="510" y="593" on="0"/>
        <pt x="451" y="546" on="0"/>
        <pt x="451" y="490" on="1"/>
        <pt x="451" y="413" on="1"/>
        <pt x="584" y="413" on="1"/>
        <pt x="584" y="369" on="1"/>
        <pt x="451" y="369" on="1"/>
        <pt x="451" y="61" on="1"/>
        <pt x="451" y="51" on="0"/>
        <pt x="462" y="40" on="0"/>
        <pt x="472" y="39" on="1"/>
        <pt x="543" y="32" on="1"/>
        <pt x="543" y="0" on="1"/>
        <pt x="324" y="0" on="1"/>
        <pt x="324" y="32" on="1"/>
        <pt x="370" y="39" on="1"/>
        <pt x="380" y="40" on="0"/>
        <pt x="391" y="51" on="0"/>
        <pt x="391" y="61" on="1"/>
        <pt x="391" y="369" on="1"/>
        <pt x="166" y="369" on="1"/>
        <pt x="166" y="61" on="1"/>
        <pt x="166" y="51" on="0"/>
        <pt x="177" y="40" on="0"/>
        <pt x="187" y="39" on="1"/>
        <pt x="254" y="32" on="1"/>
      </contour>
    </TTGlyph>
    <TTGlyph name="f_h" xMin="31" yMin="0" xMax="790" yMax="653">
      <contour>
        <pt x="258" y="32" on="1"/>
        <pt x="258" y="0" on="1"/>
        <pt x="39" y="0" on="1"/>
        <pt x="39" y="32" on="1"/>
        <pt x="85" y="39" on="1"/>
        <pt x="95" y="40" on="0"/>
        <pt x="106" y="51" on="0"/>
        <pt x="106" y="61" on="1"/>
        <pt x="106" y="366" on="1"/>
        <pt x="31" y="374" on="1"/>
        <pt x="31" y="403" on="1"/>
        <pt x="106" y="413" on="1"/>
        <pt x="106" y="463" on="1"/>
        <pt x="106" y="506" on="0"/>
        <pt x="142" y="576" on="0"/>
        <pt x="196" y="626" on="0"/>
        <pt x="262" y="653" on="0"/>
        <pt x="293" y="653" on="1"/>
        <pt x="311" y="653" on="0"/>
        <pt x="356" y="643" on="0"/>
        <pt x="379" y="633" on="1"/>
        <pt x="396" y="640" on="0"/>
        <pt x="428" y="651" on="0"/>
        <pt x="441" y="653" on="1"/>
        <pt x="453" y="643" on="1"/>
        <pt x="453" y="366" on="1"/>
        <pt x="485" y="398" on="0"/>
        <pt x="561" y="423" on="0"/>
        <pt x="599" y="423" on="1"/>
        <pt x="671" y="423" on="0"/>
        <pt x="723" y="338" on="0"/>
        <pt x="723" y="263" on="1"/>
        <pt x="723" y="62" on="1"/>
        <pt x="723" y="52" on="0"/>
        <pt x="734" y="40" on="0"/>
        <pt x="744" y="39" on="1"/>
        <pt x="790" y="32" on="1"/>
        <pt x="790" y="0" on="1"/>
        <pt x="597" y="0" on="1"/>
        <pt x="597" y="32" on="1"/>
        <pt x="642" y="39" on="1"/>
        <pt x="651" y="40" on="0"/>
        <pt x="663" y="51" on="0"/>
        <pt x="663" y="62" on="1"/>
        <pt x="663" y="249" on="1"/>
        <pt x="663" y="312" on="0"/>
        <pt x="629" y="377" on="0"/>
        <pt x="577" y="377" on="1"/>
        <pt x="543" y="377" on="0"/>
        <pt x="480" y="356" on="0"/>
        <pt x="453" y="335" on="1"/>
        <pt x="453" y="62" on="1"/>
        <pt x="453" y="52" on="0"/>
        <pt x="463" y="40" on="0"/>
        <pt x="473" y="39" on="1"/>
        <pt x="518" y="32" on="1"/>
        <pt x="518" y="0" on="1"/>
        <pt x="327" y="0" on="1"/>
        <pt x="327" y="32" on="1"/>
        <pt x="372" y="39" on="1"/>
        <pt x="382" y="40" on="0"/>
        <pt x="393" y="51" on="0"/>
        <pt x="393" y="61" on="1"/>
        <pt x="393" y="571" on="1"/>
        <pt x="362" y="584" on="0"/>
        <pt x="302" y="593" on="0"/>
        <pt x="280" y="593" on="1"/>
        <pt x="226" y="593" on="0"/>
        <pt x="166" y="546" on="0"/>
        <pt x="166" y="490" on="1"/>
        <pt x="166" y="413" on="1"/>
        <pt x="300" y="413" on="1"/>
        <pt x="300" y="369" on="1"/>
        <pt x="166" y="369" on="1"/>
        <pt x="166" y="61" on="1"/>
        <pt x="166" y="51" on="0"/>
        <pt x="177" y="40" on="0"/>
        <pt x="187" y="39" on="1"/>
      </contour>
    </TTGlyph>
    <TTGlyph name="f_k" xMin="31" yMin="0" xMax="763" yMax="653">
      <contour>
        <pt x="258" y="32" on="1"/>
        <pt x="258" y="0" on="1"/>
        <pt x="39" y="0" on="1"/>
        <pt x="39" y="32" on="1"/>
        <pt x="85" y="39" on="1"/>
        <pt x="95" y="40" on="0"/>
        <pt x="106" y="51" on="0"/>
        <pt x="106" y="61" on="1"/>
        <pt x="106" y="366" on="1"/>
        <pt x="31" y="374" on="1"/>
        <pt x="31" y="403" on="1"/>
        <pt x="106" y="413" on="1"/>
        <pt x="106" y="463" on="1"/>
        <pt x="106" y="506" on="0"/>
        <pt x="142" y="576" on="0"/>
        <pt x="196" y="626" on="0"/>
        <pt x="262" y="653" on="0"/>
        <pt x="293" y="653" on="1"/>
        <pt x="311" y="653" on="0"/>
        <pt x="356" y="643" on="0"/>
        <pt x="379" y="633" on="1"/>
        <pt x="396" y="640" on="0"/>
        <pt x="428" y="651" on="0"/>
        <pt x="441" y="653" on="1"/>
        <pt x="453" y="643" on="1"/>
        <pt x="453" y="180" on="1"/>
        <pt x="626" y="371" on="1"/>
        <pt x="552" y="383" on="1"/>
        <pt x="552" y="413" on="1"/>
        <pt x="744" y="413" on="1"/>
        <pt x="744" y="383" on="1"/>
        <pt x="700" y="373" on="1"/>
        <pt x="690" y="372" on="0"/>
        <pt x="677" y="366" on="0"/>
        <pt x="671" y="360" on="1"/>
        <pt x="569" y="252" on="1"/>
        <pt x="579" y="239" on="0"/>
        <pt x="595" y="213" on="0"/>
        <pt x="605" y="197" on="1"/>
        <pt x="687" y="65" on="1"/>
        <pt x="693" y="55" on="0"/>
        <pt x="708" y="43" on="0"/>
        <pt x="715" y="42" on="1"/>
        <pt x="763" y="32" on="1"/>
        <pt x="763" y="0" on="1"/>
        <pt x="666" y="0" on="1"/>
        <pt x="653" y="0" on="0"/>
        <pt x="628" y="32" on="0"/>
        <pt x="613" y="60" on="1"/>
        <pt x="568" y="140" on="1"/>
        <pt x="557" y="160" on="0"/>
        <pt x="538" y="195" on="0"/>
        <pt x="529" y="210" on="1"/>
        <pt x="453" y="130" on="1"/>
        <pt x="453" y="62" on="1"/>
        <pt x="453" y="52" on="0"/>
        <pt x="463" y="40" on="0"/>
        <pt x="473" y="39" on="1"/>
        <pt x="520" y="32" on="1"/>
        <pt x="520" y="0" on="1"/>
        <pt x="327" y="0" on="1"/>
        <pt x="327" y="32" on="1"/>
        <pt x="372" y="39" on="1"/>
        <pt x="382" y="40" on="0"/>
        <pt x="393" y="52" on="0"/>
        <pt x="393" y="62" on="1"/>
        <pt x="393" y="571" on="1"/>
        <pt x="362" y="584" on="0"/>
        <pt x="302" y="593" on="0"/>
        <pt x="280" y="593" on="1"/>
        <pt x="226" y="593" on="0"/>
        <pt x="166" y="546" on="0"/>
        <pt x="166" y="490" on="1"/>
        <pt x="166" y="413" on="1"/>
        <pt x="300" y="413" on="1"/>
        <pt x="300" y="369" on="1"/>
        <pt x="166" y="369" on="1"/>
        <pt x="166" y="61" on="1"/>
        <pt x="166" y="51" on="0"/>
        <pt x="177" y="40" on="0"/>
        <pt x="187" y="39" on="1"/>
      </contour>
    </TTGlyph>
    <TTGlyph name="f_l" xMin="31" yMin="0" xMax="529" yMax="653">
      <contour>
        <pt x="258" y="32" on="1"/>
        <pt x="258" y="0" on="1"/>
        <pt x="39" y="0" on="1"/>
        <pt x="39" y="32" on="1"/>
        <pt x="85" y="39" on="1"/>
        <pt x="95" y="40" on="0"/>
        <pt x="106" y="51" on="0"/>
        <pt x="106" y="61" on="1"/>
        <pt x="106" y="366" on="1"/>
        <pt x="31" y="374" on="1"/>
        <pt x="31" y="403" on="1"/>
        <pt x="106" y="413" on="1"/>
        <pt x="106" y="463" on="1"/>
        <pt x="106" y="506" on="0"/>
        <pt x="142" y="576" on="0"/>
        <pt x="196" y="626" on="0"/>
        <pt x="262" y="653" on="0"/>
        <pt x="293" y="653" on="1"/>
        <pt x="311" y="653" on="0"/>
        <pt x="356" y="643" on="0"/>
        <pt x="379" y="633" on="1"/>
        <pt x="396" y="640" on="0"/>
        <pt x="428" y="651" on="0"/>
        <pt x="441" y="653" on="1"/>
        <pt x="453" y="643" on="1"/>
        <pt x="453" y="62" on="1"/>
        <pt x="453" y="52" on="0"/>
        <pt x="463" y="40" on="0"/>
        <pt x="473" y="39" on="1"/>
        <pt x="529" y="31" on="1"/>
        <pt x="529" y="0" on="1"/>
        <pt x="327" y="0" on="1"/>
        <pt x="327" y="32" on="1"/>
        <pt x="372" y="39" on="1"/>
        <pt x="382" y="40" on="0"/>
        <pt x="393" y="51" on="0"/>
        <pt x="393" y="61" on="1"/>
        <pt x="393" y="571" on="1"/>
        <pt x="362" y="584" on="0"/>
        <pt x="302" y="593" on="0"/>
        <pt x="280" y="593" on="1"/>
        <pt x="226" y="593" on="0"/>
        <pt x="166" y="546" on="0"/>
        <pt x="166" y="490" on="1"/>
        <pt x="166" y="413" on="1"/>
        <pt x="300" y="413" on="1"/>
        <pt x="300" y="369" on="1"/>
        <pt x="166" y="369" on="1"/>
        <pt x="166" y="61" on="1"/>
        <pt x="166" y="51" on="0"/>
        <pt x="177" y="40" on="0"/>
        <pt x="187" y="39" on="1"/>
      </contour>
    </TTGlyph>
    <TTGlyph name="five" xMin="40" yMin="-8" xMax="375" yMax="499">
      <contour>
        <pt x="59" y="79" on="1"/>
        <pt x="81" y="62" on="0"/>
        <pt x="141" y="36" on="0"/>
        <pt x="179" y="36" on="1"/>
        <pt x="233" y="36" on="0"/>
        <pt x="305" y="99" on="0"/>
        <pt x="305" y="159" on="1"/>
        <pt x="305" y="210" on="0"/>
        <pt x="246" y="275" on="0"/>
        <pt x="191" y="275" on="1"/>
        <pt x="172" y="275" on="0"/>
        <pt x="124" y="264" on="0"/>
        <pt x="100" y="251" on="1"/>
        <pt x="74" y="270" on="1"/>
        <pt x="88" y="499" on="1"/>
        <pt x="351" y="499" on="1"/>
        <pt x="344" y="448" on="1"/>
        <pt x="134" y="448" on="1"/>
        <pt x="122" y="293" on="1"/>
        <pt x="144" y="308" on="0"/>
        <pt x="193" y="320" on="0"/>
        <pt x="217" y="320" on="1"/>
        <pt x="291" y="320" on="0"/>
        <pt x="375" y="237" on="0"/>
        <pt x="375" y="167" on="1"/>
        <pt x="375" y="89" on="0"/>
        <pt x="275" y="-8" on="0"/>
        <pt x="191" y="-8" on="1"/>
        <pt x="139" y="-8" on="0"/>
        <pt x="62" y="28" on="0"/>
        <pt x="40" y="52" on="1"/>
      </contour>
    </TTGlyph>
    <TTGlyph name="five.tf" xMin="43" yMin="-8" xMax="378" yMax="499">
      <component glyphName="five" x="3" y="0" flags="0x4"/>
    </TTGlyph>
    <TTGlyph name="four" xMin="19" yMin="0" xMax="404" yMax="508">
      <contour>
        <pt x="404" y="99" on="1"/>
        <pt x="323" y="99" on="1"/>
        <pt x="323" y="0" on="1"/>
        <pt x="261" y="0" on="1"/>
        <pt x="261" y="99" on="1"/>
        <pt x="43" y="99" on="1"/>
        <pt x="19" y="138" on="1"/>
        <pt x="73" y="227" on="0"/>
        <pt x="179" y="412" on="0"/>
        <pt x="227" y="508" on="1"/>
        <pt x="288" y="508" on="1"/>
        <pt x="296" y="488" on="1"/>
        <pt x="220" y="356" on="0"/>
        <pt x="118" y="190" on="0"/>
        <pt x="74" y="137" on="1"/>
        <pt x="262" y="143" on="1"/>
        <pt x="269" y="267" on="1"/>
        <pt x="323" y="270" on="1"/>
        <pt x="323" y="145" on="1"/>
        <pt x="404" y="147" on="1"/>
      </contour>
    </TTGlyph>
    <TTGlyph name="four.dnom" xMin="34" yMin="0" xMax="324" yMax="346">
      <component glyphName="four.numr" x="-4" y="-228" flags="0x4"/>
    </TTGlyph>
    <TTGlyph name="four.numr" xMin="38" yMin="228" xMax="328" yMax="574">
      <component glyphName="foursuperior" x="3" y="0" flags="0x4"/>
    </TTGlyph>
    <TTGlyph name="four.tf" xMin="16" yMin="0" xMax="401" yMax="508">
      <component glyphName="four" x="-3" y="0" flags="0x4"/>
    </TTGlyph>
    <TTGlyph name="foursuperior" xMin="35" yMin="228" xMax="325" yMax="574">
      <contour>
        <pt x="325" y="294" on="1"/>
        <pt x="263" y="294" on="1"/>
        <pt x="263" y="228" on="1"/>
        <pt x="215" y="228" on="1"/>
        <pt x="215" y="294" on="1"/>
        <pt x="52" y="294" on="1"/>
        <pt x="35" y="317" on="1"/>
        <pt x="78" y="380" on="0"/>
        <pt x="151" y="510" on="0"/>
        <pt x="183" y="574" on="1"/>
        <pt x="229" y="574" on="1"/>
        <pt x="239" y="563" on="1"/>
        <pt x="180" y="453" on="0"/>
        <pt x="112" y="352" on="0"/>
        <pt x="82" y="325" on="1"/>
        <pt x="216" y="330" on="1"/>
        <pt x="225" y="427" on="1"/>
        <pt x="263" y="427" on="1"/>
        <pt x="263" y="332" on="1"/>
        <pt x="325" y="335" on="1"/>
      </contour>
    </TTGlyph>
    <TTGlyph name="fraction" xMin="-131" yMin="0" xMax="267" yMax="568">
      <contour>
        <pt x="-76" y="0" on="1"/>
        <pt x="-131" y="0" on="1"/>
        <pt x="212" y="568" on="1"/>
        <pt x="267" y="568" on="1"/>
      </contour>
    </TTGlyph>
    <TTGlyph name="g" xMin="37" yMin="-201" xMax="439" yMax="425">
      <contour>
        <pt x="115" y="283" on="1"/>
        <pt x="115" y="229" on="0"/>
        <pt x="163" y="170" on="0"/>
        <pt x="217" y="170" on="1"/>
        <pt x="263" y="170" on="0"/>
        <pt x="312" y="219" on="0"/>
        <pt x="312" y="277" on="1"/>
        <pt x="312" y="334" on="0"/>
        <pt x="262" y="388" on="0"/>
        <pt x="210" y="388" on="1"/>
        <pt x="172" y="388" on="0"/>
        <pt x="115" y="348" on="0"/>
      </contour>
      <contour>
        <pt x="427" y="-48" on="1"/>
        <pt x="427" y="-117" on="0"/>
        <pt x="301" y="-201" on="0"/>
        <pt x="206" y="-201" on="1"/>
        <pt x="124" y="-201" on="0"/>
        <pt x="37" y="-138" on="0"/>
        <pt x="37" y="-85" on="1"/>
        <pt x="37" y="-48" on="0"/>
        <pt x="75" y="1" on="0"/>
        <pt x="103" y="16" on="1"/>
        <pt x="88" y="24" on="0"/>
        <pt x="71" y="53" on="0"/>
        <pt x="71" y="73" on="1"/>
        <pt x="71" y="103" on="0"/>
        <pt x="103" y="139" on="0"/>
        <pt x="124" y="151" on="1"/>
        <pt x="92" y="167" on="0"/>
        <pt x="52" y="228" on="0"/>
        <pt x="52" y="274" on="1"/>
        <pt x="52" y="352" on="0"/>
        <pt x="157" y="425" on="0"/>
        <pt x="220" y="425" on="1"/>
        <pt x="252" y="425" on="0"/>
        <pt x="306" y="408" on="0"/>
        <pt x="326" y="392" on="1"/>
        <pt x="345" y="407" on="0"/>
        <pt x="379" y="425" on="0"/>
        <pt x="397" y="425" on="1"/>
        <pt x="406" y="425" on="0"/>
        <pt x="429" y="420" on="0"/>
        <pt x="439" y="418" on="1"/>
        <pt x="439" y="369" on="1"/>
        <pt x="349" y="369" on="1"/>
        <pt x="362" y="353" on="0"/>
        <pt x="375" y="310" on="0"/>
        <pt x="375" y="285" on="1"/>
        <pt x="375" y="216" on="0"/>
        <pt x="279" y="133" on="0"/>
        <pt x="207" y="133" on="1"/>
        <pt x="193" y="133" on="0"/>
        <pt x="166" y="136" on="0"/>
        <pt x="153" y="140" on="1"/>
        <pt x="141" y="133" on="0"/>
        <pt x="125" y="111" on="0"/>
        <pt x="125" y="95" on="1"/>
        <pt x="125" y="72" on="0"/>
        <pt x="164" y="52" on="0"/>
        <pt x="207" y="52" on="1"/>
        <pt x="302" y="52" on="1"/>
        <pt x="365" y="52" on="0"/>
        <pt x="427" y="-2" on="0"/>
      </contour>
      <contour>
        <pt x="218" y="-163" on="1"/>
        <pt x="284" y="-163" on="0"/>
        <pt x="370" y="-112" on="0"/>
        <pt x="370" y="-59" on="1"/>
        <pt x="370" y="-33" on="0"/>
        <pt x="337" y="0" on="0"/>
        <pt x="287" y="0" on="1"/>
        <pt x="187" y="0" on="1"/>
        <pt x="171" y="0" on="0"/>
        <pt x="144" y="3" on="0"/>
        <pt x="132" y="5" on="1"/>
        <pt x="117" y="-9" on="0"/>
        <pt x="97" y="-48" on="0"/>
        <pt x="97" y="-76" on="1"/>
        <pt x="97" y="-113" on="0"/>
        <pt x="148" y="-163" on="0"/>
      </contour>
    </TTGlyph>
    <TTGlyph name="gbreve" xMin="37" yMin="-201" xMax="439" yMax="592">
      <component glyphName="g" x="0" y="0" flags="0x204"/>
      <component glyphName="uni0306" x="219" y="0" flags="0x4"/>
    </TTGlyph>
    <TTGlyph name="gcircumflex" xMin="37" yMin="-201" xMax="439" yMax="623">
      <component glyphName="g" x="0" y="0" flags="0x204"/>
      <component glyphName="uni0302" x="219" y="0" flags="0x4"/>
    </TTGlyph>
    <TTGlyph name="gcommaaccent" xMin="37" yMin="-201" xMax="439" yMax="648">
      <component glyphName="g" x="0" y="0" flags="0x204"/>
      <component glyphName="uni0312" x="219" y="0" flags="0x4"/>
    </TTGlyph>
    <TTGlyph name="gdotaccent" xMin="37" yMin="-201" xMax="439" yMax="582">
      <component glyphName="g" x="0" y="0" flags="0x204"/>
      <component glyphName="uni0307" x="219" y="0" flags="0x4"/>
    </TTGlyph>
</ttFont>
